<?xml version="1.0" encoding="UTF-8" standalone="no"?>
<!-- Created with Inkscape (http://www.inkscape.org/) -->

<svg
   xmlns:dc="http://purl.org/dc/elements/1.1/"
   xmlns:cc="http://creativecommons.org/ns#"
   xmlns:rdf="http://www.w3.org/1999/02/22-rdf-syntax-ns#"
   xmlns:svg="http://www.w3.org/2000/svg"
   xmlns="http://www.w3.org/2000/svg"
   xmlns:sodipodi="http://sodipodi.sourceforge.net/DTD/sodipodi-0.dtd"
   xmlns:inkscape="http://www.inkscape.org/namespaces/inkscape"
   id="svg5193"
   version="1.1"
   inkscape:version="0.48.4 r9939"
   width="531.49628"
   height="531.49628"
   xml:space="preserve"
   sodipodi:docname="cdface.svg"><metadata
     id="metadata5199"><rdf:RDF><cc:Work
         rdf:about=""><dc:format>image/svg+xml</dc:format><dc:type
           rdf:resource="http://purl.org/dc/dcmitype/StillImage" /><dc:title></dc:title></cc:Work></rdf:RDF></metadata><defs
     id="defs5197"><clipPath
       clipPathUnits="userSpaceOnUse"
       id="clipPath5207"><path
         d="m 0,0 425.197,0 0,425.197 L 0,425.197 0,0 z"
         id="path5209"
         inkscape:connector-curvature="0" /></clipPath><clipPath
       clipPathUnits="userSpaceOnUse"
       id="clipPath5227"><path
         d="m 0,0 425.197,0 0,425.197 L 0,425.197 0,0 z"
         id="path5229"
         inkscape:connector-curvature="0" /></clipPath><clipPath
       clipPathUnits="userSpaceOnUse"
       id="clipPath5247"><path
         d="m 0,0 425.197,0 0,425.197 L 0,425.197 0,0 z"
         id="path5249"
         inkscape:connector-curvature="0" /></clipPath><clipPath
       clipPathUnits="userSpaceOnUse"
       id="clipPath5267"><path
         d="m 0,0 425.197,0 0,425.197 L 0,425.197 0,0 z"
         id="path5269"
         inkscape:connector-curvature="0" /></clipPath><clipPath
       clipPathUnits="userSpaceOnUse"
       id="clipPath5287"><path
         d="m 0,0 425.197,0 0,425.197 L 0,425.197 0,0 z"
         id="path5289"
         inkscape:connector-curvature="0" /></clipPath></defs><sodipodi:namedview
     pagecolor="#ffffff"
     bordercolor="#666666"
     borderopacity="1"
     objecttolerance="10"
     gridtolerance="10"
     guidetolerance="10"
     inkscape:pageopacity="0"
     inkscape:pageshadow="2"
     inkscape:window-width="1366"
     inkscape:window-height="706"
     id="namedview5195"
     showgrid="false"
     units="mm"
     showguides="true"
     inkscape:guide-bbox="true"
     inkscape:snap-global="true"
     inkscape:object-paths="false"
     inkscape:snap-midpoints="true"
     inkscape:snap-bbox="true"
     inkscape:snap-bbox-edge-midpoints="true"
     inkscape:snap-bbox-midpoints="false"
     inkscape:snap-nodes="false"
     inkscape:zoom="3.5522356"
     inkscape:cx="256.77718"
     inkscape:cy="163.59565"
     inkscape:window-x="0"
     inkscape:window-y="0"
     inkscape:window-maximized="1"
     inkscape:current-layer="g5201"><sodipodi:guide
       orientation="1,0"
       position="265.74803,360.33646"
       id="guide5564" /><sodipodi:guide
       orientation="0,1"
       position="265.74803,265.74803"
       id="guide5670" /></sodipodi:namedview><g
     id="g5201"
     inkscape:groupmode="layer"
     inkscape:label="CD Ring Master"
     transform="matrix(1.25,0,0,-1.25,0,531.49626)"><g
       id="g6180"
       style="fill:#ffedd6;fill-opacity:1;stroke:none"
       transform="matrix(1.0533225,0,0,1.0533225,-11.342069,-11.350947)"><g
         clip-path="url(#clipPath5287)"
         id="g6182"
         style="fill:#ffedd6;fill-opacity:1;stroke:none"><g
           transform="translate(212.7069,45.6294)"
           id="g6184"
           style="fill:#ffedd6;fill-opacity:1;stroke:none"><path
             inkscape:connector-curvature="0"
             id="path6186"
             style="fill:#ffedd6;fill-opacity:1;stroke:none"
             d="M 0,0 C 92.366,0 167.244,74.878 167.244,167.244 167.244,259.61 92.366,334.488 0,334.488 -92.366,334.488 -167.244,259.61 -167.244,167.244 -167.244,74.878 -92.366,0 0,0 z" /></g><g
           transform="translate(212.7069,184.527)"
           id="g6188"
           style="fill:#ffedd6;fill-opacity:1;stroke:none"><path
             inkscape:connector-curvature="0"
             id="path6190"
             style="fill:#ffedd6;fill-opacity:1;fill-rule:nonzero;stroke:none"
             d="M 0,0 C 15.655,0 28.346,12.691 28.346,28.346 28.346,44.002 15.655,56.693 0,56.693 -15.655,56.693 -28.346,44.002 -28.346,28.346 -28.346,12.691 -15.655,0 0,0" /></g><g
           transform="translate(212.7069,164.6845)"
           id="g6192"
           style="fill:#ffedd6;fill-opacity:1;stroke:none"><path
             inkscape:connector-curvature="0"
             id="path6194"
             style="fill:#ffedd6;fill-opacity:1;stroke:none"
             d="M 0,0 C 26.614,0 48.189,21.575 48.189,48.189 48.189,74.803 26.614,96.378 0,96.378 -26.614,96.378 -48.189,74.803 -48.189,48.189 -48.189,21.575 -26.614,0 0,0 z" /></g></g></g><g
       id="g5203"><g
         id="g5205"
         clip-path="url(#clipPath5207)"><g
           id="g5211"
           transform="translate(212.7069,19.9077)"><path
             d="m 0,0 c 4.224,0 7.648,3.424 7.648,7.648 0,4.223 -3.424,7.647 -7.648,7.647 -4.224,0 -7.648,-3.424 -7.648,-7.647 C -7.648,3.424 -4.224,0 0,0 z"
             style="fill:none;stroke:#000000;stroke-width:0.25;stroke-linecap:butt;stroke-linejoin:miter;stroke-miterlimit:4;stroke-opacity:1;stroke-dasharray:none"
             id="path5213"
             inkscape:connector-curvature="0" /></g></g></g><g
       id="g5215"
       transform="translate(201.6469,27.5553)"><path
         d="M 0,0 22.12,0"
         style="fill:none;stroke:#000000;stroke-width:0.25;stroke-linecap:butt;stroke-linejoin:miter;stroke-miterlimit:4;stroke-opacity:1;stroke-dasharray:none"
         id="path5217"
         inkscape:connector-curvature="0" /></g><g
       id="g5219"
       transform="translate(212.707,38.6153)"><path
         d="M 0,0 0,-22.12"
         style="fill:none;stroke:#000000;stroke-width:0.25;stroke-linecap:butt;stroke-linejoin:miter;stroke-miterlimit:4;stroke-opacity:1;stroke-dasharray:none"
         id="path5221"
         inkscape:connector-curvature="0" /></g><g
       id="g5223"><g
         id="g5225"
         clip-path="url(#clipPath5227)"><g
           id="g5231"
           transform="translate(212.7069,391.5061)"><path
             d="m 0,0 c 4.224,0 7.648,3.424 7.648,7.648 0,4.223 -3.424,7.647 -7.648,7.647 -4.224,0 -7.648,-3.424 -7.648,-7.647 C -7.648,3.424 -4.224,0 0,0 z"
             style="fill:none;stroke:#000000;stroke-width:0.25;stroke-linecap:butt;stroke-linejoin:miter;stroke-miterlimit:4;stroke-opacity:1;stroke-dasharray:none"
             id="path5233"
             inkscape:connector-curvature="0" /></g></g></g><g
       id="g5235"
       transform="translate(201.6469,399.1537)"><path
         d="M 0,0 22.12,0"
         style="fill:none;stroke:#000000;stroke-width:0.25;stroke-linecap:butt;stroke-linejoin:miter;stroke-miterlimit:4;stroke-opacity:1;stroke-dasharray:none"
         id="path5237"
         inkscape:connector-curvature="0" /></g><g
       id="g5239"
       transform="translate(212.707,410.2137)"><path
         d="M 0,0 0,-22.12"
         style="fill:none;stroke:#000000;stroke-width:0.25;stroke-linecap:butt;stroke-linejoin:miter;stroke-miterlimit:4;stroke-opacity:1;stroke-dasharray:none"
         id="path5241"
         inkscape:connector-curvature="0" /></g><g
       id="g5243"><g
         id="g5245"
         clip-path="url(#clipPath5247)"><g
           id="g5251"
           transform="translate(399.0194,205.2259)"><path
             d="m 0,0 c 4.224,0 7.648,3.424 7.648,7.648 0,4.223 -3.424,7.647 -7.648,7.647 -4.224,0 -7.648,-3.424 -7.648,-7.647 C -7.648,3.424 -4.224,0 0,0 z"
             style="fill:none;stroke:#000000;stroke-width:0.25;stroke-linecap:butt;stroke-linejoin:miter;stroke-miterlimit:4;stroke-opacity:1;stroke-dasharray:none"
             id="path5253"
             inkscape:connector-curvature="0" /></g></g></g><g
       id="g5255"
       transform="translate(387.9594,212.8735)"><path
         d="M 0,0 22.12,0"
         style="fill:none;stroke:#000000;stroke-width:0.25;stroke-linecap:butt;stroke-linejoin:miter;stroke-miterlimit:4;stroke-opacity:1;stroke-dasharray:none"
         id="path5257"
         inkscape:connector-curvature="0" /></g><g
       id="g5259"
       transform="translate(399.0194,223.9335)"><path
         d="M 0,0 0,-22.12"
         style="fill:none;stroke:#000000;stroke-width:0.25;stroke-linecap:butt;stroke-linejoin:miter;stroke-miterlimit:4;stroke-opacity:1;stroke-dasharray:none"
         id="path5261"
         inkscape:connector-curvature="0" /></g><g
       id="g5263"><g
         id="g5265"
         clip-path="url(#clipPath5267)"><g
           id="g5271"
           transform="translate(26.421,205.2259)"><path
             d="m 0,0 c 4.224,0 7.648,3.424 7.648,7.648 0,4.223 -3.424,7.647 -7.648,7.647 -4.224,0 -7.648,-3.424 -7.648,-7.647 C -7.648,3.424 -4.224,0 0,0 z"
             style="fill:none;stroke:#000000;stroke-width:0.25;stroke-linecap:butt;stroke-linejoin:miter;stroke-miterlimit:4;stroke-opacity:1;stroke-dasharray:none"
             id="path5273"
             inkscape:connector-curvature="0" /></g></g></g><g
       id="g5275"
       transform="translate(15.3609,212.8735)"><path
         d="M 0,0 22.12,0"
         style="fill:none;stroke:#000000;stroke-width:0.25;stroke-linecap:butt;stroke-linejoin:miter;stroke-miterlimit:4;stroke-opacity:1;stroke-dasharray:none"
         id="path5277"
         inkscape:connector-curvature="0" /></g><g
       id="g5279"
       transform="translate(26.421,223.9335)"><path
         d="M 0,0 0,-22.12"
         style="fill:none;stroke:#000000;stroke-width:0.25;stroke-linecap:butt;stroke-linejoin:miter;stroke-miterlimit:4;stroke-opacity:1;stroke-dasharray:none"
         id="path5281"
         inkscape:connector-curvature="0" /></g><g
       id="g5283"><g
         id="g5285"
         clip-path="url(#clipPath5287)"><g
           id="g5291"
           transform="translate(212.7069,45.6294)"><path
             d="M 0,0 C 92.366,0 167.244,74.878 167.244,167.244 167.244,259.61 92.366,334.488 0,334.488 -92.366,334.488 -167.244,259.61 -167.244,167.244 -167.244,74.878 -92.366,0 0,0 z"
             style="fill:none;stroke:#231f20;stroke-width:1;stroke-linecap:butt;stroke-linejoin:miter;stroke-miterlimit:4;stroke-opacity:1;stroke-dasharray:none"
             id="path5293"
             inkscape:connector-curvature="0" /></g><g
           id="g5295"
           transform="translate(212.7069,184.527)"><path
             d="M 0,0 C 15.655,0 28.346,12.691 28.346,28.346 28.346,44.002 15.655,56.693 0,56.693 -15.655,56.693 -28.346,44.002 -28.346,28.346 -28.346,12.691 -15.655,0 0,0"
             style="fill:#231f20;fill-opacity:1;fill-rule:nonzero;stroke:none"
             id="path5297"
             inkscape:connector-curvature="0" /></g><g
           id="g5299"
           transform="translate(212.7069,164.6845)"><path
             d="M 0,0 C 26.614,0 48.189,21.575 48.189,48.189 48.189,74.803 26.614,96.378 0,96.378 -26.614,96.378 -48.189,74.803 -48.189,48.189 -48.189,21.575 -26.614,0 0,0 z"
             style="fill:none;stroke:#231f20;stroke-width:2.83500004;stroke-linecap:butt;stroke-linejoin:miter;stroke-miterlimit:4;stroke-opacity:1;stroke-dasharray:none"
             id="path5301"
             inkscape:connector-curvature="0" /></g></g></g><g
       id="g5303"
       transform="translate(201.5384,212.8735)"><path
         d="M 0,0 22.12,0"
         style="fill:none;stroke:#000000;stroke-width:0.25;stroke-linecap:butt;stroke-linejoin:miter;stroke-miterlimit:4;stroke-opacity:1;stroke-dasharray:none"
         id="path5305"
         inkscape:connector-curvature="0" /></g><g
       id="g5307"
       transform="translate(212.5984,223.9335)"><path
         d="M 0,0 0,-22.12"
         style="fill:none;stroke:#000000;stroke-width:0.25;stroke-linecap:butt;stroke-linejoin:miter;stroke-miterlimit:4;stroke-opacity:1;stroke-dasharray:none"
         id="path5309"
         inkscape:connector-curvature="0" /></g><path
       style="color:#000000;fill:none;stroke:#1d5866;stroke-width:0.56;stroke-linecap:butt;stroke-linejoin:round;stroke-miterlimit:4;stroke-opacity:1;stroke-dasharray:none;stroke-dashoffset:0;marker:none;visibility:visible;display:inline;overflow:visible;enable-background:accumulate"
       d="m 261.37278,170.95096 c 9.56168,11.15523 15.33801,25.65056 15.33801,41.49501 l 0,0 0,0 c 0,35.23239 -28.56149,63.7939 -63.79389,63.7939 -35.23239,0 -63.79388,-28.56151 -63.79388,-63.7939 0,-15.84445 5.77633,-30.33978 15.33801,-41.49501"
       id="path4060"
       inkscape:connector-curvature="0" /><path
       style="fill:none;stroke:#1d5866;stroke-width:0.72;stroke-linecap:butt;stroke-linejoin:miter;stroke-opacity:1;stroke-miterlimit:4;stroke-dasharray:none"
       d="m 93.455557,133.27934 238.285713,0"
       id="path3831"
       inkscape:connector-curvature="0" /><text
       xml:space="preserve"
       style="font-size:22.23598671px;font-style:normal;font-weight:normal;line-height:125%;letter-spacing:7.22669506px;word-spacing:0px;fill:#000000;fill-opacity:1;stroke:none;font-family:Sans"
       x="212.23686"
       y="-143.24294"
       id="text3833"
       sodipodi:linespacing="125%"
       transform="scale(1,-1)"><tspan
         sodipodi:role="line"
         id="tspan3835"
         x="215.8502"
         y="-143.24294"
         style="font-size:14.45339012px;font-style:normal;font-variant:normal;font-weight:500;font-stretch:normal;text-align:center;letter-spacing:7.22669506px;text-anchor:middle;fill:#a43a2c;fill-opacity:1;font-family:CMU Bright;-inkscape-font-specification:CMU Bright Medium">BHIKKHU BODHI</tspan></text>
<text
       xml:space="preserve"
       style="font-size:32px;font-style:normal;font-weight:normal;line-height:125%;letter-spacing:0px;word-spacing:0px;fill:#000000;fill-opacity:1;stroke:none;font-family:Sans"
       x="212.59842"
       y="-119.1584"
       id="text3845"
       sodipodi:linespacing="125%"
       transform="scale(1,-1)"><tspan
         sodipodi:role="line"
         id="tspan3847"
         x="212.59842"
         y="-119.1584"
         style="font-size:6.4000001px;font-style:normal;font-variant:normal;font-weight:500;font-stretch:normal;text-align:center;text-anchor:middle;fill:#a43a2c;fill-opacity:1;font-family:CMU Concrete;-inkscape-font-specification:CMU Concrete Medium">FOR FREE DISTRIBUTION, NON-MUSLIMS ONLY</tspan><tspan
         sodipodi:role="line"
         x="212.59842"
         y="-111.1584"
         style="font-size:6.4000001px;font-style:normal;font-variant:normal;font-weight:500;font-stretch:normal;text-align:center;text-anchor:middle;fill:#a43a2c;fill-opacity:1;font-family:CMU Concrete;-inkscape-font-specification:CMU Concrete Medium"
         id="tspan5647">IN HONOUR OF ROB AND LING'S 25<tspan
   style="font-size:52.00042725%;baseline-shift:super"
   id="tspan5662">th</tspan> ANNIVERSARY</tspan><tspan
         sodipodi:role="line"
         x="212.59842"
         y="-103.1584"
         style="font-size:6.4000001px;font-style:normal;font-variant:normal;font-weight:500;font-stretch:normal;text-align:center;text-anchor:middle;fill:#a43a2c;fill-opacity:1;font-family:CMU Concrete;-inkscape-font-specification:CMU Concrete Medium"
         id="tspan5649">SABBADANAM DHAMMADANAM JINATI</tspan><tspan
         sodipodi:role="line"
         x="212.59842"
         y="-95.158401"
         style="font-size:6.4000001px;font-style:normal;font-variant:normal;font-weight:500;font-stretch:normal;text-align:center;text-anchor:middle;fill:#a43a2c;fill-opacity:1;font-family:CMU Concrete;-inkscape-font-specification:CMU Concrete Medium"
         id="tspan5651">THE GIFT OF DHAMMA EXCELS ALL GIFTS</tspan><tspan
         sodipodi:role="line"
         x="212.59842"
         y="-87.158401"
         style="font-size:6.4000001px;font-style:normal;font-variant:normal;font-weight:500;font-stretch:normal;text-align:center;text-anchor:middle;fill:#a43a2c;fill-opacity:1;font-family:CMU Concrete;-inkscape-font-specification:CMU Concrete Medium"
         id="tspan3851">PRODUCED BY SBVMS</tspan></text>
<g
       id="g5664"
       transform="translate(-137.61934,-9.13951)"><path
         inkscape:connector-curvature="0"
         id="path4039"
         d="m 349.69856,70.131337 c -0.19862,0.0112 -0.42927,0.0304 -0.51255,0.044 -0.0832,0.0128 -0.20385,0.0304 -0.26791,0.0384 -0.10979,0.0128 -0.19793,0.0328 -0.51837,0.11408 -0.0737,0.0184 -0.16016,0.0392 -0.1922,0.0448 -0.032,0.01 -0.10542,0.028 -0.16308,0.048 -0.0576,0.0216 -0.12056,0.0416 -0.13978,0.0464 -0.0192,0 -0.0663,0.016 -0.10484,0.0264 -0.0384,0.01 -0.083,0.028 -0.099,0.04 l -0.0291,0.0232 0,-0.0176 0,-0.0176 -0.034,0.028 -0.034,0.028 -0.0227,-0.0136 -0.0227,-0.0136 -0.0146,0.0232 -0.0146,0.0232 -0.0552,0 -0.0552,0 -0.0308,0.0288 c -0.0169,0.016 -0.0518,0.0328 -0.0774,0.0368 -0.0256,0 -0.0615,0.0224 -0.0798,0.04 l -0.0332,0.0328 0.045,0.0168 c 0.0247,0.01 0.0711,0.0352 0.10316,0.0584 l 0.0583,0.0416 0.0814,0.0136 0.0814,0.0136 0.0196,0.0352 0.0196,0.0352 0.0622,0.0256 c 0.0342,0.0136 0.0701,0.024 0.0796,0.0224 0.01,0 0.0174,0.01 0.0174,0.0176 l 0,0.0216 0.0524,0.0168 c 0.0289,0.01 0.12876,0.0528 0.22206,0.0969 0.0933,0.0448 0.18398,0.0826 0.2015,0.0854 0.0175,0 0.046,0.016 0.0633,0.0288 0.0174,0.0128 0.10487,0.0536 0.19456,0.091 0.2191,0.0901 0.42349,0.18176 0.67562,0.30376 0.18697,0.091 0.2785,0.12864 0.31451,0.13112 0.006,4e-4 0.0326,0.012 0.0583,0.0272 0.0256,0.0136 0.0597,0.0232 0.0758,0.02 l 0.0291,-0.01 0,0.0224 0,0.0224 0.0631,0.016 c 0.0347,0.01 0.11595,0.04 0.18055,0.0696 0.15022,0.0688 0.25407,0.11384 0.26887,0.11632 0.006,0 0.0241,0.0104 0.0392,0.0192 l 0.0274,0.0176 0.1822,-0.0845 c 0.10022,-0.0464 0.31932,-0.1512 0.48691,-0.23328 0.16759,-0.0826 0.31239,-0.14928 0.32178,-0.14928 0.0154,0 0.0846,-0.0304 0.37529,-0.16368 0.2125,-0.0977 0.65642,-0.3104 0.71057,-0.34056 0.032,-0.0176 0.16832,-0.0854 0.30286,-0.1508 0.13454,-0.0648 0.30229,-0.14768 0.37276,-0.18368 l 0.12813,-0.0648 0,-0.0272 0,-0.0272 -0.17472,-0.0688 c -0.0961,-0.0384 -0.22192,-0.0836 -0.27958,-0.10192 -0.0576,-0.0184 -0.14677,-0.048 -0.19802,-0.0672 -0.10197,-0.0368 -0.2386,-0.064 -0.35306,-0.0696 l -0.0735,0 0.009,-0.0152 0.009,-0.0152 -0.0638,-0.012 c -0.0351,-0.01 -0.12149,-0.028 -0.19197,-0.0464 -0.30997,-0.0844 -0.82209,-0.14408 -1.42113,-0.16488 l -0.31452,-0.0112 -0.36109,0.0192 z m 7.08234,3.76864 c -0.0192,0.01 -0.10041,0.0576 -0.18044,0.11336 -0.08,0.056 -0.15013,0.1012 -0.15578,0.1012 -0.006,0 -0.0802,0.048 -0.16559,0.1064 -0.0854,0.0584 -0.18044,0.11584 -0.21115,0.12752 l -0.0558,0.0216 0,0.024 0,0.024 -0.0228,0 c -0.0126,0 -0.0833,0.0392 -0.15726,0.0873 -0.24099,0.15616 -0.57775,0.32888 -0.89157,0.45736 l -0.19802,0.0807 0,0.0248 c 0,0.0136 0.006,0.0224 0.015,0.0192 0.008,0 0.0376,0.0152 0.0651,0.04 0.0276,0.0248 0.0643,0.0472 0.0816,0.0504 0.0173,0 0.052,0.024 0.0771,0.048 0.0251,0.024 0.0839,0.072 0.13055,0.10816 l 0.0848,0.0648 0,0.0344 0,0.0344 0.0227,0 0.0227,0 0.0386,0.0744 c 0.0213,0.0408 0.0529,0.0891 0.0705,0.10656 0.0175,0.0176 0.0319,0.0472 0.0319,0.0656 l 0,0.0344 0.035,0.0128 0.0349,0.0128 0,0.0632 0,0.0632 0.0219,0.0224 c 0.0121,0.012 0.0273,0.048 0.0338,0.0807 0.006,0.032 0.0183,0.09 0.0261,0.12808 0.007,0.0384 0.022,0.0728 0.0317,0.076 l 0.0175,0.01 -0.006,0.2112 c -0.002,0.11608 -0.0118,0.31328 -0.0198,0.43824 -0.008,0.12496 -0.0205,0.352 -0.0278,0.5048 -0.0181,0.38384 -0.0467,0.8284 -0.0659,1.02456 -0.009,0.091 -0.0186,0.23256 -0.0217,0.31576 -0.002,0.0835 -0.0114,0.1612 -0.0182,0.17336 -0.006,0.012 -0.0149,0.0986 -0.0174,0.19224 -0.002,0.0938 -0.0104,0.19336 -0.0172,0.22136 -0.015,0.0616 -0.0462,0.2836 -0.0645,0.45888 -0.007,0.0704 -0.0178,0.15944 -0.023,0.19792 -0.006,0.0384 -0.0172,0.15376 -0.0264,0.25624 -0.0178,0.1988 -0.0183,0.20192 -0.0413,0.2912 -0.008,0.032 -0.0199,0.11064 -0.0259,0.1748 -0.006,0.064 -0.0214,0.15312 -0.0344,0.19792 -0.0373,0.12872 -0.0755,0.4764 -0.0852,0.77464 -0.005,0.15056 -0.015,0.30256 -0.0226,0.33784 -0.007,0.0352 -0.0175,0.089 -0.0221,0.11992 l -0.008,0.056 -0.0302,0.0184 -0.0302,0.0184 0.0157,0.016 0.0157,0.016 -0.0793,0.15744 c -0.0436,0.0863 -0.11124,0.2048 -0.15032,0.26272 -0.039,0.0576 -0.0711,0.11224 -0.0711,0.1208 0,0.0296 -0.26949,0.28552 -0.43764,0.4152 -0.18191,0.14024 -0.30399,0.20504 -0.47096,0.24976 -0.0576,0.016 -0.14676,0.0416 -0.19802,0.0592 -0.0512,0.0168 -0.1379,0.036 -0.19254,0.044 -0.0546,0.01 -0.11755,0.0224 -0.13979,0.0336 -0.0222,0.0112 -0.10857,0.0448 -0.19185,0.0736 -0.0833,0.0288 -0.19272,0.0728 -0.24318,0.0962 -0.0505,0.024 -0.11023,0.044 -0.13283,0.044 -0.0426,0 -0.30763,0.10976 -0.59083,0.24464 -0.0897,0.0424 -0.19192,0.0845 -0.22714,0.0919 l -0.0641,0.0136 0,0.0232 0,0.0232 -0.0259,0 c -0.0314,0 -0.34125,0.15256 -0.40212,0.198 l -0.0436,0.0328 0.013,0.0648 c 0.007,0.036 0.0242,0.10976 0.0378,0.16424 0.0135,0.0544 0.0337,0.13832 0.0446,0.1864 0.011,0.048 0.0389,0.12928 0.062,0.18048 0.0231,0.0512 0.0639,0.14352 0.0908,0.20504 l 0.0487,0.11184 0.10484,-0.0104 c 0.0576,-0.01 0.18109,-0.0216 0.27429,-0.0352 l 0.16945,-0.0248 0.18001,-0.0624 0.18,-0.0624 0.041,-0.0352 0.041,-0.0352 0.0134,0.0128 0.0134,0.0128 0.0679,-0.024 0.0679,-0.0232 0,-0.0192 0,-0.0192 0.0466,0.01 0.0466,0.01 0,-0.0224 0,-0.0224 0.0538,0 0.0538,0 0.0452,-0.0344 c 0.0249,-0.0184 0.0636,-0.0344 0.0859,-0.0352 l 0.0407,-6.4e-4 0.0413,-0.0408 0.0413,-0.0408 0.0578,-0.01 c 0.0318,0 0.13676,-0.0488 0.23332,-0.099 0.0966,-0.0504 0.18585,-0.091 0.19844,-0.091 0.0126,0 0.062,-0.0272 0.10982,-0.0592 0.0478,-0.0328 0.087,-0.052 0.087,-0.0432 0,0.01 0.0366,-0.0128 0.0816,-0.0472 0.0448,-0.0344 0.0816,-0.056 0.0816,-0.048 0,0.01 0.0131,0 0.0291,-0.0112 0.0522,-0.0432 0.20446,-0.13968 0.2984,-0.18768 l 0.0918,-0.0464 0,-0.036 0,-0.036 0.027,0.01 0.0269,0.01 0.0537,-0.0536 0.0536,-0.0536 0.0326,0 0.0326,0 0.0616,-0.0744 c 0.0338,-0.0408 0.0616,-0.0664 0.0616,-0.0576 0,0.0184 0.31001,-0.21856 0.32232,-0.2464 l 0.007,-0.0176 0.0202,0.0128 0.0203,0.0128 0.0381,-0.0584 0.0381,-0.0584 0.0387,-0.012 0.0387,-0.012 0.0466,-0.0696 0.0466,-0.0696 0.0299,-8e-5 0.0299,0 0.13655,-0.14184 c 0.18637,-0.19344 0.23476,-0.25072 0.23476,-0.27776 l 0,-0.0232 0.0349,0 0.035,0 0,-0.0248 c 0,-0.0136 0.0524,-0.0776 0.11649,-0.14288 l 0.11649,-0.11832 0,-0.0304 0,-0.0304 0.0686,-0.0408 0.0686,-0.0408 -0.0124,-0.0208 -0.0124,-0.0208 0.0732,-0.064 0.0732,-0.064 0.006,-0.04 c 0.002,-0.0216 0.0231,-0.0576 0.0442,-0.0808 0.10508,-0.11272 0.13374,-0.14728 0.13374,-0.16112 0,-0.01 0.0374,-0.06 0.0831,-0.11648 0.0457,-0.056 0.0764,-0.10136 0.0682,-0.10136 -0.008,0 0.002,-0.0168 0.0218,-0.036 0.0202,-0.0208 0.0366,-0.052 0.0366,-0.0696 l 0,-0.0336 0.021,0 0.021,0 0.0247,-0.0704 c 0.0137,-0.0392 0.0468,-0.10192 0.0736,-0.13968 l 0.0489,-0.0688 -0.0145,-0.0232 -0.0145,-0.0232 0.0191,0 c 0.0246,0 0.0781,-0.0854 0.0891,-0.14288 0.005,-0.024 0.0249,-0.06 0.0447,-0.0807 l 0.0362,-0.036 0,-0.0576 0,-0.0576 0.0184,0.0112 0.0184,0.0112 0.005,-0.056 c 0.002,-0.0304 0.0257,-0.0928 0.0515,-0.13872 0.0258,-0.0464 0.047,-0.0982 0.047,-0.11592 0,-0.0176 0.01,-0.036 0.0221,-0.04 l 0.0221,-0.01 0.0141,-0.0807 c 0.007,-0.0448 0.0226,-0.0919 0.033,-0.10488 0.0193,-0.0248 0.0474,-0.12408 0.0456,-0.16144 -4.4e-4,-0.0112 0.0121,-0.0288 0.028,-0.0392 l 0.029,-0.0176 0.005,-0.0424 c 0.002,-0.0232 0.0112,-0.0584 0.0192,-0.0776 0.0494,-0.11936 0.0905,-0.2572 0.10039,-0.3376 0.006,-0.0512 0.0186,-0.0982 0.0272,-0.1048 0.008,-0.01 0.0158,-0.0224 0.0159,-0.0352 4.5e-4,-0.0624 0.0651,-0.32952 0.0855,-0.35424 l 0.0231,-0.028 -0.0117,-0.0184 -0.0117,-0.0184 0.0226,-0.11608 c 0.0797,-0.40968 0.10157,-0.69816 0.10157,-1.33928 0,-0.48184 -0.0135,-0.79208 -0.0346,-0.79208 -0.007,0 -0.0114,-0.0344 -0.01,-0.076 0.002,-0.0656 -0.0158,-0.2324 -0.0494,-0.44352 -0.006,-0.0352 -0.0193,-0.0826 -0.0302,-0.10488 -0.011,-0.0224 -0.0338,-0.11856 -0.0507,-0.21456 -0.0169,-0.0961 -0.0406,-0.1944 -0.0526,-0.2184 -0.0121,-0.024 -0.0254,-0.0891 -0.0297,-0.14528 l -0.007,-0.1016 -0.0365,-0.052 -0.0365,-0.052 0,-0.0448 c 0,-0.024 -0.0279,-0.11592 -0.0622,-0.20344 l -0.0622,-0.1592 -0.0191,0.012 -0.0191,0.012 0.013,-0.0336 0.013,-0.0336 -0.0249,-0.016 c -0.0138,-0.01 -0.0249,-0.0304 -0.0249,-0.048 0,-0.0176 -0.0393,-0.11464 -0.0873,-0.2144 -0.0481,-0.0998 -0.0906,-0.20048 -0.0945,-0.22352 -0.004,-0.0232 -0.0454,-0.11728 -0.0923,-0.20936 -0.0468,-0.0919 -0.0829,-0.17544 -0.0802,-0.18504 0.002,-0.01 -0.006,-0.0176 -0.0184,-0.0176 l -0.0233,0 0,-0.044 0,-0.0432 -0.035,-0.0288 -0.0349,-0.0288 0,-0.0392 0,-0.0392 -0.0418,-0.0352 c -0.023,-0.0192 -0.0518,-0.0416 -0.0641,-0.048 l -0.0223,-0.0128 -0.0349,0.012 z m -13.32181,0.10472 c -0.0217,0.0264 -0.0726,0.13528 -0.0867,0.1856 -0.002,0.01 -0.007,0.02 -0.01,0.0232 -0.002,0 -0.008,0.0248 -0.0129,0.0488 -0.005,0.024 -0.0587,0.1488 -0.12052,0.27776 l -0.11237,0.23456 0.008,0.0368 0.008,0.0368 -0.0164,-0.016 -0.0164,-0.016 -0.0777,0.15592 c -0.0702,0.14088 -0.23791,0.54072 -0.25106,0.59848 -0.002,0.0128 -0.0116,0.0336 -0.0194,0.0464 -0.007,0.0128 -0.0218,0.06 -0.0312,0.10488 -0.009,0.0448 -0.025,0.0919 -0.0346,0.10488 -0.01,0.0128 -0.0246,0.076 -0.033,0.13984 -0.008,0.064 -0.0214,0.14264 -0.0285,0.17464 -0.007,0.0312 -0.0185,0.10024 -0.025,0.15144 -0.006,0.0512 -0.0202,0.10368 -0.0301,0.11648 l -0.018,0.0232 -0.0143,0.17856 c -0.007,0.0983 -0.0193,0.19264 -0.0255,0.20976 -0.0192,0.0536 -0.033,0.20376 -0.0593,0.6484 l -0.0255,0.43104 0.0145,0.16304 c 0.0299,0.33544 0.034,0.37832 0.0591,0.61656 0.0142,0.13408 0.0294,0.24968 0.0338,0.2568 0.005,0.01 0.015,0.06 0.0236,0.11728 0.0236,0.158 0.0974,0.5012 0.15285,0.71016 0.0272,0.1024 0.0578,0.21776 0.068,0.25624 0.0102,0.0384 0.0354,0.10888 0.0561,0.15648 0.0206,0.0472 0.0375,0.1056 0.0375,0.1288 l 0,0.0416 0.0431,0.0368 0.0431,0.0368 0.0158,0.11968 0.0158,0.1196 0.0355,0 0.0355,0 -0.0134,0.0216 -0.0134,0.0216 0.021,0.0128 c 0.0116,0.01 0.0282,0.0416 0.0369,0.0768 0.008,0.0352 0.0465,0.12984 0.0841,0.20992 0.0376,0.08 0.0674,0.15232 0.0664,0.16048 -8e-4,0.01 0.006,0.0216 0.0174,0.0288 0.0302,0.0224 0.0777,0.1148 0.0777,0.15176 l 0,0.0336 0.0641,0.0504 c 0.0353,0.028 0.0484,0.0416 0.0291,0.0328 l -0.0349,-0.0176 0.0349,0.0456 c 0.0192,0.0248 0.0437,0.052 0.0544,0.0592 0.0106,0.01 0.0201,0.0232 0.0208,0.0352 8e-4,0.0192 0.0205,0.0536 0.10857,0.19536 0.0199,0.0328 0.034,0.0656 0.0311,0.076 -0.002,0.01 0.006,0.0176 0.0193,0.0176 l 0.0245,0 0.0242,0.0696 0.0242,0.0696 0.0271,-0.01 0.0271,-0.01 -0.006,0.0304 -0.006,0.0304 0.0191,-0.012 0.0191,-0.012 0.0338,0.0216 0.0338,0.0216 -0.0271,4e-4 -0.0271,2.4e-4 0.0263,0.0696 c 0.0145,0.0384 0.0343,0.0696 0.0441,0.0696 0.01,0 0.039,0.0416 0.0652,0.0932 l 0.0475,0.0932 0.0242,0 0.0242,0 -0.0144,0.0232 -0.0144,0.0232 0.0201,0 c 0.011,0 0.0504,0.048 0.0875,0.10672 0.0371,0.0584 0.0891,0.12424 0.11542,0.1456 0.0263,0.0216 0.0666,0.068 0.0895,0.10344 0.0434,0.068 0.50443,0.55136 0.70178,0.73664 0.0629,0.0592 0.13081,0.12576 0.15077,0.14816 0.0199,0.0224 0.0493,0.0408 0.065,0.0408 0.0158,0 0.0535,0.0232 0.0839,0.0528 0.0885,0.0835 0.1554,0.13392 0.1793,0.13392 0.0122,0 0.0334,0.0216 0.0471,0.0464 l 0.025,0.0464 0.0342,0 0.0342,0 0,0.0264 0,0.0256 0.0361,-0.0136 0.0362,-0.0136 -0.0143,0.0232 -0.0142,0.0232 0.0377,0 0.0377,0 -0.0119,0.0192 -0.012,0.0192 0.0921,0.0408 0.0921,0.0408 0,0.0232 0,0.0232 0.022,-0.0136 0.022,-0.0136 0.12834,0.0817 c 0.0706,0.0456 0.13362,0.0817 0.14007,0.0817 0.006,0 0.0501,0.0256 0.0971,0.0576 l 0.0853,0.0576 0.0181,-0.0112 0.0181,-0.0112 0.0134,0.0344 0.0134,0.0352 0.0245,0 c 0.0134,0 0.0674,0.0272 0.11978,0.06 0.0524,0.0336 0.0898,0.0512 0.0832,0.0408 -0.006,-0.0104 0.0883,0.0296 0.21084,0.09 l 0.22294,0.10976 0.0196,-0.012 0.0196,-0.012 0,0.0248 0,0.0248 0.0414,0 c 0.0227,0 0.0621,0.0136 0.0873,0.0312 0.0253,0.0176 0.0879,0.0448 0.13915,0.0616 0.0512,0.0168 0.10367,0.0384 0.11648,0.048 0.0128,0.0104 0.0285,0.0184 0.035,0.0184 0.006,8e-5 0.0404,0.01 0.0755,0.016 l 0.0639,0.016 -0.0129,0.0208 -0.0129,0.0208 0.0378,0 c 0.0349,0 0.20712,0.064 0.33183,0.12288 l 0.0523,0.0248 0.0126,-0.0128 0.0126,-0.0128 0.19129,0.056 0.1913,0.056 0.15726,0.012 0.15725,0.012 0,-0.0304 c 0,-0.0168 0.0416,-0.11432 0.0924,-0.2168 0.0509,-0.10256 0.12479,-0.27416 0.16436,-0.38128 l 0.0719,-0.19472 -0.007,-0.0504 -0.007,-0.0504 -0.0286,0.01 -0.0286,0.01 0,-0.0216 0,-0.0216 -0.10482,-0.04 -0.10484,-0.04 0,-0.02 0,-0.0208 -0.0372,0 c -0.0204,0 -0.065,-0.0136 -0.099,-0.0312 -0.10346,-0.0536 -0.2757,-0.13104 -0.29158,-0.13104 -0.008,0 -0.125,-0.0528 -0.2595,-0.11648 -0.1345,-0.064 -0.25794,-0.11648 -0.27434,-0.11648 -0.0164,0 -0.052,-0.016 -0.079,-0.0344 -0.027,-0.0184 -0.13944,-0.0672 -0.24977,-0.10712 -0.11034,-0.04 -0.20648,-0.0817 -0.21366,-0.0937 l -0.013,-0.0216 -0.0522,0 c -0.0286,0 -0.0622,-0.01 -0.0743,-0.0216 -0.0122,-0.012 -0.0746,-0.0392 -0.13862,-0.06 -0.28811,-0.096 -0.81883,-0.30168 -0.85219,-0.33024 -0.0202,-0.0176 -0.0451,-0.0312 -0.0553,-0.0312 -0.0102,0 -0.0833,-0.0464 -0.16263,-0.10288 l -0.14413,-0.10288 -0.0859,-0.10488 c -0.0474,-0.0576 -0.0859,-0.11192 -0.0859,-0.1204 0,-0.0216 -0.14718,-0.23104 -0.16891,-0.24072 -0.01,-0.01 -0.0174,-0.0224 -0.0174,-0.0392 0,-0.0176 -0.0122,-0.0616 -0.0272,-0.0971 -0.015,-0.036 -0.029,-0.0704 -0.0311,-0.0768 -0.002,-0.01 -0.0106,-0.0272 -0.0186,-0.0464 -0.008,-0.0192 -0.0186,-0.13464 -0.0235,-0.25632 l -0.008,-0.22136 -0.0383,-0.24464 c -0.021,-0.13448 -0.0597,-0.39136 -0.0859,-0.5708 -0.0262,-0.17928 -0.0578,-0.39424 -0.0701,-0.47744 -0.0123,-0.0836 -0.0277,-0.19864 -0.0341,-0.2564 -0.0326,-0.29528 -0.0613,-0.51592 -0.0846,-0.65224 -0.0142,-0.0835 -0.0295,-0.2196 -0.0341,-0.30288 -0.005,-0.0835 -0.0187,-0.24056 -0.0317,-0.34952 -0.0129,-0.10888 -0.0288,-0.28184 -0.0354,-0.38432 -0.006,-0.10256 -0.0224,-0.30176 -0.035,-0.44272 -0.0127,-0.14088 -0.039,-0.49216 -0.0586,-0.7804 l -0.0357,-0.52424 -0.0261,-0.0932 -0.0262,-0.0931 0.0149,-0.20968 0.0149,-0.20968 0.0346,-0.11648 c 0.019,-0.064 0.0437,-0.13744 0.055,-0.16304 0.0111,-0.0264 0.0448,-0.10256 0.0749,-0.17096 l 0.0546,-0.1244 0.16396,-0.16976 0.16396,-0.16976 0.13464,-0.0854 0.13462,-0.0854 -0.0138,-0.0224 -0.0136,-0.0224 -0.0555,0 -0.0555,0 -0.0144,-0.0232 -0.0144,-0.0232 -0.0555,0 -0.0555,0 -0.0128,-0.02 c -0.007,-0.0112 -0.0418,-0.028 -0.0771,-0.036 -0.0569,-0.0136 -0.30862,-0.11832 -0.50694,-0.20992 -0.0384,-0.0176 -0.11707,-0.0528 -0.17472,-0.0784 l -0.10484,-0.0456 -0.24462,-0.1956 -0.24462,-0.19552 -0.20968,-0.091 c -0.11532,-0.0504 -0.2375,-0.11 -0.27151,-0.13312 -0.0734,-0.0504 -0.0988,-0.052 -0.13199,-0.012 z m 6.27441,1.06464 -0.18638,0.0424 -0.15143,0.0744 c -0.0833,0.0408 -0.20648,0.1068 -0.27375,0.14688 l -0.12232,0.0736 0.0145,0.0456 c 0.0151,0.0472 0.0372,0.0728 0.16974,0.18904 l 0.0793,0.0696 -0.0186,-0.0352 -0.0186,-0.0352 0.0297,0.028 0.0297,0.028 0.0927,-0.0616 c 0.051,-0.0336 0.11435,-0.0648 0.14077,-0.0688 0.0265,0 0.0602,-0.0176 0.0751,-0.0296 0.015,-0.012 0.11007,-0.0416 0.2115,-0.064 l 0.18443,-0.0416 0.006,-0.17952 0.006,-0.17952 0.0514,-0.0112 c 0.0283,-0.01 0.0724,-0.016 0.098,-0.0208 l 0.0466,-0.0104 -0.13978,0 -0.13978,0 -0.18637,0.0424 z m 0.66016,0.15768 0.007,0.18056 0.023,0.028 0.0231,0.028 0.13217,0.0272 0.13217,0.0272 0.13978,0.0826 c 0.14601,0.0863 0.1757,0.0938 0.26209,0.0648 l 0.0525,-0.0176 0,-0.044 0,-0.0432 0.0183,0 c 0.0101,0 0.0355,-0.0296 0.0567,-0.0648 l 0.0384,-0.0648 -0.016,-0.0232 c -0.0222,-0.0328 -0.24028,-0.1728 -0.26785,-0.1728 -0.0124,0 -0.0709,-0.0296 -0.12996,-0.0648 l -0.10741,-0.0648 -0.12409,-0.028 c -0.0682,-0.016 -0.15211,-0.028 -0.18639,-0.028 l -0.0622,-8e-5 0.007,0.18064 z m -1.75671,0.57216 c -0.0718,0.076 -0.11844,0.15912 -0.13705,0.24384 l -0.0166,0.0752 -0.0207,-0.0128 -0.0207,-0.0128 -0.015,0.0648 c -0.008,0.0352 -0.0382,0.13352 -0.0666,0.21736 l -0.0516,0.1524 0.002,0.10232 0.002,0.1024 0.17453,0 0.17454,0 0.0158,-0.0312 c 0.008,-0.0176 0.0335,-0.0994 0.055,-0.18272 l 0.039,-0.15136 0.0442,-0.0728 0.0442,-0.0728 0,-0.0416 0,-0.0416 0.0156,0.016 0.0156,0.016 0.0391,-0.0873 0.0393,-0.0872 -0.0866,-0.0817 c -0.0953,-0.0901 -0.18341,-0.16392 -0.19206,-0.16168 -0.002,8e-4 -0.0272,0.024 -0.0538,0.052 z m 2.94285,-0.036 c -0.0225,0.01 -0.0407,0.0184 -0.0407,0.0288 0,0.0112 -0.0428,0.0632 -0.0951,0.11584 l -0.0951,0.0962 0.0592,0.0776 0.0592,0.0776 -0.0164,0.0168 -0.0164,0.0168 0.0314,-0.01 0.0314,-0.01 0.009,0.076 c 0.005,0.0416 0.025,0.11416 0.0446,0.16088 l 0.0354,0.0844 -0.0118,0.012 -0.0118,0.012 0.026,0.0312 c 0.0143,0.0176 0.0191,0.0312 0.0109,0.0312 -0.008,0 8e-4,0.0312 0.021,0.0696 l 0.0361,0.0696 0.0634,0 c 0.15681,0.0104 0.22869,0.0104 0.2565,5.6e-4 l 0.03,-0.0104 -0.0104,-0.13408 -0.0104,-0.13408 -0.037,-0.0712 c -0.0203,-0.0392 -0.037,-0.089 -0.037,-0.1112 0,-0.0448 -0.14196,-0.34288 -0.1689,-0.35488 -0.01,0 -0.0174,-0.0208 -0.0174,-0.036 l 0,-0.0288 -0.0525,-0.0464 -0.0524,-0.0464 -0.0407,0.01 z m -1.77641,0.0504 c -0.0512,0.0192 -0.0967,0.0432 -0.10095,0.0536 -0.005,0.0104 -0.021,0.0184 -0.0372,0.0184 -0.0162,0 -0.0524,0.0208 -0.0806,0.0448 l -0.0511,0.0448 0.21314,0.212 c 0.11723,0.11656 0.22251,0.21184 0.23394,0.21184 l 0.0208,0 0,-0.30016 0,-0.30016 -0.0524,-0.01 -0.0525,-0.01 -0.0932,0.0352 z m 0.60671,0.024 -0.0134,0.0216 0.002,0.20792 0.002,0.208 0.021,0.0328 0.021,0.0328 0.0872,-0.10488 c 0.048,-0.0576 0.12286,-0.13888 0.1664,-0.18064 l 0.0792,-0.076 -0.0535,-0.0464 c -0.0494,-0.0424 -0.0668,-0.0504 -0.10841,-0.0448 -0.008,0 -0.0247,-0.0152 -0.0361,-0.0352 l -0.0207,-0.0368 -0.0674,0 -0.0674,0 -0.0134,0.0216 z m -1.23562,0.5316 c -0.0221,0.048 -0.0547,0.11776 -0.0726,0.15496 l -0.0324,0.068 0,0.0672 0,0.0656 0.23879,0 c 0.13134,0 0.25574,0 0.27645,0.01 l 0.0377,0.01 0.031,-0.0192 0.031,-0.0192 -0.057,-0.0504 -0.057,-0.0504 0.0349,0.0168 c 0.0192,0.01 -0.0122,-0.024 -0.0699,-0.0736 -0.0576,-0.0504 -0.14582,-0.12984 -0.19591,-0.17808 -0.0502,-0.048 -0.0987,-0.0882 -0.108,-0.0882 -0.009,0 -0.035,0.0392 -0.057,0.0873 z m 1.85201,-0.0664 c 0,0.028 -0.25485,0.28256 -0.2826,0.28256 l -0.0222,0 0.006,0.0408 0.006,0.0408 -0.0252,0 -0.0253,0 0,0.0344 0,0.0344 0.28152,-0.01 0.28151,-0.01 0.007,-0.064 0.007,-0.064 -0.0367,-0.0368 -0.0367,-0.0368 0.0133,-0.0216 0.0133,-0.0216 -0.0247,0 -0.0247,0 0,-0.0416 0,-0.0424 -0.0475,-0.0512 c -0.0487,-0.052 -0.0923,-0.0664 -0.0923,-0.0304 z m -3.58368,0.28984 c -0.15427,0.1444 -0.3016,0.27952 -0.44196,0.40528 l -0.10008,0.0901 -4.5e-4,0.0456 c -8e-4,0.0826 0.0195,0.15688 0.14955,0.54688 l 0.12819,0.3844 0.0197,0 c 0.0109,0 0.0382,-0.0408 0.0609,-0.0882 l 0.0412,-0.0854 0.007,-0.0872 c 0.005,-0.048 0.0133,-0.10264 0.0202,-0.12184 0.006,-0.0192 0.0358,-0.13984 0.0643,-0.268 0.0284,-0.12816 0.0619,-0.27488 0.0744,-0.32608 0.0564,-0.23104 0.07,-0.28392 0.0895,-0.34944 0.0114,-0.0384 0.0278,-0.11456 0.0364,-0.16896 l 0.0156,-0.099 -0.0163,0 c -0.009,0 -0.0758,0.056 -0.14858,0.12376 z m 5.29794,-0.10352 -0.0126,0.0208 0.036,0.13696 c 0.0198,0.0752 0.0406,0.16312 0.0462,0.1952 0.0527,0.302 0.11994,0.59648 0.14838,0.64952 l 0.0248,0.0464 0,0.0704 0,0.0704 0.0233,0.0136 0.0233,0.0136 0,0.056 c 0,0.0304 0.0121,0.0845 0.0268,0.12096 0.0148,0.036 0.0308,0.0863 0.0357,0.1116 0.005,0.0248 0.0186,0.056 0.0306,0.068 l 0.0219,0.0224 0.0116,-0.0336 c 0.0653,-0.18528 0.12967,-0.39784 0.12967,-0.428 0,-0.0208 0.0253,-0.0973 0.0561,-0.17064 l 0.0561,-0.13328 0.0116,-0.11128 0.0116,-0.1112 -0.03,-0.0288 c -0.0165,-0.016 -0.13144,-0.1256 -0.25547,-0.24408 -0.12404,-0.11856 -0.23465,-0.21552 -0.2458,-0.21552 -0.0111,0 -0.0269,-0.0216 -0.0351,-0.0464 l -0.0147,-0.0464 -0.0436,-0.0232 -0.0436,-0.0232 -0.0126,0.0208 z m -4.40023,0.64896 c -0.006,0.0104 -0.011,0.052 -0.0118,0.0934 l -0.002,0.0752 0.0218,0.0128 0.0218,0.0128 0,0.0656 0,0.0656 0.0329,0.0792 c 0.0181,0.044 0.0346,0.0891 0.0366,0.10184 0.002,0.0128 0.0166,0.0392 0.0322,0.0584 0.0157,0.0192 0.0437,0.0656 0.0625,0.1032 0.0186,0.0384 0.068,0.10456 0.10965,0.14888 0.0417,0.0448 0.0758,0.0891 0.0758,0.10072 0,0.0384 0.0384,0.0192 0.0922,-0.044 0.0297,-0.0352 0.0803,-0.0928 0.11241,-0.12712 l 0.0585,-0.0632 -0.0389,-0.0592 c -0.0214,-0.0328 -0.0326,-0.0592 -0.025,-0.0592 0.007,0 -0.002,-0.0168 -0.0227,-0.036 -0.0202,-0.0208 -0.0431,-0.0648 -0.0512,-0.099 -0.008,-0.0344 -0.0341,-0.0948 -0.0578,-0.1344 -0.0411,-0.0688 -0.0618,-0.13864 -0.0656,-0.22256 l -0.002,-0.0384 -0.064,-0.0168 c -0.0353,-0.01 -0.11832,-0.0216 -0.18461,-0.0272 l -0.12055,-0.01 -0.0103,0.0176 z m 0.75581,0.0152 -0.021,0.0256 0.006,0.0464 c 0.004,0.0256 0.014,0.0704 0.0231,0.099 l 0.0166,0.052 0.022,0 0.022,0 -0.0134,0.0224 -0.0134,0.0224 0.0572,0.0576 0.0572,0.0576 0.13068,-0.12552 c 0.0718,-0.0688 0.13818,-0.1256 0.14733,-0.1256 0.009,0 0.0302,-0.0224 0.0469,-0.048 l 0.0302,-0.048 -0.0242,-0.0288 -0.0242,-0.0288 -0.22125,0 -0.22126,0 -0.021,0.0264 z m 1.6506,-0.01 -0.035,0.024 0.0816,0.0712 c 0.0448,0.04 0.1245,0.1128 0.17702,0.16304 l 0.0955,0.091 0.0632,-0.0504 0.0632,-0.0504 -0.0118,-0.0304 -0.0118,-0.0304 0.0247,-0.01 0.0247,-0.01 0.002,-0.0918 0.002,-0.0919 -0.22133,-0.01 -0.22133,-0.01 -0.0349,0.024 z m 0.87196,0.0176 c -0.0102,0.0224 -0.0205,0.0568 -0.0232,0.076 -0.002,0.0192 -0.0162,0.064 -0.0302,0.099 -0.0139,0.0352 -0.0202,0.064 -0.0138,0.064 0.006,0 -0.004,0.0232 -0.0227,0.0528 -0.019,0.0288 -0.0343,0.06 -0.0343,0.0704 0,0.0328 -0.10347,0.2032 -0.12304,0.2032 l -0.019,0 4.3e-4,0.0408 4.5e-4,0.0408 0.0953,0.0696 c 0.0524,0.0384 0.10458,0.0672 0.11592,0.064 l 0.0206,-0.01 1.2e-4,0.0408 1.2e-4,0.0408 0.0647,-0.0696 c 0.0766,-0.0826 0.16642,-0.23184 0.17547,-0.2912 0.004,-0.0232 0.018,-0.0568 0.032,-0.0736 0.0435,-0.0536 0.0965,-0.1992 0.11348,-0.31264 l 0.0162,-0.10824 -0.0321,-0.0208 -0.0321,-0.02 -0.14311,-2.4e-4 -0.14312,-4e-4 -0.0183,0.0408 z m -1.74795,0.3232 c -0.0499,0.0584 -0.14065,0.15976 -0.20151,0.22552 l -0.11066,0.11936 0,0.028 0,0.028 0.037,0.0136 0.037,0.0136 0.0212,-0.0128 0.0211,-0.0128 0,0.0224 c 0,0.0256 0.0551,0.0504 0.15143,0.0672 0.0384,0.01 0.0752,0.0184 0.0816,0.0272 0.006,0.01 0.03,0.0184 0.0524,0.0224 l 0.0407,0.01 0,-0.31416 0,-0.31424 -0.0198,-0.012 -0.0198,-0.012 -0.0908,0.10616 z m 0.54067,-0.0184 c -0.006,0.0112 -0.0121,0.10296 -0.0117,0.20424 l 8e-4,0.18416 0.023,0.0744 0.023,0.0744 0.0334,-0.0128 0.0334,-0.0128 -0.0151,-0.024 -0.0151,-0.024 0.029,0.0176 0.029,0.0176 0.12597,-0.064 c 0.0694,-0.0352 0.12596,-0.0712 0.12596,-0.08 0,-0.01 -0.0236,-0.0384 -0.0524,-0.064 -0.0289,-0.0264 -0.0885,-0.0882 -0.13261,-0.13808 -0.0441,-0.0496 -0.10364,-0.10888 -0.13232,-0.13152 l -0.0522,-0.0408 -0.0125,0.0208 z m -1.24856,0.75136 -0.11682,0.11568 0,0.0304 0,0.0304 0.1405,0.08 c 0.0773,0.0432 0.16274,0.098 0.18993,0.1204 l 0.0494,0.0408 0.043,0 c 0.0628,0 0.0722,0.01 0.13623,0.0424 0.0624,0.0344 0.0642,0.0344 0.11512,-0.01 l 0.0336,-0.0272 -0.0144,0.024 -0.0145,0.024 0.0682,0.0304 0.0682,0.0304 0,3.96024 0,3.96032 -0.0334,0.0336 -0.0334,0.0336 -0.0444,0 -0.0444,0 -0.12664,0.134 -0.12665,0.13392 -0.0505,0.0969 c -0.0278,0.0528 -0.0629,0.14248 -0.078,0.19808 l -0.0274,0.10112 6e-4,0.15504 5.9e-4,0.15504 0.0261,0.0488 c 0.0144,0.0272 0.0202,0.0496 0.0131,0.0496 -0.0214,0 0.0622,0.14896 0.10237,0.18232 l 0.0372,0.0304 -0.035,-0.0176 -0.0349,-0.0176 0.029,0.0352 0.029,0.0352 -0.0122,0.012 -0.0122,0.012 0.0648,0.0416 c 0.0356,0.0232 0.0788,0.0624 0.0959,0.0854 0.0758,0.10616 0.33216,0.21928 0.54834,0.24192 l 0.11945,0.012 0.0932,-0.0336 0.0932,-0.0336 0.0277,0.01 0.0278,0.01 0.0597,-0.0392 0.0597,-0.0392 0,0.0184 c 0,0.0104 0.0244,0 0.0541,-0.0328 l 0.0541,-0.0512 0.0167,0.0168 0.0166,0.0168 0.0134,-0.0512 0.0134,-0.0512 0.0273,0 0.0273,0 0.0839,-0.10032 0.0839,-0.1004 0.0469,-0.11512 c 0.0258,-0.0632 0.0596,-0.16432 0.0752,-0.22456 l 0.0282,-0.10952 -0.0257,-0.14592 -0.0257,-0.146 -0.0622,-0.1272 c -0.0591,-0.12088 -0.12293,-0.21088 -0.18988,-0.268 -0.0166,-0.0136 -0.0481,-0.0416 -0.0699,-0.06 -0.0218,-0.0192 -0.0895,-0.0616 -0.15032,-0.0928 l -0.11066,-0.0576 -0.004,-3.93192 c -0.002,-2.16256 -0.005,-3.94472 -0.006,-3.9604 l -0.002,-0.0288 0.0499,-0.0248 c 0.0274,-0.0136 0.0651,-0.0368 0.0837,-0.0528 0.0186,-0.016 0.0386,-0.0232 0.0446,-0.0176 0.006,0.01 0.0495,1.6e-4 0.0969,-0.0128 l 0.086,-0.024 0,-0.0224 0,-0.0224 0.0451,0 0.0451,0 0.15288,-0.0974 0.15289,-0.0974 0,-0.0328 0,-0.0328 -0.0818,-0.0955 -0.0818,-0.0955 -0.0502,-0.01 -0.0502,-0.01 -0.0486,0.044 -0.0486,0.0432 -0.13978,0.048 c -0.25117,0.0872 -0.30857,0.11032 -0.34675,0.14208 l -0.0377,0.0312 0,4.16296 0,4.16304 0.064,0.0592 0.0641,0.0592 0.0595,0.0136 0.0595,0.0136 0.0627,0.0648 c 0.11469,0.11848 0.15979,0.18032 0.20701,0.28384 l 0.0468,0.10264 0.002,0.19176 0.002,0.19176 -0.0342,0.0408 c -0.0189,0.0224 -0.029,0.0424 -0.0226,0.0448 0.006,0 -0.0227,0.068 -0.0649,0.14688 l -0.0765,0.14352 -0.0574,0.0456 -0.0574,0.0456 0,0.0296 0,0.0296 -0.0146,-0.0152 -0.0146,-0.0152 -0.0844,0.0368 c -0.0809,0.0352 -0.17612,0.052 -0.35232,0.0616 l -0.0816,0 -0.0932,-0.0304 c -0.0512,-0.0168 -0.11338,-0.0352 -0.13806,-0.04 -0.0247,-0.01 -0.0534,-0.0224 -0.0638,-0.0392 l -0.0189,-0.0296 -3e-4,0.0224 -3e-4,0.0224 -0.0315,-0.0424 -0.0315,-0.0432 -0.0371,0.0136 -0.0371,0.0136 0.013,-0.0336 0.013,-0.0336 -0.0233,0 -0.0233,0 -0.0148,-0.0584 -0.0147,-0.0584 -0.046,-0.0464 c -0.0254,-0.0248 -0.0405,-0.0464 -0.0338,-0.0464 0.006,0 -0.006,-0.0344 -0.0279,-0.076 l -0.0401,-0.076 -8e-4,-0.19808 -8e-4,-0.198 0.0643,-0.13736 0.0643,-0.13736 0.0537,-0.0496 c 0.0295,-0.0272 0.0811,-0.0696 0.11483,-0.0942 l 0.0612,-0.0456 -0.0138,-0.0224 -0.0138,-0.0224 0.0279,0.0176 0.0279,0.0176 0.0346,-0.0288 0.0346,-0.0288 0.0147,0.0152 0.0148,0.0152 0.0313,-0.0264 0.0313,-0.0264 0,-4.17456 0,-4.17456 -0.0309,-0.0424 -0.0309,-0.0416 -0.0914,0 -0.0914,0 -0.0308,-0.0288 -0.0308,-0.0288 -0.0457,0 -0.0457,0 -0.16203,-0.0918 -0.16202,-0.0919 -0.11682,0.1156 z"
         style="fill:#6a767c;fill-opacity:1" /><path
         inkscape:connector-curvature="0"
         id="path4037"
         d="m 349.92036,69.452314 c -0.006,0.01 -0.20731,0.0192 -0.44634,0.0288 -0.23903,0.01 -0.44189,0.0216 -0.45082,0.0272 -0.009,0.01 -0.0882,0.0152 -0.17619,0.0224 -0.088,0.01 -0.17503,0.0176 -0.19345,0.024 -0.0184,0.01 -0.11355,0.0168 -0.21143,0.0224 -0.0978,0.01 -0.20963,0.016 -0.2484,0.0224 -0.0388,0.01 -0.13389,0.0176 -0.21142,0.0248 -0.0775,0.01 -0.14806,0.0184 -0.15675,0.024 -0.008,0.01 -0.0668,0.016 -0.12921,0.0224 -0.0624,0.01 -0.17682,0.0272 -0.25434,0.0448 -0.0775,0.0176 -0.19908,0.0392 -0.27015,0.048 -0.0711,0.01 -0.13471,0.0192 -0.14145,0.0232 -0.006,0 -0.0594,0.0152 -0.11696,0.0232 -0.0576,0.01 -0.11304,0.02 -0.12322,0.0272 -0.0102,0.01 -0.0474,0.016 -0.0827,0.0224 -0.12956,0.0216 -0.20572,0.0392 -0.22864,0.0528 -0.0129,0.01 -0.0341,0.016 -0.047,0.0184 -0.0129,0 -0.0596,0.0112 -0.10365,0.0192 -0.0441,0.01 -0.13923,0.036 -0.21143,0.0624 -0.0722,0.0264 -0.14998,0.0472 -0.17288,0.0472 l -0.0416,0 0.0151,0.024 0.0151,0.024 -0.0466,-0.0248 c -0.0256,-0.0136 -0.0771,-0.0304 -0.11442,-0.0368 -0.0373,-0.01 -0.0919,-0.0176 -0.12136,-0.0232 -0.0294,-0.01 -0.12458,-0.0128 -0.21142,-0.0144 l -0.15791,-0.01 -0.0439,-0.0224 -0.0439,-0.0224 0.0191,0.0312 0.0191,0.032 -0.0338,-0.0264 -0.0338,-0.0264 -0.28189,-0.0176 c -0.15505,-0.01 -0.41933,-0.02 -0.58729,-0.0232 l -0.30539,-0.01 -0.19723,0.02 -0.19725,0.02 -0.0801,0.0472 c -0.0441,0.0264 -0.0964,0.0472 -0.11627,0.0472 -0.0198,0 -0.0642,0.016 -0.0985,0.0344 -0.0343,0.0184 -0.0994,0.0496 -0.14458,0.068 -0.0452,0.0184 -0.12979,0.0544 -0.18793,0.08 -0.0582,0.0248 -0.18264,0.0704 -0.27667,0.0999 l -0.17096,0.0536 -0.0505,0.0736 c -0.0278,0.04 -0.0671,0.091 -0.0874,0.1132 -0.0203,0.0224 -0.0478,0.0536 -0.061,0.0704 -0.0133,0.0168 -0.0714,0.0826 -0.12922,0.1464 l -0.10507,0.11584 0.0353,-0.0176 0.0353,-0.0176 -0.047,0.036 c -0.0804,0.0616 -0.17691,0.1644 -0.2177,0.23176 -0.0215,0.0352 -0.0474,0.0648 -0.0575,0.0648 -0.0102,0 -0.0184,0.0136 -0.0184,0.032 0,0.0176 -0.0211,0.056 -0.047,0.0854 -0.0441,0.0512 -0.0564,0.0817 -0.0498,0.12336 0.002,0.01 -0.008,0.0176 -0.0221,0.0176 l -0.0249,0 0.0145,0.0232 0.0145,0.0232 -0.0232,0 -0.0232,0 -0.0278,0.13432 c -0.0153,0.0744 -0.0318,0.17568 -0.0367,0.2264 l -0.009,0.0918 -0.0413,0.0328 c -0.0227,0.0176 -0.11263,0.0712 -0.19983,0.11928 l -0.15857,0.0872 0,0.0208 0,0.02 -0.0235,-0.0152 -0.0235,-0.0152 0,0.0248 0,0.0248 -0.094,0.0408 c -0.0517,0.0224 -0.094,0.0488 -0.094,0.0584 l 0,0.0176 -0.0353,0 -0.0353,0 0,0.0224 0,0.0224 -0.0524,0.0168 c -0.0487,0.016 -0.17926,0.0977 -0.20601,0.12968 -0.006,0.01 -0.0244,0.0184 -0.0399,0.0232 -0.0497,0.0168 -0.42761,0.29432 -0.65309,0.47984 -0.0388,0.032 -0.16561,0.12888 -0.2819,0.21536 -0.19319,0.14368 -0.27234,0.20808 -0.38774,0.31568 -0.0226,0.0216 -0.0526,0.0416 -0.0668,0.0472 -0.0496,0.0168 -0.39395,0.33968 -0.78588,0.73656 -0.53715,0.544 -0.58144,0.59112 -0.66235,0.70416 -0.0388,0.0536 -0.079,0.0998 -0.0897,0.10144 -0.0106,0 -0.0422,0.0328 -0.0705,0.0688 -0.0485,0.0624 -0.091,0.11112 -0.16987,0.1972 -0.0187,0.0208 -0.0342,0.0448 -0.0342,0.0536 0,0.01 -0.0238,0.0408 -0.0528,0.0712 -0.029,0.0296 -0.0686,0.0776 -0.0881,0.10728 -0.0427,0.064 -0.15274,0.21088 -0.19353,0.25816 -0.0163,0.0184 -0.058,0.0736 -0.0927,0.12096 l -0.063,0.0863 0.0141,0.0136 0.0141,0.0136 -0.0251,0 -0.0251,0 -0.061,0.10408 c -0.0335,0.0576 -0.0742,0.11824 -0.0903,0.13568 -0.0523,0.0568 -0.13506,0.18064 -0.13506,0.20272 0,0.012 -0.0167,0.0352 -0.037,0.052 -0.0204,0.0168 -0.0627,0.0792 -0.0942,0.13808 -0.077,0.14432 -0.11095,0.19784 -0.13891,0.21832 l -0.0234,0.0176 0.0221,2.4e-4 0.0221,3.2e-4 -0.0379,0.0296 c -0.0209,0.016 -0.0619,0.0768 -0.0912,0.13512 -0.0293,0.0584 -0.0765,0.13744 -0.10487,0.17616 -0.0517,0.0704 -0.21441,0.4044 -0.21626,0.44376 -5.9e-4,0.0112 -0.01,0.0272 -0.0206,0.0352 -0.0107,0.01 -0.0374,0.0528 -0.0591,0.0998 l -0.0395,0.0854 0.21229,0.43128 c 0.11676,0.23728 0.22265,0.43784 0.23531,0.44568 0.0126,0.01 0.0235,0.024 0.0241,0.0352 0.002,0.044 0.0272,0.0932 0.073,0.14424 0.0262,0.0288 0.0404,0.0528 0.0315,0.0528 -0.0263,0 0.10001,0.22608 0.16642,0.29776 0.0338,0.036 0.0569,0.068 0.0514,0.0696 -0.0155,0 0.21477,0.31248 0.28882,0.38656 0.0358,0.036 0.0651,0.076 0.0651,0.0891 0,0.0128 0.0265,0.0448 0.0587,0.0696 0.0323,0.0248 0.0587,0.0528 0.0587,0.0616 0,0.01 0.0265,0.04 0.0587,0.0696 0.0323,0.0296 0.0587,0.0656 0.0587,0.0807 l 0,0.0264 0.0646,0.0344 0.0646,0.0336 -0.002,0.0192 c -0.002,0.0112 0.0338,0.064 0.0786,0.1188 l 0.0812,0.0991 0.019,-0.01 c 0.0104,0 0.0202,0.01 0.0219,0.0184 0.002,0.0128 0.0679,0.0891 0.14738,0.1692 l 0.14439,0.14576 0.0199,-0.012 0.0199,-0.012 -0.006,0.032 -0.006,0.0312 0.0311,-0.01 0.0311,-0.01 -0.0126,0.0208 -0.0126,0.02 0.32217,0.3112 c 0.17718,0.1712 0.37502,0.36312 0.43962,0.42648 0.0646,0.0632 0.12655,0.11528 0.13764,0.11528 0.0111,-8e-5 0.0811,0.0616 0.15547,0.13504 0.0744,0.0744 0.18508,0.17736 0.24597,0.22904 0.0609,0.052 0.12834,0.11088 0.14992,0.13136 0.0216,0.0208 0.10266,0.0882 0.18018,0.15032 0.0775,0.0624 0.14624,0.1196 0.1527,0.12784 0.006,0.01 0.0434,0.0392 0.0822,0.0688 0.0794,0.06 0.16784,0.13072 0.36081,0.28728 0.16496,0.13376 0.38649,0.28008 0.42409,0.28008 l 0.0283,0 -0.0133,0.0216 -0.0133,0.0216 0.0706,0.0312 c 0.0388,0.0168 0.0706,0.04 0.0706,0.0504 l 0,0.0192 0.0215,-0.0128 0.0214,-0.0128 0.007,0.0192 c 0.011,0.028 0.24575,0.186 0.30215,0.20392 0.0255,0.01 0.0463,0.024 0.0463,0.0352 0,0.0112 0.0213,0.0272 0.0471,0.0352 0.0259,0.01 0.0788,0.0416 0.11744,0.0744 0.0387,0.0328 0.0835,0.0616 0.0997,0.064 0.0162,0 0.0932,0.0472 0.17116,0.0993 0.078,0.052 0.15728,0.102 0.17619,0.11096 0.019,0.01 0.0661,0.0368 0.10487,0.0624 0.0388,0.0248 0.19204,0.10848 0.34062,0.18472 0.14859,0.076 0.30187,0.15584 0.34063,0.1768 0.0388,0.0216 0.0828,0.0384 0.0979,0.0384 0.015,8e-5 0.0309,0.01 0.0353,0.0176 0.0118,0.0272 0.36835,0.19536 0.78305,0.37088 0.26443,0.11192 0.36821,0.15288 0.40467,0.15944 0.0229,0 0.084,0.0264 0.13563,0.0496 0.0517,0.0232 0.10982,0.0448 0.1292,0.0472 0.0382,0.01 0.0882,0.024 0.20323,0.0752 0.0407,0.0176 0.0903,0.0328 0.1102,0.0328 0.0198,0 0.0421,0.01 0.0492,0.0216 l 0.0131,0.0216 0.1234,0.0288 c 0.0678,0.016 0.13398,0.0368 0.14691,0.0464 0.0242,0.0176 0.51286,0.16768 0.57553,0.17632 0.0194,0 0.0626,0.016 0.0961,0.0296 0.0335,0.0136 0.0916,0.0304 0.12921,0.0384 0.0376,0.01 0.16875,0.0392 0.29149,0.0704 0.12274,0.0312 0.25488,0.0624 0.29365,0.0664 0.0388,0.01 0.0863,0.0168 0.10571,0.024 0.0194,0.01 0.13566,0.0408 0.2584,0.0728 l 0.22317,0.0576 0.34062,0.0512 c 0.18735,0.028 0.3483,0.056 0.35765,0.0616 0.0248,0.0152 0.35828,0.0768 0.49767,0.0928 0.0658,0.01 0.15658,0.0224 0.2018,0.0336 0.0452,0.0112 0.12979,0.0272 0.18794,0.0352 0.12525,0.0176 0.12861,0.0208 0.10487,0.0752 -0.0101,0.0232 -0.0158,0.0528 -0.0127,0.0656 l 0.006,0.0232 -0.0165,-0.0168 -0.0165,-0.0168 -0.0318,0.0312 c -0.0314,0.0312 -0.0836,0.15832 -0.13129,0.3184 l -0.0244,0.0826 -0.006,0.15264 -0.006,0.15264 0.0181,0.0648 0.0181,0.0648 0.0692,0.0872 c 0.0381,0.048 0.0705,0.0954 0.0719,0.10504 0.002,0.01 0.004,0.0208 0.005,0.0232 0.0127,0.0416 0.0267,0.11752 0.0358,0.19384 0.006,0.052 0.0174,0.10984 0.0251,0.1292 0.007,0.0192 0.017,0.0576 0.0206,0.0835 0.004,0.0272 0.025,0.09 0.0476,0.14088 0.0226,0.0512 0.043,0.0975 0.0453,0.10408 0.0353,0.0974 0.20958,0.40752 0.26359,0.46888 0.023,0.0264 0.14008,0.14672 0.2602,0.26824 l 0.2184,0.22072 0.32969,0.16792 0.32971,0.16792 -0.0182,-0.0304 -0.0182,-0.0304 0.0406,0.0336 0.0406,0.0336 0.12239,0.024 c 0.26281,0.0512 0.60262,0.016 0.70381,-0.0728 0.0226,-0.0192 0.0411,-0.0296 0.0411,-0.0224 l 0,0.0136 0.0764,-0.0264 c 0.0419,-0.0136 0.10541,-0.0464 0.14094,-0.0704 0.0355,-0.0248 0.0646,-0.0392 0.0646,-0.0312 0,0.0128 0.29643,-0.20912 0.42285,-0.31696 0.0323,-0.028 0.0931,-0.0768 0.13507,-0.11104 0.0419,-0.0336 0.0764,-0.0696 0.0764,-0.08 0,-0.0104 0.0185,-0.04 0.0411,-0.0648 0.0758,-0.0836 0.0999,-0.11704 0.1272,-0.17704 0.015,-0.0328 0.0342,-0.0592 0.0429,-0.0592 0.0462,0 0.30558,-0.50584 0.30558,-0.59568 0,-0.0192 0.009,-0.0416 0.0204,-0.048 l 0.0204,-0.0128 0.0179,-0.1004 c 0.01,-0.056 0.0213,-0.1268 0.0253,-0.15904 0.0179,-0.14312 0.0521,-0.2172 0.12975,-0.28192 0.007,-0.01 0.0274,-0.0368 0.0438,-0.068 l 0.0297,-0.0568 -8e-4,-0.0919 -8e-4,-0.0918 -0.0406,-0.1104 c -0.0224,-0.06 -0.053,-0.12616 -0.068,-0.14552 -0.0299,-0.0384 -0.12864,-0.24752 -0.13033,-0.27592 -6e-4,-0.01 -0.0162,-0.0408 -0.0346,-0.0688 l -0.0335,-0.0512 0.0758,-0.0168 c 0.0417,-0.01 0.086,-0.0224 0.0985,-0.0296 0.0126,-0.01 0.0494,-0.016 0.0822,-0.0184 0.0841,-0.01 0.24093,-0.0312 0.28264,-0.0448 0.0423,-0.0128 0.1485,-0.0304 0.26681,-0.0464 0.0478,-0.01 0.0959,-0.0168 0.10695,-0.0232 0.011,-0.01 0.061,-0.0184 0.11094,-0.0272 0.0499,-0.01 0.0961,-0.0216 0.10259,-0.0296 0.006,-0.01 0.0382,-0.0176 0.0705,-0.0192 0.10064,-0.01 0.22052,-0.0312 0.28635,-0.0576 l 0.0632,-0.0248 0.0249,0.016 0.0249,0.016 0,-0.0208 0,-0.0208 0.0528,0 c 0.029,4.8e-4 0.13478,-0.0128 0.23491,-0.0296 l 0.18206,-0.0304 0,-0.024 0,-0.024 0.0347,0.0128 0.0347,0.0128 0.1004,-0.0304 c 0.0552,-0.0168 0.10838,-0.0312 0.11812,-0.0336 0.21618,-0.0448 0.52219,-0.1224 0.7575,-0.19312 0.1292,-0.0392 0.25077,-0.0744 0.27015,-0.08 0.37121,-0.095 0.41484,-0.11024 0.91617,-0.31848 0.14858,-0.0616 0.32036,-0.1308 0.38174,-0.1536 l 0.11158,-0.0416 0,-0.0216 0,-0.0216 0.0219,0.0136 0.0219,0.0136 0.0147,-0.024 0.0148,-0.024 0.0487,0 0.0487,0 0.079,-0.0488 c 0.0435,-0.0272 0.079,-0.0424 0.079,-0.0352 0,0.02 0.57302,-0.27016 0.59281,-0.30024 l 0.0173,-0.0264 2.8e-4,0.0216 3e-4,0.0216 0.0411,-0.0344 c 0.0226,-0.0184 0.094,-0.0624 0.15857,-0.095 0.29805,-0.15368 0.67184,-0.36304 0.81508,-0.45648 0.0865,-0.0568 0.16845,-0.10264 0.18206,-0.10264 l 0.0248,0 0,-0.0232 0,-0.0232 0.0353,0 0.0353,0 0,-0.0248 0,-0.0248 0.0208,0.0128 0.0208,0.0128 0.029,-0.0352 c 0.016,-0.0192 0.039,-0.0352 0.0514,-0.0352 0.0338,0 0.23792,-0.14416 0.27311,-0.19272 l 0.031,-0.0424 0.0191,0.012 0.0191,0.012 0.0593,-0.0464 c 0.0326,-0.0256 0.0648,-0.0464 0.0714,-0.0464 0.0156,0 0.3282,-0.20944 0.34422,-0.23072 0.006,-0.01 0.0403,-0.0304 0.0746,-0.048 0.0343,-0.0176 0.0958,-0.0624 0.13653,-0.0998 0.0407,-0.0368 0.0827,-0.068 0.0933,-0.068 0.0106,0 0.0643,-0.0432 0.11944,-0.0973 0.0551,-0.0536 0.0913,-0.0826 0.0805,-0.0648 -0.0209,0.0336 0.2707,-0.18472 0.3003,-0.22496 l 0.0173,-0.0232 3e-4,0.0216 2.9e-4,0.0216 0.0567,-0.0568 c 0.0312,-0.0304 0.0814,-0.0744 0.11159,-0.0965 0.0483,-0.0352 0.0905,-0.0688 0.25748,-0.20304 0.0216,-0.0176 0.0777,-0.0664 0.12454,-0.10976 0.0469,-0.0424 0.0942,-0.0817 0.1053,-0.0854 0.011,0 0.12933,-0.108 0.26278,-0.2308 0.13346,-0.12272 0.28462,-0.26016 0.3359,-0.30536 0.15442,-0.13616 0.76944,-0.75584 0.8952,-0.90192 0.0646,-0.0752 0.14389,-0.16552 0.17619,-0.20096 0.16965,-0.18632 0.25869,-0.29296 0.31977,-0.38304 0.0372,-0.0544 0.0809,-0.10816 0.0971,-0.11848 0.0162,-0.0104 0.0294,-0.0328 0.0294,-0.0488 0,-0.0168 0.0185,-0.0472 0.0411,-0.068 0.0226,-0.0208 0.0622,-0.0776 0.088,-0.12704 0.0258,-0.0496 0.0642,-0.10248 0.0855,-0.11832 0.035,-0.0256 0.0764,-0.0947 0.18126,-0.30008 0.0198,-0.0392 0.0498,-0.0845 0.0667,-0.10152 0.0169,-0.0168 0.0372,-0.0568 0.0451,-0.0882 0.007,-0.032 0.0219,-0.0576 0.0312,-0.0576 0.0159,0 0.25195,-0.46144 0.38835,-0.75952 l 0.0627,-0.13704 0.0226,-0.13992 c 0.0266,-0.16552 0.0214,-0.20744 -0.0447,-0.35528 l -0.0498,-0.11168 -0.0257,0 -0.0257,0 0.0137,-0.0224 0.0137,-0.0224 -0.0435,-0.0424 c -0.0511,-0.0504 -0.26289,-0.3976 -0.26289,-0.43168 0,-0.0128 -0.0155,-0.0296 -0.0343,-0.036 l -0.0343,-0.0128 -0.0155,-0.0512 c -0.008,-0.028 -0.0644,-0.1244 -0.12422,-0.21448 -0.0598,-0.09 -0.12173,-0.19048 -0.13765,-0.22312 -0.0359,-0.0736 -0.0794,-0.14144 -0.11789,-0.18344 -0.0162,-0.0176 -0.0294,-0.0408 -0.0294,-0.052 0,-0.0112 -0.0132,-0.0344 -0.0294,-0.0512 -0.0283,-0.0296 -0.076,-0.1012 -0.21671,-0.32344 -0.0816,-0.12896 -0.10135,-0.15456 -0.18265,-0.23672 -0.0355,-0.036 -0.0646,-0.0728 -0.0646,-0.0817 0,-0.0168 -0.0356,-0.0544 -0.56696,-0.60392 l -0.33424,-0.3452 -0.0192,0.012 -0.0192,0.012 0,-0.0312 0,-0.032 -0.0473,-0.0408 c -0.026,-0.0224 -0.0537,-0.0408 -0.0614,-0.0408 -0.007,0 -0.0759,-0.06 -0.15141,-0.13504 -0.16579,-0.1632 -0.33691,-0.3224 -0.54919,-0.51088 -0.0873,-0.0768 -0.19197,-0.17304 -0.23262,-0.21216 -0.0406,-0.0392 -0.12676,-0.10712 -0.19137,-0.15096 -0.11955,-0.0807 -0.23019,-0.16416 -0.29364,-0.22048 -0.0799,-0.0704 -0.29943,-0.2268 -0.31926,-0.22696 -0.0118,0 -0.069,-0.0424 -0.12707,-0.0939 -0.0582,-0.052 -0.11628,-0.0941 -0.1292,-0.0942 -0.0129,0 -0.0571,-0.0296 -0.0981,-0.0648 -0.041,-0.0352 -0.16126,-0.1172 -0.26712,-0.18176 -0.10587,-0.0648 -0.23887,-0.15176 -0.29556,-0.19376 -0.0567,-0.0416 -0.11266,-0.076 -0.12439,-0.076 -0.0117,0 -0.0249,-0.01 -0.0291,-0.0176 -0.0116,-0.0264 -0.16058,-0.12752 -0.19479,-0.13256 -0.0162,0 -0.0477,-0.0224 -0.0698,-0.0448 -0.0221,-0.0224 -0.0494,-0.04 -0.0608,-0.04 -0.0114,0 -0.0491,-0.0256 -0.084,-0.0584 l -0.0634,-0.0584 -0.0435,0 -0.0435,0 0,-0.024 0,-0.024 -0.058,-0.0256 -0.058,-0.0272 0.01,-0.016 0.01,-0.016 -0.0397,-0.0568 c -0.0219,-0.0312 -0.0566,-0.0882 -0.077,-0.12712 -0.0735,-0.13896 -0.14499,-0.25904 -0.17498,-0.29368 -0.0168,-0.0192 -0.0469,-0.0752 -0.0669,-0.12336 l -0.0364,-0.0882 -0.0247,0 c -0.0135,0 -0.0226,-0.01 -0.0198,-0.0176 0.002,-0.01 -0.0134,-0.052 -0.0358,-0.094 l -0.0406,-0.076 -0.0243,0 -0.0242,0 0.0145,-0.0232 0.0145,-0.0232 -0.0233,0 -0.0233,0 -0.014,-0.0448 c -0.0123,-0.0392 -0.0373,-0.0744 -0.12965,-0.18384 -0.0132,-0.016 -0.0239,-0.0384 -0.0239,-0.0504 0,-0.012 -0.0374,-0.0552 -0.0831,-0.095 l -0.0831,-0.0736 -0.0344,0 -0.0344,0 0,-0.0184 c 0,-0.0192 -0.19227,-0.11216 -0.2088,-0.1008 -0.005,0 -0.0161,-0.01 -0.0245,-0.0184 -0.008,-0.0136 -0.0361,-0.0288 -0.0614,-0.0336 -0.0252,0 -0.0618,-0.016 -0.0812,-0.024 -0.19828,-0.0863 -0.72099,-0.22936 -0.99525,-0.27312 l -0.14857,-0.024 -0.37362,0 c -0.20549,0 -0.40005,0 -0.43236,0.0112 -0.0323,0.01 -0.11829,0.0192 -0.1911,0.0272 -0.0727,0.01 -0.15738,0.0192 -0.18793,0.0264 -0.0306,0.01 -0.0925,0.0216 -0.13777,0.0304 -0.0452,0.0104 -0.11922,0.0336 -0.16445,0.0528 l -0.0822,0.0352 -0.047,0 c -0.0258,0 -0.11041,-0.0232 -0.18792,-0.0448 -0.0775,-0.0224 -0.15153,-0.0424 -0.16445,-0.0464 -0.0129,0 -0.0658,-0.0152 -0.11746,-0.024 -0.0517,-0.0104 -0.16796,-0.0368 -0.25841,-0.06 -0.0904,-0.0232 -0.21002,-0.048 -0.26572,-0.056 -0.0557,-0.01 -0.11106,-0.0192 -0.123,-0.0272 -0.012,-0.01 -0.0773,-0.0224 -0.14536,-0.0344 -0.068,-0.0112 -0.24524,-0.0416 -0.39382,-0.068 -0.14859,-0.0264 -0.33358,-0.0536 -0.41111,-0.0616 -0.0775,-0.01 -0.1568,-0.0184 -0.17619,-0.024 -0.0194,0 -0.10394,-0.016 -0.18792,-0.0232 -0.084,-0.01 -0.18441,-0.0184 -0.22317,-0.0248 -0.13981,-0.0208 -0.64126,-0.056 -0.9749,-0.068 -0.18734,-0.01 -0.51505,-0.0192 -0.72823,-0.028 l -0.38761,-0.0152 -0.0118,0.012 z m 0.86918,0.61536 c 0.32455,0.0224 0.74023,0.0768 0.99101,0.13152 0.12034,0.0264 0.2558,0.0512 0.30102,0.0568 0.0452,0.01 0.15093,0.0168 0.23492,0.0248 0.084,0.01 0.15976,0.02 0.1684,0.0256 0.008,0.01 0.10376,0.024 0.21142,0.0424 0.10764,0.0184 0.23271,0.04 0.27793,0.048 0.0452,0.01 0.10865,0.0184 0.14095,0.0232 0.0323,0 0.0851,0.0144 0.11746,0.0224 0.0323,0.01 0.0904,0.0176 0.1292,0.0232 0.0388,0.01 0.0995,0.0168 0.13508,0.0264 l 0.0646,0.0168 0,0.0184 c 0,0.0192 -0.0887,0.0826 -0.19968,0.14136 -0.0388,0.02 -0.0916,0.0496 -0.11745,0.0648 -0.0684,0.04 -1.31431,0.64136 -1.71487,0.828 -0.10337,0.048 -0.25864,0.12072 -0.34503,0.16104 -0.0864,0.0408 -0.16217,0.0736 -0.16839,0.0736 -0.0122,0 -0.56663,0.25976 -0.68837,0.32248 l -0.0742,0.0384 -0.13722,-0.0592 c -0.0754,-0.0328 -0.20067,-0.0844 -0.27819,-0.11456 -0.0775,-0.0296 -0.15099,-0.0632 -0.16327,-0.0736 -0.0122,-0.0104 -0.0377,-0.0184 -0.0564,-0.0184 -0.0187,0 -0.0926,-0.028 -0.16401,-0.0616 -0.0714,-0.0336 -0.14115,-0.064 -0.15495,-0.0664 -0.0138,0 -0.087,-0.0344 -0.16268,-0.0696 -0.0757,-0.0352 -0.1589,-0.0688 -0.18498,-0.0736 -0.0261,-0.01 -0.0752,-0.028 -0.10909,-0.0504 -0.0793,-0.0528 -0.28485,-0.14968 -0.28485,-0.134 0,0.01 -0.0502,-0.0136 -0.11157,-0.0456 -0.11509,-0.0592 -0.34609,-0.16688 -0.51095,-0.2372 -0.0517,-0.0224 -0.14261,-0.0656 -0.20207,-0.0966 l -0.1081,-0.0568 -0.0152,0.0144 -0.0152,0.0152 0,-0.024 0,-0.024 -0.14681,-0.0736 c -0.0807,-0.04 -0.16268,-0.076 -0.18207,-0.08 -0.0194,0 -0.0406,-0.012 -0.047,-0.0184 -0.0342,-0.036 -0.1444,-0.0934 -0.17867,-0.0934 l -0.0394,0 -0.11559,-0.0882 -0.1156,-0.0882 0.075,-0.0304 0.075,-0.0304 0.0314,0.012 0.0314,0.012 0.013,-0.0216 0.013,-0.0216 0.042,0.01 c 0.0386,0.01 0.16346,-0.012 0.30934,-0.0472 0.0323,-0.01 0.101,-0.0192 0.15269,-0.0248 0.0517,-0.01 0.13625,-0.0216 0.18793,-0.0336 0.14079,-0.0336 0.19825,-0.044 0.48158,-0.0826 0.17544,-0.024 0.19393,-0.028 0.35236,-0.0648 0.084,-0.0192 0.3007,-0.0576 0.48158,-0.0854 l 0.32889,-0.0496 0.34062,-0.0168 c 0.38302,-0.0192 0.77302,-0.0176 1.10409,0.01 z m 8.07904,1.84504 -8e-4,0.0352 -0.0202,-0.0472 c -0.0111,-0.0264 -0.0208,-0.0576 -0.0214,-0.0704 l -8e-4,-0.0232 0.0227,0.0352 c 0.0126,0.0192 0.0222,0.0512 0.0214,0.0704 z m -8.40758,0.56792 c 0.0579,0.0128 0.19296,0.0456 0.29998,0.0728 l 0.19463,0.048 0.0126,0.02 0.0126,0.02 0.0219,-0.0128 0.0219,-0.0128 0,0.0264 0,0.0264 0.0294,-0.01 c 0.0162,0 0.0875,0 0.15856,0.0104 0.0711,0.01 0.22434,0.0208 0.34063,0.0272 0.11628,0.01 0.29252,0.0232 0.39164,0.0368 0.17125,0.024 0.20669,0.0304 0.33073,0.0584 0.029,0.01 0.11099,0.0224 0.18205,0.0344 0.0711,0.012 0.19263,0.0368 0.27015,0.0568 0.0775,0.0192 0.22023,0.0512 0.31713,0.0728 0.0969,0.02 0.19205,0.0448 0.21143,0.0528 0.0422,0.0176 0.0381,0.0168 0.14095,0.0416 0.0452,0.0112 0.10337,0.0224 0.1292,0.0248 0.0258,0 0.10506,0.0232 0.17605,0.044 l 0.12905,0.0384 0.008,-0.024 0.008,-0.0232 0.035,0.0352 c 0.0192,0.0192 0.0633,0.0416 0.0979,0.0496 0.0346,0.01 0.10292,0.024 0.15176,0.036 l 0.0888,0.0224 -0.012,0.0192 c -0.006,0.0112 -0.0465,0.0272 -0.0888,0.0368 -0.0422,0.0104 -0.0874,0.0216 -0.10033,0.0264 -0.0254,0.01 -0.21244,0.0568 -0.27015,0.0688 -0.0194,0.01 -0.0378,0.01 -0.0411,0.01 -0.002,0 -0.009,0 -0.0128,0 -0.004,0 -0.0352,0.0128 -0.0697,0.0352 -0.0346,0.0224 -0.087,0.0456 -0.11642,0.0512 -0.0295,0.01 -0.0563,0.012 -0.0595,0.0152 -0.002,0 -0.0142,0.01 -0.0244,0.01 -0.0102,0 -0.12386,0.056 -0.25253,0.12032 l -0.23395,0.11752 -0.27015,0 -0.27016,0 -0.0353,-0.0176 c -0.0194,-0.0104 -0.0738,-0.0232 -0.12087,-0.0296 -0.047,-0.01 -0.0973,-0.0184 -0.11148,-0.028 -0.0247,-0.0144 -0.0905,-0.0336 -0.16701,-0.0464 -0.0194,0 -0.065,-0.0184 -0.10137,-0.0336 -0.0364,-0.0152 -0.0726,-0.028 -0.0804,-0.028 -0.0266,0 -0.32139,-0.12288 -0.36948,-0.154 -0.0262,-0.0168 -0.11123,-0.0536 -0.18876,-0.0826 -0.0775,-0.0288 -0.1568,-0.064 -0.17618,-0.08 -0.0411,-0.0336 -0.17864,-0.0901 -0.2019,-0.0835 -0.008,0 -0.0225,-0.01 -0.0303,-0.0168 -0.025,-0.0368 -0.27056,-0.16728 -0.34355,-0.18232 -0.0386,-0.01 -0.15475,-0.0176 -0.25811,-0.0216 l -0.18794,-0.01 -0.0705,0.024 c -0.0388,0.0128 -0.12291,0.0552 -0.187,0.0919 -0.0641,0.0376 -0.1373,0.0728 -0.1627,0.0768 -0.0254,0.01 -0.0522,0.0168 -0.0597,0.0272 -0.007,0.0104 -0.0294,0.0216 -0.0487,0.0248 -0.0194,0 -0.0775,0.0272 -0.1292,0.052 -0.0517,0.0248 -0.14946,0.0688 -0.21729,0.0972 -0.0678,0.0288 -0.12333,0.0592 -0.12333,0.0688 0,0.01 -0.0238,0.0224 -0.0529,0.0296 -0.0944,0.0232 -0.33163,0.11272 -0.46396,0.17496 -0.0711,0.0336 -0.13712,0.0584 -0.14681,0.0568 -0.01,0 -0.0176,0.01 -0.0176,0.0192 0,0.0128 -0.008,0.0216 -0.0176,0.0192 -0.01,0 -0.0598,0.01 -0.11159,0.024 -0.18607,0.0568 -0.70049,0.0826 -0.86918,0.0448 -0.12653,-0.0288 -0.28164,-0.0752 -0.29364,-0.0873 -0.006,-0.01 -0.0657,-0.0408 -0.1317,-0.076 l -0.11996,-0.064 -0.0151,0.0152 -0.0151,0.0152 0,-0.024 0,-0.024 -0.11557,-0.0504 c -0.10079,-0.0432 -0.22039,-0.076 -0.38948,-0.1052 -0.0259,0 -0.0768,-0.02 -0.11312,-0.0352 -0.0364,-0.0152 -0.0786,-0.028 -0.094,-0.0288 -0.0512,0 0.11175,-0.0448 0.23057,-0.0584 0.0646,-0.01 0.13331,-0.0192 0.15269,-0.0272 0.0194,-0.01 0.0828,-0.0216 0.14095,-0.032 0.0581,-0.0104 0.13743,-0.024 0.17618,-0.0312 0.073,-0.0152 0.19182,-0.0352 0.29365,-0.052 0.0852,-0.0136 0.19263,-0.0312 0.24665,-0.0416 0.0259,0 0.0999,-0.0168 0.16444,-0.0264 0.0646,-0.01 0.1386,-0.0288 0.16445,-0.0424 0.0258,-0.0136 0.084,-0.0288 0.1292,-0.0336 0.0452,-0.01 0.14565,-0.0248 0.22316,-0.0456 0.0775,-0.0208 0.1991,-0.0464 0.27016,-0.0568 0.20561,-0.0304 0.44911,-0.0891 0.48052,-0.11472 0.0158,-0.0128 0.0338,-0.0184 0.04,-0.0128 0.006,0.01 0.0474,0 0.0918,-0.0128 0.0444,-0.0128 0.12295,-0.0296 0.17464,-0.0368 l 0.094,-0.0128 0.0371,-0.0328 c 0.0204,-0.0176 0.0448,-0.0328 0.0542,-0.0328 l 0.0172,0 -0.0176,0.0296 -0.0176,0.0296 0.0374,-0.0304 c 0.0205,-0.0168 0.0569,-0.0344 0.0808,-0.0392 0.0239,0 0.0752,-0.0224 0.11397,-0.0384 0.0934,-0.0392 0.0941,-0.0392 0.26955,-0.0688 0.0836,-0.0136 0.15532,-0.0296 0.15926,-0.0336 0.004,0 0.11536,-0.01 0.2476,-0.01 l 0.24044,0 0.10537,0.024 z m 8.33841,0.14368 c 0.23404,0.17776 0.27023,0.20312 0.32372,0.22696 l 0.0528,0.0232 0,0.024 0,0.024 0.036,0 0.036,0 0.0134,0.0352 0.0134,0.0352 0.0167,-0.0104 0.0168,-0.0104 0.033,0.0456 c 0.0181,0.0248 0.045,0.0456 0.0598,0.0456 0.0148,0 0.0527,0.0256 0.0843,0.0576 0.0558,0.056 0.20788,0.17488 0.43602,0.34144 0.0616,0.0448 0.13522,0.10312 0.1636,0.1292 0.0284,0.0264 0.0603,0.0472 0.0711,0.0472 0.0106,0 0.0567,0.0368 0.1023,0.0826 0.0456,0.0456 0.11308,0.10336 0.15004,0.1292 0.16587,0.11592 0.52848,0.42296 0.7632,0.64608 0.15726,0.14944 0.45198,0.41288 0.53204,0.47552 0.0372,0.0288 0.0995,0.0891 0.13837,0.1344 0.0715,0.0826 0.32696,0.356 0.43482,0.46576 0.0323,0.0328 0.0753,0.0844 0.0954,0.11416 0.034,0.0504 0.28593,0.3392 0.38032,0.43592 0.0226,0.0232 0.0411,0.048 0.0411,0.056 0,0.01 0.0132,0.0272 0.0294,0.0448 0.0162,0.0168 0.0452,0.0544 0.0646,0.0845 0.0194,0.0296 0.0538,0.0736 0.0764,0.0968 0.0226,0.024 0.0411,0.052 0.0411,0.0624 0,0.0112 0.0314,0.0504 0.0698,0.0882 0.0384,0.0384 0.0701,0.08 0.0704,0.0943 5.9e-4,0.0224 0.0247,0.0568 0.11802,0.16744 0.0134,0.016 0.0346,0.0528 0.0471,0.0826 0.0126,0.0296 0.087,0.14328 0.16543,0.2532 0.0784,0.10976 0.15902,0.23928 0.17906,0.28768 0.0201,0.048 0.0438,0.0882 0.0529,0.0882 0.009,0 0.035,0.0424 0.0579,0.094 l 0.0415,0.0939 0.0232,0 0.0232,0 -0.0116,0.0184 -0.0116,0.0184 0.0196,0.0312 0.0196,0.0312 -0.0234,0.0664 -0.0234,0.0672 -0.0226,0 -0.0226,0 0.0145,0.0232 0.0145,0.0232 -0.0236,0 -0.0236,0 -0.0306,0.0576 c -0.0169,0.0312 -0.0614,0.11648 -0.0991,0.18792 -0.0377,0.0712 -0.0773,0.12984 -0.0881,0.12984 -0.0109,0 -0.0197,0.0112 -0.0197,0.0248 0,0.0136 -0.0265,0.0592 -0.0587,0.10208 -0.0323,0.0424 -0.0587,0.0845 -0.0587,0.0929 0,0.01 -0.029,0.0568 -0.0646,0.10648 -0.0355,0.0504 -0.0805,0.11472 -0.0998,0.14368 -0.0194,0.0288 -0.0465,0.0648 -0.0603,0.0792 -0.0138,0.0152 -0.0452,0.0584 -0.0699,0.097 -0.0247,0.0392 -0.0583,0.0792 -0.0748,0.089 -0.0164,0.0104 -0.03,0.0312 -0.03,0.0472 0,0.016 -0.0185,0.0456 -0.0411,0.0656 -0.0226,0.0208 -0.057,0.0616 -0.0764,0.091 -0.0194,0.0296 -0.0654,0.09 -0.10227,0.1328 -0.0369,0.0424 -0.0592,0.0792 -0.0497,0.0792 0.01,0 -0.0105,0.0224 -0.0446,0.0496 -0.0341,0.0272 -0.0619,0.0584 -0.0619,0.0704 0,0.012 -0.0343,0.0576 -0.0764,0.10176 -0.15542,0.16216 -0.24253,0.2608 -0.25045,0.28376 -0.005,0.0128 -0.0676,0.08 -0.14016,0.14904 l -0.13207,0.1256 0.006,0.0232 0.006,0.0232 -0.0193,-0.012 -0.0193,-0.012 -0.17508,0.1792 -0.17507,0.17928 0.006,0.02 0.006,0.0208 -0.0214,-0.0128 -0.0214,-0.0128 -0.11428,0.12464 c -0.0628,0.0688 -0.19622,0.1916 -0.29635,0.27328 -0.10013,0.0817 -0.18206,0.1576 -0.18206,0.16864 l 0,0.02 -0.0341,0 -0.0341,0 -0.0189,0.0312 c -0.0103,0.0176 -0.0382,0.0384 -0.0621,0.0472 l -0.0434,0.016 -0.0122,0.0464 -0.0122,0.0464 -0.019,-0.012 -0.019,-0.012 -0.0464,0.0584 c -0.0255,0.0328 -0.0558,0.0584 -0.0674,0.0584 -0.0196,0 -0.0805,0.048 -0.32333,0.25848 -0.0523,0.0456 -0.11277,0.0928 -0.13425,0.10568 -0.0976,0.0584 -0.36219,0.25848 -0.3791,0.28624 -0.0103,0.0168 -0.0302,0.0304 -0.0442,0.0304 -0.014,0 -0.0452,0.0224 -0.0694,0.0504 -0.0242,0.028 -0.0439,0.0416 -0.0439,0.0304 l 0,-0.0192 -0.0646,0.0592 c -0.0355,0.0328 -0.10688,0.0845 -0.15855,0.11472 -0.0517,0.0304 -0.0993,0.0616 -0.10573,0.0688 -0.006,0.01 -0.091,0.0672 -0.18792,0.13192 -0.0969,0.0648 -0.3055,0.20792 -0.46357,0.31696 -0.15805,0.10904 -0.31914,0.21528 -0.35796,0.23616 -0.0388,0.02 -0.0876,0.052 -0.10848,0.0696 -0.0208,0.0176 -0.0536,0.0336 -0.0729,0.036 -0.0192,0 -0.0557,0.024 -0.0809,0.0464 -0.0254,0.0232 -0.0638,0.0448 -0.0856,0.0472 l -0.0395,0.01 -0.008,0.0248 c -0.005,0.0136 -0.0189,0.0248 -0.0318,0.0248 -0.013,0 -0.0921,0.04 -0.17578,0.0882 -0.0837,0.048 -0.18304,0.10416 -0.22074,0.12384 -0.0377,0.0192 -0.0872,0.048 -0.11002,0.064 -0.0388,0.0272 -0.17249,0.0978 -0.43305,0.23016 -0.0603,0.0304 -0.11643,0.0672 -0.12472,0.08 l -0.015,0.024 -0.0454,0 -0.0454,0 -0.0278,0.0448 -0.0278,0.0448 -0.027,-0.0104 -0.027,-0.0104 -0.23308,0.11568 c -0.1282,0.064 -0.27538,0.12888 -0.32705,0.1452 -0.0517,0.0168 -0.1488,0.0552 -0.2158,0.0854 -0.067,0.0304 -0.13318,0.056 -0.14707,0.056 -0.0139,0 -0.0701,0.02 -0.12483,0.0448 -0.0859,0.0384 -0.16275,0.0696 -0.2053,0.0844 -0.006,0 -0.0276,0.0104 -0.047,0.0168 -0.0194,0.01 -0.0828,0.0272 -0.14095,0.0448 -0.0581,0.0176 -0.13214,0.0448 -0.16443,0.0616 -0.0323,0.0168 -0.0799,0.0296 -0.10572,0.0304 -0.0258,1.6e-4 -0.0752,0.0144 -0.10966,0.0336 -0.0344,0.0176 -0.10578,0.04 -0.15845,0.0488 l -0.0958,0.016 -0.0134,0.0224 -0.0134,0.0224 -0.0219,-0.0136 -0.0219,-0.0136 -0.0294,0.0184 c -0.0162,0.0104 -0.0399,0.0208 -0.0529,0.0224 -0.0129,0 -0.0711,0.0168 -0.12921,0.0312 -0.0582,0.0152 -0.23256,0.0528 -0.3876,0.0835 -0.15504,0.032 -0.30833,0.0632 -0.34063,0.0704 -0.0323,0.01 -0.0863,0.0184 -0.11999,0.0232 -0.0337,0 -0.11298,0.0216 -0.17618,0.0352 -0.0632,0.0144 -0.17307,0.0352 -0.24412,0.0464 -0.0711,0.0112 -0.27192,0.0416 -0.44635,0.0688 -0.17442,0.0272 -0.38056,0.0504 -0.45808,0.052 l -0.14095,0 -0.039,0.0192 c -0.0214,0.0112 -0.0875,0.0224 -0.14681,0.0264 l -0.10781,0.01 0,0.0152 c -2e-5,0.01 0.0197,0.04 0.0437,0.0704 0.0241,0.0304 0.0514,0.08 0.0605,0.10952 l 0.0168,0.0536 0.0584,0.0384 0.0584,0.0384 0.10068,0.1432 c 0.0554,0.0792 0.10839,0.15912 0.1178,0.17848 l 0.017,0.0352 -0.0378,-0.0472 c -0.0625,-0.0776 -0.18297,-0.22328 -0.28274,-0.342 l -0.094,-0.11176 -0.0705,-0.14272 c -0.0388,-0.0792 -0.079,-0.14296 -0.0895,-0.14312 l -0.019,-4.8e-4 0.0122,-0.0192 0.0122,-0.0192 -0.0438,-0.0817 c -0.0242,-0.0448 -0.0573,-0.12856 -0.0736,-0.18576 -0.0164,-0.0576 -0.04,-0.11752 -0.0526,-0.13392 l -0.0227,-0.0296 0.0135,-0.0136 0.0136,-0.0136 -0.0234,-0.0616 c -0.0239,-0.0632 -0.0484,-0.20488 -0.0531,-0.30872 l -0.002,-0.0576 0.35238,-0.1724 c 0.43728,-0.21376 0.44642,-0.21792 0.70473,-0.32224 0.3512,-0.14176 0.9138,-0.33352 1.20982,-0.41232 0.10982,-0.0296 0.20971,-0.0624 0.22199,-0.0736 0.0122,-0.0112 0.0483,-0.0192 0.0802,-0.0192 l 0.0578,0 0.10778,-0.0632 c 0.15157,-0.0891 0.25082,-0.1628 0.4311,-0.32224 l 0.15671,-0.13856 -0.0123,-0.0208 -0.0123,-0.0192 0.0381,0 0.0381,0 -0.0145,-0.0232 -0.0145,-0.0232 0.0209,0 c 0.063,0 0.31272,-0.50288 0.37968,-0.7648 l 0.0243,-0.0952 0.002,-0.25712 0.002,-0.25712 0.0238,-0.14096 c 0.013,-0.0768 0.0384,-0.22024 0.0563,-0.31712 0.0179,-0.0969 0.0497,-0.31888 0.0706,-0.49336 0.0209,-0.1744 0.0417,-0.33976 0.0463,-0.36752 0.008,-0.0504 0.0272,-0.21384 0.046,-0.39816 0.006,-0.0528 0.0157,-0.13224 0.0228,-0.17624 0.007,-0.044 0.0179,-0.1328 0.0238,-0.1976 0.006,-0.0648 0.0164,-0.13336 0.0233,-0.15272 0.006,-0.0192 0.0181,-0.13544 0.0249,-0.25816 0.006,-0.12272 0.0228,-0.33944 0.0357,-0.4816 0.0544,-0.60288 0.0996,-1.38992 0.10673,-1.85576 l 0.005,-0.32896 -0.0139,-0.0232 c -0.007,-0.0128 -0.0152,-0.0448 -0.0168,-0.0704 -0.006,-0.10184 -0.13169,-0.41328 -0.19233,-0.47744 -0.0162,-0.0168 -0.0294,-0.0408 -0.0294,-0.0536 0,-0.012 -0.0411,-0.0744 -0.0913,-0.138 l -0.0913,-0.11544 -0.0144,0.0136 -0.0144,0.0136 -7.4e-4,-0.0336 -7.3e-4,-0.0336 -0.0991,-0.0736 c -0.0545,-0.0408 -0.14674,-0.0986 -0.20496,-0.1292 l -0.10583,-0.056 1.2e-4,-0.0472 1.1e-4,-0.0472 0.14096,-0.0496 c 0.38048,-0.132 0.80095,-0.3464 1.19648,-0.61 0.0766,-0.0512 0.17178,-0.11256 0.2114,-0.13672 0.0396,-0.024 0.0774,-0.052 0.0838,-0.0616 0.006,-0.01 0.0451,-0.0344 0.0859,-0.056 0.0407,-0.0216 0.0883,-0.052 0.10571,-0.0688 0.0534,-0.0512 0.36127,-0.22904 0.39712,-0.2292 0.0186,-1.6e-4 0.0731,-0.0112 0.12112,-0.024 l 0.0873,-0.024 0.036,-0.036 c 0.0198,-0.0192 0.036,-0.0296 0.036,-0.0224 0,0.016 0.13514,-0.0488 0.18435,-0.089 0.0174,-0.0136 0.0522,-0.0288 0.0773,-0.0328 0.025,0 0.0871,-0.028 0.13772,-0.0536 l 0.0921,-0.0472 0.0493,0 0.0493,0 -0.017,-0.028 -0.017,-0.028 0.0391,0.0152 0.039,0.0144 0,-0.0344 0,-0.0344 0.0215,0 c 0.0119,0 0.0702,-0.0208 0.12951,-0.0464 0.0594,-0.0248 0.11072,-0.044 0.11408,-0.0408 0.0151,0.0128 0.10652,-0.0941 0.12114,-0.1416 l 0.0162,-0.0528 0.0206,0 0.0206,0 0.1541,-0.27232 0.15411,-0.27232 -0.0102,-0.0168 -0.0102,-0.0168 0.0505,0 0.0505,0 0.12991,0.0988 z m -17.00679,0.1308 3e-4,0.0392 0.12749,0.15832 c 0.0702,0.0873 0.15614,0.18504 0.19116,0.21736 l 0.0637,0.0592 0.002,0.0736 0.002,0.0736 0.1292,0.0696 c 0.23802,0.12888 0.71441,0.37072 0.73032,0.37072 0.008,0 0.0778,0.0288 0.15364,0.0632 l 0.13792,0.0632 0.10968,0 0.1097,0 0.0665,0.0456 c 0.0366,0.0248 0.12463,0.0696 0.1957,0.0981 0.25465,0.1032 0.35967,0.1728 0.66253,0.43944 l 0.11047,0.0973 0.14793,0.0552 c 0.0814,0.0304 0.21899,0.09 0.30584,0.13248 0.0869,0.0424 0.16947,0.0776 0.18359,0.0776 0.0141,0 0.0752,0.0192 0.13572,0.044 0.0605,0.024 0.18732,0.0664 0.28174,0.0958 l 0.17167,0.052 -0.008,0.0248 c -0.005,0.0136 -0.0816,0.0688 -0.17093,0.12152 l -0.16245,0.0962 -0.14356,0.14088 -0.14358,0.14096 -0.0744,0.12376 c -0.041,0.068 -0.0744,0.13456 -0.0744,0.14792 0,0.0128 -0.0156,0.0544 -0.0346,0.091 l -0.0346,0.0672 -0.045,0.25104 -0.045,0.25096 0.0308,0.1168 0.0308,0.11672 0.0266,0.404 c 0.0488,0.7412 0.15479,1.94552 0.21223,2.41264 0.0558,0.4544 0.0738,0.60384 0.0829,0.69304 0.017,0.16536 0.14833,1.07088 0.19781,1.36384 l 0.0478,0.28328 3e-4,0.1396 2.9e-4,0.1396 0.0324,0.11736 c 0.0499,0.1808 0.0944,0.27024 0.23811,0.47888 l 0.13253,0.19232 0.0625,0.04 c 0.0343,0.0224 0.0678,0.0456 0.0742,0.052 0.0749,0.0792 0.40014,0.2588 0.46864,0.2588 0.0139,0 0.0437,0.01 0.0661,0.0216 0.0415,0.0224 0.1324,0.0616 0.2962,0.12896 0.05,0.0208 0.1108,0.0368 0.13508,0.0368 l 0.0441,0 0,0.0232 0,0.0232 0.0274,0 c 0.0386,0 0.71001,0.25504 0.90055,0.34208 0.0646,0.0296 0.26895,0.1232 0.45412,0.20816 0.18517,0.0854 0.34121,0.15448 0.34676,0.15448 0.0102,0 0.13949,0.056 0.33845,0.14616 0.0581,0.0264 0.11783,0.0632 0.13264,0.0817 l 0.0269,0.0336 -0.0296,0.1104 c -0.0389,0.14496 -0.17812,0.50176 -0.27056,0.69344 l -0.0736,0.15256 -0.0555,0.0136 c -0.0306,0.01 -0.0695,0.01 -0.0867,0 -0.0172,-0.01 -0.0922,-0.016 -0.16666,-0.0224 -0.0745,-0.01 -0.14489,-0.0176 -0.15646,-0.0248 -0.0116,-0.01 -0.0669,-0.0144 -0.12299,-0.016 l -0.10194,0 -0.0234,-0.0176 c -0.0129,-0.01 -0.0975,-0.0288 -0.18794,-0.0424 -0.1479,-0.0224 -0.23464,-0.0328 -0.50505,-0.06 -0.0916,-0.01 -0.65554,-0.12696 -0.67937,-0.14176 -0.008,-0.01 -0.0654,-0.016 -0.12682,-0.0224 -0.0614,-0.01 -0.13225,-0.024 -0.15746,-0.0384 -0.041,-0.0224 -0.22306,-0.068 -0.29902,-0.0752 -0.0162,0 -0.0294,-0.012 -0.0294,-0.0224 0,-0.0112 -0.008,-0.0176 -0.0176,-0.016 -0.01,0 -0.0441,0 -0.0764,-0.012 -0.0323,-0.01 -0.0799,-0.0192 -0.10571,-0.024 -0.0259,0 -0.0628,-0.0136 -0.0822,-0.0216 -0.0194,-0.01 -0.0881,-0.0256 -0.1527,-0.0424 -0.0646,-0.016 -0.14597,-0.0432 -0.18081,-0.0616 -0.0348,-0.0176 -0.0824,-0.0352 -0.10572,-0.0392 -0.0233,0 -0.0899,-0.0224 -0.14807,-0.04 -0.0581,-0.0176 -0.11363,-0.0336 -0.12333,-0.036 -0.01,0 -0.0202,-0.01 -0.0235,-0.01 -0.002,0 -0.0318,-0.01 -0.0634,-0.0152 -0.0317,-0.01 -0.0738,-0.0232 -0.094,-0.04 -0.0566,-0.0456 -0.18916,-0.11496 -0.18916,-0.0997 0,0.01 -0.0315,0 -0.0702,-0.0224 -0.0386,-0.0208 -0.0782,-0.0368 -0.0881,-0.0392 -0.01,0 -0.043,-0.012 -0.074,-0.0232 -0.0308,-0.012 -0.0731,-0.0248 -0.094,-0.0288 -0.04,-0.01 -0.14945,-0.0536 -0.3433,-0.14304 -0.0646,-0.0296 -0.15445,-0.0624 -0.19968,-0.0712 -0.0452,-0.01 -0.1116,-0.0328 -0.1475,-0.0504 l -0.0653,-0.0336 -0.0228,0.0136 -0.0228,0.0136 0,-0.0248 c 0,-0.0136 -0.008,-0.0224 -0.0176,-0.02 -0.01,0 -0.0519,-0.0128 -0.0937,-0.0352 -0.0418,-0.0224 -0.0818,-0.04 -0.0887,-0.0392 -0.0159,0 -0.22758,-0.0954 -0.46428,-0.2144 -0.10054,-0.0512 -0.19833,-0.0919 -0.2173,-0.0919 l -0.0346,0 0,-0.0192 0,-0.0192 -0.12056,-0.0544 c -0.0663,-0.0296 -0.19053,-0.10168 -0.27603,-0.1592 -0.0855,-0.0576 -0.22141,-0.1404 -0.30201,-0.18416 -0.0806,-0.0432 -0.21276,-0.12664 -0.29364,-0.18432 -0.0809,-0.0576 -0.17063,-0.12168 -0.19941,-0.14208 -0.0288,-0.02 -0.0605,-0.0368 -0.0704,-0.0368 -0.01,-1.6e-4 -0.0498,-0.0304 -0.0886,-0.0672 -0.0388,-0.036 -0.15883,-0.13096 -0.26683,-0.21024 l -0.19634,-0.144 -0.0215,0.0128 -0.0215,0.0128 0.006,-0.028 0.006,-0.028 -0.0881,-0.0464 -0.0881,-0.0464 0,-0.0208 c 0,-0.0112 -0.0448,-0.0504 -0.0995,-0.0854 -0.0547,-0.0352 -0.12252,-0.0845 -0.15061,-0.10856 -0.0282,-0.024 -0.0567,-0.0424 -0.0638,-0.0424 -0.007,7.2e-4 -0.0475,-0.0328 -0.0902,-0.0744 -0.0426,-0.0408 -0.12419,-0.11216 -0.18123,-0.15744 -0.057,-0.0456 -0.11782,-0.0962 -0.13508,-0.1132 l -0.0314,-0.0312 -2.9e-4,0.0192 -3e-4,0.0192 -0.0173,-0.0264 c -0.009,-0.0136 -0.0859,-0.0826 -0.16996,-0.15128 -0.084,-0.0688 -0.17399,-0.14712 -0.20002,-0.17376 -0.026,-0.0272 -0.088,-0.08 -0.1376,-0.1188 -0.0497,-0.0392 -0.11354,-0.0919 -0.14199,-0.11744 -0.0284,-0.0264 -0.11306,-0.0998 -0.18803,-0.1644 -0.14885,-0.12832 -0.23086,-0.20392 -0.54766,-0.50512 -0.11552,-0.10976 -0.25223,-0.23936 -0.3038,-0.28792 l -0.0937,-0.0882 -0.0178,0.0176 -0.0178,0.0176 0.007,-0.0232 0.007,-0.0232 -0.082,-0.0873 c -0.0451,-0.048 -0.16651,-0.17848 -0.26987,-0.29008 -0.10336,-0.11168 -0.20907,-0.22552 -0.23492,-0.25312 -0.0258,-0.028 -0.0575,-0.0688 -0.0705,-0.0918 -0.0735,-0.13016 -0.3034,-0.47728 -0.32048,-0.48392 -0.011,0 -0.0203,-0.0208 -0.0206,-0.0352 -3e-4,-0.0152 -0.0306,-0.0712 -0.0674,-0.12632 l -0.067,-0.099 -0.0185,0.0168 -0.0185,0.0168 0.0186,-0.0312 0.0185,-0.0312 -0.0218,-0.0152 c -0.012,-0.01 -0.057,-0.0736 -0.10007,-0.14424 -0.043,-0.0712 -0.0883,-0.1356 -0.10066,-0.14352 -0.0123,-0.01 -0.0199,-0.0184 -0.017,-0.0232 0.002,0 -0.002,-0.0328 -0.0113,-0.0624 l -0.0168,-0.0528 -0.0203,0 c -0.0111,0 -0.0271,-0.0216 -0.0354,-0.0472 l -0.015,-0.0472 -0.0224,0.0136 -0.0224,0.0136 0.005,-0.0192 c 0.002,-0.0112 -0.008,-0.0496 -0.023,-0.0854 -0.0372,-0.0901 -0.0406,-0.0776 0.0828,-0.31208 0.0605,-0.11496 0.14551,-0.27712 0.18878,-0.36032 0.0433,-0.0836 0.12849,-0.2248 0.18941,-0.31464 0.0609,-0.0901 0.12131,-0.17968 0.13423,-0.19976 0.0453,-0.0704 0.16209,-0.2208 0.27197,-0.35032 0.0247,-0.0288 0.0378,-0.0528 0.0294,-0.0528 -0.008,0 0.0233,-0.0392 0.0706,-0.0863 0.0474,-0.0472 0.0861,-0.0945 0.0861,-0.10472 0,-0.0104 0.0195,-0.0368 0.0434,-0.06 0.0238,-0.0232 0.099,-0.10544 0.16688,-0.18296 0.33861,-0.3864 0.71797,-0.79328 1.00379,-1.07664 l 0.23912,-0.23704 -0.0115,-0.0184 -0.0115,-0.0184 0.0279,0 0.0279,0 0.11865,-0.11152 c 0.0652,-0.0616 0.23159,-0.22264 0.36964,-0.35824 0.13803,-0.13576 0.31848,-0.304 0.40098,-0.37408 0.0825,-0.0696 0.17329,-0.14928 0.20175,-0.17616 0.0774,-0.0736 0.11055,-0.0982 0.13246,-0.10056 0.0109,0 0.0568,-0.0352 0.10209,-0.0752 0.0453,-0.04 0.0897,-0.0736 0.0986,-0.0736 0.009,0 0.0528,-0.0312 0.0976,-0.0696 0.0447,-0.0376 0.0945,-0.0696 0.1107,-0.0704 0.0162,0 0.0294,-0.01 0.0294,-0.0208 0,-0.0104 0.037,-0.0368 0.0822,-0.0584 0.0452,-0.0216 0.0822,-0.048 0.0822,-0.0584 0,-0.0104 0.0423,-0.044 0.094,-0.0728 l 0.094,-0.0528 0,-0.0216 0,-0.0216 0.0764,-0.032 c 0.0421,-0.0176 0.0909,-0.0496 0.10859,-0.0704 0.0178,-0.0216 0.0425,-0.0392 0.0551,-0.0392 0.0126,0 0.056,-0.024 0.0965,-0.0528 0.0405,-0.0288 0.095,-0.064 0.12108,-0.0776 l 0.0475,-0.0248 0.0294,0.0104 0.0294,0.0104 3e-4,0.0392 z m 8.76375,2.27272 0.22142,0.0384 0.19969,0.10032 c 0.10982,0.0544 0.23364,0.12008 0.27515,0.14424 l 0.0754,0.0432 0.0294,0.0584 c 0.0162,0.0328 0.0782,0.11168 0.13758,0.17624 l 0.10813,0.11752 0.0336,-0.01 0.0336,-0.01 0.0354,0.0288 0.0354,0.0288 0.12181,0.24672 0.12181,0.24656 0.0462,0.1528 c 0.0254,0.0845 0.0528,0.19936 0.0609,0.2564 l 0.0147,0.10376 -0.0221,0.0144 -0.0221,0.0136 -0.01,0.15264 -0.01,0.15264 0.0174,0.0632 0.0174,0.0632 -0.0422,0.15984 c -0.0465,0.17616 -0.098,0.31768 -0.12231,0.33616 -0.008,0.01 -0.0448,0.0696 -0.0803,0.14096 -0.075,0.14984 -0.1506,0.25824 -0.1802,0.25824 -0.0262,0 -0.0879,0.06 -0.0879,0.0863 0,0.0104 -0.037,0.0496 -0.0822,0.0844 l -0.0822,0.0656 0,0.0344 0,0.0344 -0.0998,0.0632 c -0.055,0.0352 -0.20027,0.11432 -0.32301,0.17648 l -0.22316,0.11296 -0.0394,8e-5 -0.0394,0 -0.037,0.0368 -0.037,0.0368 0,3.92904 0,3.92896 0.0529,0.048 c 0.029,0.0272 0.0857,0.0648 0.12577,0.0854 l 0.073,0.0368 0.12088,0.1324 c 0.0665,0.072 0.12088,0.14376 0.12088,0.15784 0,0.0136 0.015,0.0424 0.0334,0.0632 l 0.0334,0.0368 0.0397,0.19656 0.0398,0.19656 -0.0246,0.12056 -0.0246,0.12056 -0.0846,0.18224 -0.0847,0.18224 -0.10087,0.0997 -0.10088,0.0996 -0.16061,0.08 -0.1606,0.08 -0.27216,0 -0.27216,0 -0.0989,-0.052 c -0.0544,-0.0288 -0.11519,-0.052 -0.13508,-0.052 l -0.0362,0 0,-0.0264 0,-0.0256 -0.0341,0.0128 -0.0341,0.0128 0.01,-0.028 0.01,-0.028 -0.0802,-0.0584 -0.0802,-0.0584 -0.0245,-0.0528 c -0.0134,-0.0288 -0.034,-0.0528 -0.0456,-0.0528 l -0.0212,0 -0.0527,-0.14088 c -0.029,-0.0768 -0.0598,-0.14096 -0.0684,-0.14096 l -0.0157,0 -0.006,-0.18136 c -0.004,-0.0997 -0.0117,-0.18928 -0.0176,-0.19888 l -0.011,-0.0176 0.0498,-0.12408 c 0.0776,-0.1936 0.12529,-0.28608 0.16357,-0.31704 l 0.0353,-0.0288 -0.0185,-7.2e-4 c -0.03,0 0.19733,-0.21328 0.29396,-0.27424 l 0.0886,-0.056 0,-3.9432 0,-3.9432 -0.14682,-0.0408 c -0.0808,-0.0224 -0.17853,-0.0536 -0.2173,-0.0704 -0.0388,-0.0168 -0.10747,-0.0432 -0.15269,-0.06 -0.0899,-0.0336 -0.15929,-0.0817 -0.31148,-0.21504 -0.0547,-0.048 -0.10617,-0.0882 -0.11414,-0.0882 -0.0168,-7.2e-4 -0.23215,-0.21304 -0.23215,-0.2288 0,-0.01 -0.0343,-0.0544 -0.0764,-0.10848 -0.0419,-0.0536 -0.0879,-0.11904 -0.10204,-0.14496 -0.0666,-0.12168 -0.0777,-0.14408 -0.0939,-0.18784 -0.009,-0.0264 -0.0194,-0.052 -0.0219,-0.0584 -0.002,-0.01 -0.0127,-0.0464 -0.0226,-0.0882 l -0.018,-0.076 -0.0219,0 -0.0219,0 0.013,-0.0216 0.013,-0.0216 -0.0328,-0.0792 -0.0328,-0.0792 -0.004,-0.33328 -0.004,-0.33336 0.039,-0.13648 c 0.0215,-0.0752 0.0594,-0.18192 0.0843,-0.2372 l 0.0451,-0.10056 -0.0114,-0.0184 -0.0114,-0.0184 0.0458,-0.0336 0.0458,-0.0328 4.5e-4,-0.036 c 7.4e-4,-0.0624 0.12204,-0.21784 0.33776,-0.4324 l 0.20898,-0.20784 0.11989,-0.0704 c 0.066,-0.0392 0.17421,-0.0998 0.24057,-0.13528 l 0.12068,-0.064 0.16122,-0.0368 c 0.0886,-0.0208 0.18237,-0.0416 0.20821,-0.0472 0.0259,-0.01 0.14289,-0.0112 0.26013,-0.0128 l 0.21316,0 0.22144,0.0384 z m -2.88306,1.38256 0.0132,0.0344 -0.0312,0.1008 c -0.0172,0.056 -0.0428,0.15368 -0.057,0.21832 -0.0346,0.15736 -0.20517,0.8708 -0.26281,1.0988 -0.0254,0.10048 -0.0462,0.19928 -0.0462,0.21952 0,0.0208 -0.0172,0.0736 -0.0382,0.11736 l -0.0382,0.0807 -0.0326,-0.0272 -0.0326,-0.0272 -0.0366,-0.13192 c -0.0453,-0.16328 -0.15026,-0.46824 -0.18295,-0.53136 -0.0134,-0.0264 -0.0278,-0.068 -0.032,-0.0934 -0.005,-0.0256 -0.0304,-0.1088 -0.0583,-0.18512 l -0.0506,-0.13864 0.1885,-0.17904 c 0.10368,-0.0985 0.26681,-0.24968 0.3625,-0.336 0.31604,-0.28496 0.31108,-0.28168 0.33479,-0.21992 z m 5.20918,0.0863 c 0.0699,0.0656 0.24063,0.23096 0.37953,0.36608 l 0.25253,0.24584 0,0.0576 c 0,0.0704 -0.0706,0.36392 -0.0954,0.39632 -0.01,0.0128 -0.0394,0.10272 -0.0654,0.1996 -0.0522,0.19408 -0.1082,0.35968 -0.14882,0.43968 l -0.0263,0.052 -0.0189,-0.012 c -0.057,-0.0352 -0.33344,-1.1164 -0.46069,-1.80152 l -0.012,-0.0648 0.0342,0 0.0342,0 0.12699,0.12048 z m -14.67261,4.85976 c 0.0234,0.0256 0.0372,0.0472 0.0307,0.0472 -0.006,0 -0.0309,-0.0216 -0.0543,-0.0472 -0.0234,-0.0264 -0.0372,-0.0472 -0.0308,-0.0472 0.006,0 0.0309,0.0216 0.0543,0.0472 z"
         style="fill:#a43a2c;fill-opacity:1" /></g><path
       sodipodi:type="arc"
       style="color:#000000;fill:none;stroke:#a43a2c;stroke-width:0.78502244;stroke-linecap:butt;stroke-linejoin:round;stroke-miterlimit:4;stroke-opacity:1;stroke-dasharray:none;stroke-dashoffset:0;marker:none;visibility:visible;display:inline;overflow:visible;enable-background:accumulate"
       id="path5668"
       sodipodi:cx="233.4843"
       sodipodi:cy="251.0386"
       sodipodi:rx="39.197369"
       sodipodi:ry="39.197369"
       d="m 272.68167,251.0386 c 0,21.64811 -17.54926,39.19737 -39.19737,39.19737 -21.64811,0 -39.19737,-17.54926 -39.19737,-39.19737 0,-21.6481 17.54926,-39.19736 39.19737,-39.19736 21.64811,0 39.19737,17.54926 39.19737,39.19736 z"
       transform="matrix(4.0763166,0,0,-4.0763166,-739.15751,1235.9113)" /><path
       style="fill:none;stroke:#a43a2c;stroke-width:0.40000001;stroke-linecap:butt;stroke-linejoin:miter;stroke-miterlimit:4;stroke-opacity:1;stroke-dasharray:none"
       d="m 176.62117,108.66395 2.58992,0"
       id="path6214"
       inkscape:connector-curvature="0" /><path
       inkscape:connector-curvature="0"
       id="path6216"
       d="m 233.95035,108.66395 2.58992,0"
       style="fill:none;stroke:#a43a2c;stroke-width:0.40000001;stroke-linecap:butt;stroke-linejoin:miter;stroke-miterlimit:4;stroke-opacity:1;stroke-dasharray:none" /><path
       sodipodi:type="arc"
       style="color:#000000;fill:#a43a2c;fill-opacity:1;fill-rule:nonzero;stroke:none;stroke-width:0.5;marker:none;visibility:visible;display:inline;overflow:visible;enable-background:accumulate"
       id="path6224"
       sodipodi:cx="237.73761"
       sodipodi:cy="393.69574"
       sodipodi:rx="1.1260514"
       sodipodi:ry="1.1260514"
       d="m 238.86366,393.69574 c 0,0.6219 -0.50415,1.12605 -1.12605,1.12605 -0.6219,0 -1.12605,-0.50415 -1.12605,-1.12605 0,-0.6219 0.50415,-1.12605 1.12605,-1.12605 0.6219,0 1.12605,0.50415 1.12605,1.12605 z"
       transform="matrix(0.5,0,0,-0.5,73.629689,305.51182)" /><path
       transform="matrix(0.5,0,0,-0.5,131.05831,305.51182)"
       d="m 238.86366,393.69574 c 0,0.6219 -0.50415,1.12605 -1.12605,1.12605 -0.6219,0 -1.12605,-0.50415 -1.12605,-1.12605 0,-0.6219 0.50415,-1.12605 1.12605,-1.12605 0.6219,0 1.12605,0.50415 1.12605,1.12605 z"
       sodipodi:ry="1.1260514"
       sodipodi:rx="1.1260514"
       sodipodi:cy="393.69574"
       sodipodi:cx="237.73761"
       id="path6226"
       style="color:#000000;fill:#a43a2c;fill-opacity:1;fill-rule:nonzero;stroke:none;stroke-width:0.5;marker:none;visibility:visible;display:inline;overflow:visible;enable-background:accumulate"
       sodipodi:type="arc" /><path
       style="fill:none;stroke:#a43a2c;stroke-width:0.40000001;stroke-linecap:butt;stroke-linejoin:miter;stroke-miterlimit:4;stroke-opacity:1;stroke-dasharray:none"
       d="m 266.21172,108.66395 2.58992,0"
       id="path6228"
       inkscape:connector-curvature="0" /><path
       inkscape:connector-curvature="0"
       id="path3088"
       d="m 255.47378,176.03728 c 8.46243,9.87277 13.57467,22.70165 13.57467,36.72455 l 0,0 0,0 c 0,31.18191 -25.27792,56.45986 -56.45985,56.45986 -31.18192,0 -56.45984,-25.27795 -56.45984,-56.45986 0,-14.0229 5.11225,-26.85178 13.57468,-36.72455"
       style="color:#000000;fill:none;stroke:#1d5866;stroke-width:0.56;stroke-linecap:butt;stroke-linejoin:round;stroke-miterlimit:4;stroke-opacity:1;stroke-dasharray:none;stroke-dashoffset:0;marker:none;visibility:visible;display:inline;overflow:visible;enable-background:accumulate" /><text
       xml:space="preserve"
       style="font-size:20.63640213px;font-style:normal;font-weight:normal;line-height:100.99999905%;letter-spacing:0px;word-spacing:0px;fill:#000000;fill-opacity:1;stroke:none;font-family:Sans"
       x="212.93823"
       y="-331.47266"
       id="text2993"
       sodipodi:linespacing="101%"
       transform="scale(1,-1)"><tspan
         sodipodi:role="line"
         id="tspan2995"
         x="212.53023"
         y="-331.47266"
         style="font-style:normal;font-variant:normal;font-weight:500;font-stretch:normal;text-align:center;line-height:100.99999905%;letter-spacing:-0.81599998px;text-anchor:middle;fill:#a43a2c;fill-opacity:1;font-family:CMU Concrete;-inkscape-font-specification:CMU Concrete Medium"
         dx="0">Sutta Nipata</tspan><tspan
         sodipodi:role="line"
         x="212.53023"
         y="-310.62991"
         style="font-style:normal;font-variant:normal;font-weight:500;font-stretch:normal;text-align:center;line-height:100.99999905%;letter-spacing:-0.81599998px;text-anchor:middle;fill:#a43a2c;fill-opacity:1;font-family:CMU Concrete;-inkscape-font-specification:CMU Concrete Medium"
         id="tspan3027">&amp;</tspan><tspan
         sodipodi:role="line"
         x="212.53023"
         y="-289.78714"
         style="font-style:normal;font-variant:normal;font-weight:500;font-stretch:normal;text-align:center;line-height:100.99999905%;letter-spacing:-0.81599998px;text-anchor:middle;fill:#a43a2c;fill-opacity:1;font-family:CMU Concrete;-inkscape-font-specification:CMU Concrete Medium"
         id="tspan3029">Paramis</tspan></text>
<path
       style="fill:none;stroke:#a43a2c;stroke-width:0.74561566px;stroke-linecap:butt;stroke-linejoin:miter;stroke-opacity:1"
       d="m 242.33447,342.92105 5.4129,0"
       id="path4062"
       inkscape:connector-curvature="0" /><path
       inkscape:connector-curvature="0"
       id="path4064"
       d="m 193.5981,301.29356 5.41291,0"
       style="fill:none;stroke:#a43a2c;stroke-width:0.74561566px;stroke-linecap:butt;stroke-linejoin:miter;stroke-opacity:1" /></g></svg>