<?xml version="1.0" encoding="UTF-8" standalone="no"?>
<!-- Created with Inkscape (http://www.inkscape.org/) -->

<svg
   xmlns:dc="http://purl.org/dc/elements/1.1/"
   xmlns:cc="http://creativecommons.org/ns#"
   xmlns:rdf="http://www.w3.org/1999/02/22-rdf-syntax-ns#"
   xmlns:svg="http://www.w3.org/2000/svg"
   xmlns="http://www.w3.org/2000/svg"
   xmlns:sodipodi="http://sodipodi.sourceforge.net/DTD/sodipodi-0.dtd"
   xmlns:inkscape="http://www.inkscape.org/namespaces/inkscape"
   version="1.1"
   id="svg3964"
   xml:space="preserve"
   width="149.75999"
   height="144.67653"
   viewBox="0 0 149.75999 144.67653"
   sodipodi:docname="logo.svg"
   inkscape:version="0.92.2 5c3e80d, 2017-08-06"><metadata
     id="metadata3970"><rdf:RDF><cc:Work
         rdf:about=""><dc:format>image/svg+xml</dc:format><dc:type
           rdf:resource="http://purl.org/dc/dcmitype/StillImage" /><dc:title></dc:title></cc:Work></rdf:RDF></metadata><defs
     id="defs3968" /><sodipodi:namedview
     pagecolor="#ffffff"
     bordercolor="#666666"
     borderopacity="1"
     objecttolerance="10"
     gridtolerance="10"
     guidetolerance="10"
     inkscape:pageopacity="0"
     inkscape:pageshadow="2"
     inkscape:window-width="960"
     inkscape:window-height="1055"
     id="namedview3966"
     showgrid="false"
     inkscape:zoom="3.0048078"
     inkscape:cx="74.879997"
     inkscape:cy="72.338264"
     inkscape:window-x="0"
     inkscape:window-y="25"
     inkscape:window-maximized="0"
     inkscape:current-layer="g3972" /><g
     id="g3972"
     inkscape:groupmode="layer"
     inkscape:label="logo"
     transform="matrix(1.3333333,0,0,-1.3333333,0,144.67653)"><g
       id="g3974"><g
         id="g3976"
         transform="matrix(1,0,0,-1,0,108.5074)"><path
           d="m 98.516,92.43 c 8.355,-9.75 13.406,-22.418 13.406,-36.27 0,-30.793 -24.965,-55.758 -55.762,-55.758 -30.797,0 -55.762,24.965 -55.762,55.758 0,13.852 5.051,26.52 13.407,36.27"
           style="fill:none;stroke:#1d5866;stroke-width:0.80000001;stroke-linecap:butt;stroke-linejoin:round;stroke-miterlimit:4;stroke-dasharray:none;stroke-opacity:1"
           id="path3978"
           inkscape:connector-curvature="0" /></g><g
         id="g3980"
         transform="matrix(1,0,0,-1,0,108.5074)"><path
           d="m 91.496,81.234 c 5.031,-7.078 7.988,-15.73 7.988,-25.074 0,-23.926 -19.398,-43.324 -43.324,-43.324 -23.926,0 -43.324,19.398 -43.324,43.324 0,9.356 2.965,18.02 8.008,25.102"
           style="fill:none;stroke:#1d5866;stroke-width:0.62156999;stroke-linecap:butt;stroke-linejoin:round;stroke-miterlimit:4;stroke-dasharray:none;stroke-opacity:1"
           id="path3982"
           inkscape:connector-curvature="0" /></g><path
         d="M 53.797,82.875 C 52.84,82.781 52.324,82.199 52.324,82.199 V 79 c 0,0 -0.359,-1.446 -0.601,-1.973 -0.239,-0.531 -0.176,-4.852 -0.176,-4.852 0,0 -1.793,-3.746 -2.149,-5.175 -0.355,-1.426 -1.668,-6.141 -2.023,-7.5 -0.359,-1.356 -0.586,-3.809 -1.551,-5.024 -0.965,-1.215 -1,-1.574 -1,-1.574 0,0 -0.488,-5.688 -1.199,-7.902 -0.715,-2.215 -1.953,-5.75 -1.953,-5.75 0,0 -0.481,-2.219 -1.125,-3.399 C 39.906,34.671 37.125,30.714 35.375,28.75 33.625,26.785 18.324,13.101 18.324,13.101 L 31.973,0 v 2.824 h 1.449 v 2.375 h 1.152 v 1.476 h 1.551 l 0.172,0.2 c 0.633,8.941 7.164,16.265 15.726,18.074 v 1.953 l 1.852,1.523 c 0,0 0.102,0.348 -0.176,0.524 -0.277,0.179 -1.801,0.402 -1.801,0.402 0,0 -0.062,0.168 -0.023,0.399 0.035,0.234 0.473,0.527 0.473,0.527 0,0 0.82,0.535 0.925,1.223 0.082,0.515 0.18,0.562 0.227,0.55 l -0.277,0.274 c 0,0 -0.274,0.726 0.074,0.976 0.348,0.25 0.328,0.352 0.328,0.352 0,0 -0.344,0.777 -0.102,1.074 0.243,0.293 0.379,0.367 0.301,0.449 -0.082,0.082 -0.375,0.317 -0.25,0.477 0.125,0.16 0.348,0.348 0.348,0.348 l 0.051,2.027 c 0,0 0.347,-0.07 0.402,0.223 0.051,0.296 0.047,1.375 0.047,1.375 0,0 -1.11,0.539 -0.797,0.851 0.313,0.313 1.199,0.801 1.199,0.801 0,0 -0.035,0.914 -0.027,0.949 0.012,0.035 0.148,0.356 0.301,0.5 0.152,0.141 0.027,0.875 0.027,0.875 0,0 -0.672,0.68 -0.625,1.223 0.043,0.547 0.598,0.601 0.598,0.601 l -0.125,3.227 c 0,0 -0.231,0.488 -0.149,0.797 0.082,0.312 0.274,1.203 0.274,1.203 l 0.027,4.199 c 0,0 -0.27,0.695 -0.25,1.125 0.016,0.43 0.297,1.024 0.297,1.024 l 0.226,8.726 c 0,0 0.102,0.348 0.075,0.625 -0.024,0.277 -0.477,1.031 -0.301,1.5 0.18,0.465 0.601,1.125 0.601,1.125 l 0.375,8.098 v 4.703 c 0,0 -0.664,1.023 -1.898,1.098 -0.156,0.011 -0.316,0.015 -0.453,0 z"
         style="fill:#a43a2c;fill-opacity:1;fill-rule:nonzero;stroke:none"
         id="path3984"
         inkscape:connector-curvature="0" /><path
         d="m 55.43,59.089 c -0.02,0.09 -0.039,5.645 -0.039,5.645 0,0 -0.946,0.391 -1.481,0.48 -0.535,0.09 -1.465,0.25 -1.785,-0.32 -0.32,-0.574 -0.43,-0.555 -0.109,-0.519 0.324,0.035 0.289,0.609 0.839,0.25 0.555,-0.356 0.485,-1.731 0.485,-1.731 L 53.285,62.32 c 0,0 -1.215,0.09 -1.394,0.289 -0.176,0.195 -0.211,-0.27 -0.211,-0.27 0,0 -0.465,-5.07 -0.68,-6.355 -0.215,-1.289 -0.395,-1.875 -0.535,-2.109 -0.145,-0.231 -0.34,-0.59 -0.34,-1.016 0,-0.43 -0.785,-5.59 -1.035,-6.625 -0.25,-1.039 -1.145,-3.055 -0.785,-3.395 0.355,-0.339 1.23,-0.375 1.23,0.305 0,0.676 0.375,3.676 0.52,4.715 0.14,1.035 0.8,4.891 0.836,5.426 0.039,0.535 0.914,5.929 0.914,5.929 l 0.265,2.625 c 0,0 -0.16,0.395 0.43,0.196 0.59,-0.196 1.285,-0.66 1.25,-0.231 -0.035,0.43 -0.035,2.41 -0.035,2.41 0,0 0.82,0.036 1.195,-1.16 0.375,-1.195 0.52,-3.965 0.52,-3.965 z"
         style="fill:#1d5866;fill-opacity:0.94117599;fill-rule:nonzero;stroke:none"
         id="path3986"
         inkscape:connector-curvature="0" /><path
         d="m 58.531,82.875 c 0.957,-0.094 1.473,-0.676 1.473,-0.676 V 79 c 0,0 0.359,-1.446 0.601,-1.973 0.239,-0.531 0.176,-4.852 0.176,-4.852 0,0 1.793,-3.746 2.149,-5.175 0.355,-1.426 1.668,-6.141 2.023,-7.5 0.359,-1.356 0.586,-3.809 1.551,-5.024 0.965,-1.215 1,-1.574 1,-1.574 0,0 0.488,-5.688 1.199,-7.902 0.715,-2.215 1.953,-5.75 1.953,-5.75 0,0 0.481,-2.219 1.125,-3.399 0.641,-1.18 3.422,-5.137 5.172,-7.101 1.75,-1.965 17.051,-15.649 17.051,-15.649 L 80.355,0 v 2.824 h -1.449 v 2.375 h -1.152 v 1.476 h -1.551 l -0.172,0.2 C 75.398,15.816 68.867,23.14 60.305,24.949 v 1.953 l -1.852,1.523 c 0,0 -0.101,0.348 0.176,0.524 0.277,0.179 1.801,0.402 1.801,0.402 0,0 0.062,0.168 0.023,0.399 -0.035,0.234 -0.473,0.527 -0.473,0.527 0,0 -0.82,0.535 -0.925,1.223 -0.082,0.515 -0.18,0.562 -0.227,0.55 l 0.277,0.274 c 0,0 0.274,0.726 -0.074,0.976 -0.347,0.25 -0.328,0.352 -0.328,0.352 0,0 0.344,0.777 0.102,1.074 -0.243,0.293 -0.379,0.367 -0.301,0.449 0.082,0.082 0.375,0.317 0.25,0.477 C 58.629,35.812 58.406,36 58.406,36 l -0.051,2.027 c 0,0 -0.347,-0.07 -0.402,0.223 -0.051,0.296 -0.047,1.375 -0.047,1.375 0,0 1.11,0.539 0.797,0.851 -0.312,0.313 -1.199,0.801 -1.199,0.801 0,0 0.035,0.914 0.027,0.949 -0.011,0.035 -0.148,0.356 -0.301,0.5 -0.152,0.141 -0.027,0.875 -0.027,0.875 0,0 0.672,0.68 0.625,1.223 -0.043,0.547 -0.598,0.601 -0.598,0.601 l 0.125,3.227 c 0,0 0.231,0.488 0.149,0.797 -0.082,0.312 -0.274,1.203 -0.274,1.203 l -0.027,4.199 c 0,0 0.27,0.695 0.25,1.125 C 57.438,56.406 57.156,57 57.156,57 l -0.226,8.726 c 0,0 -0.102,0.348 -0.075,0.625 0.024,0.277 0.477,1.031 0.301,1.5 -0.179,0.465 -0.601,1.125 -0.601,1.125 l -0.375,8.098 v 4.703 c 0,0 0.664,1.023 1.898,1.098 0.156,0.011 0.317,0.015 0.453,0 z"
         style="fill:#a43a2c;fill-opacity:1;fill-rule:nonzero;stroke:none"
         id="path3988"
         inkscape:connector-curvature="0" /><path
         d="m 56.898,59.089 c 0.02,0.09 0.04,5.645 0.04,5.645 0,0 0.945,0.391 1.48,0.48 0.535,0.09 1.465,0.25 1.785,-0.32 0.32,-0.574 0.43,-0.555 0.109,-0.519 -0.324,0.035 -0.289,0.609 -0.839,0.25 -0.555,-0.356 -0.485,-1.731 -0.485,-1.731 l 0.055,-0.574 c 0,0 1.215,0.09 1.395,0.289 0.175,0.195 0.21,-0.27 0.21,-0.27 0,0 0.465,-5.07 0.68,-6.355 0.215,-1.289 0.395,-1.875 0.535,-2.109 0.145,-0.231 0.34,-0.59 0.34,-1.016 0,-0.43 0.785,-5.59 1.035,-6.625 0.25,-1.039 1.145,-3.055 0.785,-3.395 -0.355,-0.339 -1.23,-0.375 -1.23,0.305 0,0.676 -0.375,3.676 -0.52,4.715 -0.14,1.035 -0.8,4.891 -0.835,5.426 -0.04,0.535 -0.915,5.929 -0.915,5.929 l -0.265,2.625 c 0,0 0.16,0.395 -0.43,0.196 -0.59,-0.196 -1.285,-0.66 -1.25,-0.231 0.035,0.43 0.035,2.41 0.035,2.41 0,0 -0.82,0.036 -1.195,-1.16 -0.375,-1.195 -0.52,-3.965 -0.52,-3.965 z"
         style="fill:#1d5866;fill-opacity:0.94117599;fill-rule:nonzero;stroke:none"
         id="path3990"
         inkscape:connector-curvature="0" /></g></g></svg>