<?xml version="1.0" encoding="UTF-8" standalone="no"?>
<!-- Created with Inkscape (http://www.inkscape.org/) -->

<svg
   xmlns:dc="http://purl.org/dc/elements/1.1/"
   xmlns:cc="http://creativecommons.org/ns#"
   xmlns:rdf="http://www.w3.org/1999/02/22-rdf-syntax-ns#"
   xmlns:svg="http://www.w3.org/2000/svg"
   xmlns="http://www.w3.org/2000/svg"
   xmlns:sodipodi="http://sodipodi.sourceforge.net/DTD/sodipodi-0.dtd"
   xmlns:inkscape="http://www.inkscape.org/namespaces/inkscape"
   version="1.1"
   id="svg5155"
   xml:space="preserve"
   width="154.62186"
   height="120.08107"
   viewBox="0 0 154.62186 120.08107"
   sodipodi:docname="logo-2.svg"
   inkscape:version="0.92.2 5c3e80d, 2017-08-06"><metadata
     id="metadata5161"><rdf:RDF><cc:Work
         rdf:about=""><dc:format>image/svg+xml</dc:format><dc:type
           rdf:resource="http://purl.org/dc/dcmitype/StillImage" /><dc:title></dc:title></cc:Work></rdf:RDF></metadata><defs
     id="defs5159" /><sodipodi:namedview
     pagecolor="#ffffff"
     bordercolor="#666666"
     borderopacity="1"
     objecttolerance="10"
     gridtolerance="10"
     guidetolerance="10"
     inkscape:pageopacity="0"
     inkscape:pageshadow="2"
     inkscape:window-width="1160"
     inkscape:window-height="1055"
     id="namedview5157"
     showgrid="false"
     inkscape:zoom="1.965339"
     inkscape:cx="50.119682"
     inkscape:cy="30.839972"
     inkscape:window-x="0"
     inkscape:window-y="25"
     inkscape:window-maximized="0"
     inkscape:current-layer="g5165" /><g
     id="g5163"
     inkscape:groupmode="layer"
     inkscape:label="logo"
     transform="matrix(1.3333333,0,0,-1.3333333,0,120.08107)"><g
       id="g5165"><g
         id="g5167"
         transform="matrix(1,0,0,-1,0,90.060799)"><path
           style="fill:none;stroke:#1d5866;stroke-width:1.2888189;stroke-linecap:butt;stroke-linejoin:miter;stroke-miterlimit:4;stroke-dasharray:none;stroke-opacity:1"
           d="M 136.125,53.53125 C 132.87956,23.580577 107.51716,0.265625 76.707031,0.265625 45.8969,0.265625 20.536457,23.580577 17.291016,53.53125 m 10.904296,41.390625 c 10.847471,15.069335 28.524762,24.890625 48.511719,24.890625 19.987117,0 37.665659,-9.82108 48.513669,-24.890625"
           transform="matrix(0.75000002,0,0,0.75000002,0,-5.7515201e-6)"
           id="path5169"
           inkscape:connector-curvature="0"
           sodipodi:nodetypes="csccsc" /></g><g
         id="g5173"
         transform="matrix(1,0,0,-1,0,90.060799)"><path
           style="fill:none;stroke:#1d5866;stroke-width:0.91086614;stroke-linecap:butt;stroke-linejoin:miter;stroke-miterlimit:4;stroke-dasharray:none;stroke-opacity:1"
           d="m 113.28711,34.917969 c -8.00172,-11.62798 -21.397615,-19.25586 -36.580079,-19.25586 -15.182463,0 -28.576407,7.62788 -36.578125,19.25586"
           transform="matrix(0.75000002,0,0,0.75000002,0,-5.7515201e-6)"
           id="path5175"
           inkscape:connector-curvature="0"
           sodipodi:nodetypes="csc" /></g><path
         d="m 62.555,21.184301 c -0.196,-0.774647 -0.008,-1.516947 0.043,-2.453324 0.047,-0.935548 -1.395,-2.425955 -1.594,-3.222995 -0.195,-0.79704 -0.734,-2.105811 -0.719,-3.133421 0.016,-1.030097 0.543,-2.8796283 0.738,-3.8383987 0.196,-0.9595998 1.188,-4.046575 1.141,-4.9738287 -0.051,-0.9231068 -0.082,-1.2374441 0.313,-2.2094847 0.39,-0.97204052 -0.114,-0.50177858 0.925,-0.85177953 0.786,-0.26208602 3.778,0.74810633 3.778,0.74810633 0,0 -0.559,-0.37571195 -2.895,-0.53080716 -1.086,0.21978733 0.348,0.009123 -0.398,-0.0879149 -0.524,0.25628032 -0.778,0.44703906 -1.043,0.87831986 -0.231,0.3723944 -0.094,1.9175408 -0.156,2.6341304 -0.067,0.7157603 -0.934,4.0946794 -1.083,4.4902966 -0.148,0.3914702 -0.578,2.6075895 -0.527,3.1748905 0.063,0.71576 0.172,2.219437 0.367,3.178207 0.196,0.958771 1.543,2.601785 1.543,3.261976 0,0.657703 0.36,2.265054 0.293,2.611737 -0.066,0.346683 -0.066,0.544077 -0.246,0.566471 -0.359,0.0622 -0.41,-0.02903 -0.48,-0.242181 z"
         style="fill:#1d5866;fill-opacity:1;fill-rule:evenodd;stroke:none;stroke-width:0.99999994"
         id="path5181"
         inkscape:connector-curvature="0" /><path
         d="m 50.145,22.838 c 0.078,0.078 0.07,0.414 0.117,0.313 0.14,-0.45 0.113,-0.528 -0.117,-0.313 z"
         style="fill:#1d5866;fill-opacity:1;fill-rule:nonzero;stroke:none"
         id="path5187"
         inkscape:connector-curvature="0" /><path
         d="m 65.387,60.74 c 0,0.301 0.019,0.426 0.043,0.274 0.023,-0.152 0.023,-0.399 0,-0.551 -0.024,-0.152 -0.043,-0.027 -0.043,0.277 z"
         style="fill:#1d5866;fill-opacity:1;fill-rule:nonzero;stroke:none"
         id="path5189"
         inkscape:connector-curvature="0" /><path
         style="fill:#a43a2c;fill-opacity:1;fill-rule:evenodd;stroke:none;stroke-width:1.33333325"
         d="M 74.636719 40.164062 C 74.581198 40.168876 74.516833 40.182365 74.4375 40.207031 C 74.120167 40.301698 72.729708 41.729651 71.984375 42.458984 C 71.240375 43.188318 70.015724 44.598349 69.650391 45.041016 C 69.286391 45.483682 69.114349 45.406917 68.541016 45.65625 C 67.973016 45.91225 67.687323 46.307333 66.972656 46.75 C 66.259323 47.198 64.912417 47.703708 64.59375 47.734375 C 64.276417 47.765042 64.104651 47.813109 63.833984 48.037109 C 63.568651 48.261109 63.151609 48.274849 62.599609 48.353516 C 62.042276 48.430849 61.568859 48.974651 61.380859 49.083984 C 61.188859 49.193318 61.047568 49.021693 60.490234 49.068359 C 59.938234 49.115026 59.109099 50.031625 58.759766 50.015625 C 58.411766 49.999625 58.000719 50.447641 57.636719 50.431641 C 57.271385 50.411641 55.183635 51.291833 53.792969 51.5625 C 52.402302 51.827833 50.073526 52.411182 49.130859 52.728516 C 48.188193 53.040516 47.020391 53.400391 45.900391 53.400391 C 44.780391 53.400391 42.312016 54.338917 41.416016 54.65625 C 40.521349 54.969583 39.311599 54.968958 38.322266 55.015625 C 37.338266 55.056958 35.812333 55.19275 34.875 54.96875 C 33.932333 54.74475 33.708292 55.192849 32.765625 55.103516 C 31.822958 55.015516 29.759458 55.103391 26.578125 55.775391 C 23.395458 56.447391 18.73525 57.926891 17.03125 58.462891 C 15.32325 59.004224 13.53125 59.269531 13.53125 59.269531 C 10.500583 59.848198 7.4216249 59.296682 4.765625 61.166016 C 4.765625 61.166016 0.079192707 62.6505 0.005859375 66.5625 C 0.005859375 66.5625 -0.11441665 68.614292 0.65625 73.015625 C 0.65625 73.015625 2.3342761 77.073542 6.0996094 79.046875 C 9.8649426 81.016208 21.036677 86.458776 24.527344 87.412109 C 28.011344 88.360109 32.796807 90.484234 33.494141 90.740234 C 34.192807 90.994901 34.734833 92.166458 35.9375 92.453125 C 37.140167 92.734458 38.884917 93.115094 40.40625 93.371094 C 41.92625 93.62576 44.624708 95.495135 45.859375 96.480469 C 46.569058 97.043612 47.592942 97.515609 48.683594 97.849609 C 48.263956 97.986235 47.950065 98.098057 47.90625 98.146484 C 47.696917 98.365151 47.728474 98.479682 47.619141 98.541016 C 47.509807 98.603682 46.765349 99.28625 46.416016 99.90625 C 46.068016 100.52092 45.749875 101.47492 45.921875 102.15625 C 46.099208 102.83892 46.317349 103.31253 46.416016 103.42188 C 46.510682 103.53654 46.208443 103.7559 46.287109 103.86523 C 46.364443 103.9799 47.046776 104.01035 47.412109 104.04102 C 47.776109 104.07302 51.787276 103.98028 52.724609 103.84961 C 53.656609 103.72428 53.420516 104.10372 54.228516 104.15039 C 55.035182 104.19839 55.734266 104.0401 56.322266 104.13477 C 56.906266 104.2281 58.844375 104.34433 58.984375 104.375 C 59.125708 104.407 59.488724 104.532 59.775391 104.5 C 60.062057 104.46933 60.251594 104.5625 60.683594 104.5625 C 61.11026 104.5625 61.426693 104.40683 61.693359 104.4375 C 61.964026 104.4695 65.041333 104.66117 66.5 104.5625 C 67.958667 104.46917 71.525766 103.94695 72.509766 103.98828 C 73.493766 104.03628 74.079484 104.12464 74.271484 104.05664 C 74.459484 103.98864 75.031318 104.08378 75.333984 104.03711 C 75.636651 103.98911 75.973984 104.17152 76.333984 104.10352 C 76.693984 104.03685 77.599068 103.75625 79.177734 103.65625 C 80.760401 103.55225 81.479167 103.29763 81.8125 103.26562 C 82.151167 103.22963 82.338016 102.95804 82.666016 102.85938 C 82.988682 102.7607 86.041568 102.45783 87.740234 102.3125 C 89.432234 102.17117 94.333443 100.94695 95.412109 100.48828 C 96.489443 100.03095 97.584885 99.712682 98.074219 99.666016 C 98.563552 99.619349 101.11496 99.031458 102.76562 99.078125 C 104.4123 99.124792 105.53637 99.317609 105.98438 99.349609 C 106.42704 99.380276 107.979 99.364156 108.375 99.160156 C 108.771 98.952156 111.40077 97.796708 112.38477 96.859375 C 113.36877 95.927375 116.23977 94.848474 117.75977 94.119141 C 119.2811 93.389807 122.39086 92.026958 124.13086 91.265625 C 125.87486 90.505625 131.29713 87.937901 133.45312 87.115234 C 135.60913 86.287234 142.70811 83.468625 143.91211 82.640625 C 145.12011 81.816625 150.1409 79.916557 150.99023 78.837891 C 151.8449 77.764557 153.14029 76.957833 154.26562 74.3125 C 155.38563 71.665833 153.59378 67.813651 152.78711 66.958984 C 151.97911 66.109651 151.12525 64.405849 149.78125 63.728516 C 148.43725 63.056516 146.32227 62.037109 146.32227 62.037109 C 142.3276 60.322443 141.1508 60.213734 139.82812 59.677734 C 138.50546 59.136401 137.16157 58.286141 136.24023 57.994141 C 135.3229 57.703474 131.24082 55.708068 129.27148 55.302734 C 127.29815 54.901401 121.60324 54.26975 120.25391 54.09375 C 118.91124 53.911083 117.81217 53.869615 116.9375 53.488281 C 116.06817 53.102948 114.76557 52.526266 113.24023 52.322266 C 111.7189 52.119599 110.26065 52.166792 108.33398 51.828125 C 106.40732 51.494792 99.901958 50.171057 99.140625 49.900391 C 98.380625 49.629724 97.683083 49.609167 97.59375 49.5625 C 97.50575 49.521167 97.098776 49.193208 96.912109 49.171875 C 96.718776 49.150542 96.338901 49.150182 96.240234 49.103516 C 96.136234 49.062182 95.911198 48.803052 95.644531 48.761719 C 95.373865 48.713719 95.072917 48.770224 94.90625 48.712891 C 94.73425 48.655557 94.379141 48.431057 94.119141 48.400391 C 93.863141 48.364391 93.448068 48.256401 93.302734 48.177734 C 93.156068 48.099068 92.604719 47.750875 92.136719 47.546875 C 91.667385 47.344208 89.759792 46.796557 88.953125 46.337891 C 88.145125 45.873891 87.921307 45.755031 87.806641 45.707031 C 87.697307 45.665698 85.614167 44.264766 85.1875 43.884766 C 84.7595 43.504766 82.078042 41.131026 81.859375 41.068359 C 81.635375 41.005693 81.103349 40.860526 80.666016 41.005859 C 80.234016 41.147193 79.770901 41.980401 79.740234 42.177734 C 79.708234 42.380401 79.270708 42.885083 79.109375 43.34375 C 79.10304 43.362376 79.089427 43.400675 79.082031 43.421875 C 79.055281 43.596555 79.02918 43.771697 79.035156 43.9375 C 79.09249 45.6775 79.604359 48.12974 80.068359 48.816406 C 80.536359 49.504406 81.119307 50.154948 82.556641 50.488281 C 83.993974 50.816281 84.635599 50.963375 85.322266 51.359375 C 86.010266 51.760708 86.531042 52.316474 87.484375 52.619141 C 88.437708 52.927141 89.771318 53.526693 90.333984 54.193359 C 90.896651 54.865359 91.005833 55.308083 91.8125 55.71875 C 92.615167 56.125417 93.988599 56.384349 94.947266 57.291016 C 95.900599 58.203016 96.145917 59.036099 97.53125 59.634766 C 98.921917 60.233432 99.735167 60.333068 100.3125 60.927734 C 100.89117 61.526401 101.46946 62.025766 101.82812 63.009766 C 101.92464 63.269734 102.04257 63.514677 102.17188 63.744141 C 102.83955 64.128883 103.35966 64.486361 103.76562 64.875 C 104.6363 65.713667 105.74472 66.884667 105.77539 67.25 C 105.80606 67.614 105.58815 68.062792 105.52148 68.328125 C 105.48491 68.486121 105.3802 69.776106 105.25781 71.074219 C 105.65496 71.590593 106.15297 71.736466 106.04102 72.291016 C 105.92635 72.859016 105.94252 74.374609 105.97852 74.974609 C 106.02118 75.578609 105.6771 77.401526 105.75977 78.130859 C 105.84377 78.860193 106.00042 78.895417 105.59375 79.46875 C 105.19375 80.046083 104.21921 80.864833 103.92188 81.1875 C 103.62588 81.504833 102.91282 82.598833 102.77148 82.9375 C 102.62615 83.2815 101.84998 84.275583 101.33398 84.40625 C 100.81798 84.536917 99.047 85.59875 98.375 85.71875 C 97.703 85.83875 96.506094 86.276375 95.746094 86.484375 C 94.979427 86.693708 92.604458 87.141208 91.703125 87.171875 C 91.060013 87.194606 89.176502 87.252625 87.423828 87.177734 C 85.065892 88.072272 81.873931 89.38281 81.363281 89.488281 C 80.712615 89.624281 75.02226 89.373974 73.183594 89.556641 C 71.344927 89.733974 68.655333 90.452974 68.25 90.431641 C 67.848667 90.406307 61.817526 89.130292 60.630859 89.015625 C 59.442859 88.906292 56.281484 89.150583 55.521484 89.78125 C 55.068684 90.150577 54.460255 90.458161 53.992188 90.8125 C 54.273899 90.377396 54.687907 89.926634 55.183594 89.537109 C 56.011594 88.885109 58.412068 88.422625 59.302734 88.390625 C 60.188068 88.359958 67.540365 89.817969 68.207031 89.917969 C 68.873698 90.011302 70.556875 89.249807 72.296875 89.119141 C 74.040875 88.993807 80.859583 89.217531 81.90625 88.769531 C 82.537694 88.502475 84.561593 87.7618 86.386719 87.099609 C 86.063893 87.07175 85.717031 87.052742 85.4375 87.009766 C 83.442833 86.697766 79.775266 85.994125 79.447266 86.078125 C 79.447266 86.078125 79.004958 86.125734 78.515625 86.177734 L 77.855469 86.103516 C 77.198135 86.124849 76.234875 86.073969 74.546875 86.417969 C 72.864208 86.756635 71.114417 87.374943 70.34375 87.349609 C 69.573083 87.317609 67.515349 87.936156 65.166016 87.660156 C 62.811349 87.384156 56.276885 85.9015 54.574219 83.9375 C 52.870219 81.9695 51.526792 79.313776 51.328125 78.287109 C 51.130792 77.261776 50.332641 74.786099 50.556641 73.384766 C 50.780641 71.988766 51.755109 70.166458 51.787109 69.453125 C 51.792608 69.297152 51.85924 69.126409 51.951172 68.949219 C 51.926824 68.591453 51.897446 68.226822 51.863281 68.072266 C 51.785948 67.692266 51.536401 67.056391 51.677734 66.900391 C 51.817734 66.739057 52.925807 65.551167 53.119141 65.3125 C 53.188453 65.225364 53.461274 65.061298 53.794922 64.871094 C 53.882129 64.734706 53.982797 64.612467 54.119141 64.521484 C 54.811141 64.062818 54.563318 63.037333 55.833984 62 C 57.104651 60.964 58.587391 59.837656 59.275391 59.097656 C 59.958057 58.364323 59.677526 58.17175 60.630859 57.34375 C 61.584193 56.521083 61.587073 56.755458 62.816406 56.078125 C 64.051073 55.400792 64.823552 54.183052 65.574219 53.761719 C 66.323552 53.333719 68.155307 52.797526 69.056641 52.130859 C 69.963307 51.464193 71.464417 50.775224 72.59375 50.337891 C 73.724417 49.900557 76.109375 49.540891 76.609375 48.212891 C 76.959069 47.27409 77.339234 45.539198 77.75 44.21875 C 77.747453 44.156278 77.754324 44.088422 77.75 44.027344 C 77.672667 42.839344 76.958917 42.093641 76.65625 41.681641 C 76.36025 41.264307 75.662193 40.816307 75.380859 40.681641 C 75.104859 40.545641 75.103849 40.521609 74.978516 40.349609 C 74.881516 40.220609 74.803281 40.149625 74.636719 40.164062 z M 62.115234 96.521484 C 62.129015 96.526921 62.185805 96.546143 62.197266 96.550781 C 62.228814 96.563269 62.115931 96.56978 62.058594 96.578125 C 62.079756 96.558206 62.095333 96.541033 62.115234 96.521484 z "
         id="path5191"
         transform="matrix(0.75000002,0,0,-0.75000002,0,90.060805)" /><path
         d="m 58.492,26.158 c 0,0 -1.238,0.625 -1.789,0.86 -0.551,0.238 -0.98,0.555 -1.258,0.504 -0.273,-0.051 -1.324,0.008 -1.765,-0.106 -0.442,-0.109 -2.465,-0.242 -2.821,-0.449 -0.351,-0.203 -2.285,-0.562 -2.797,-0.621 -0.511,-0.063 -1.64,-0.156 -2.191,0.07 -0.547,0.223 -1.273,0.36 -1.629,0.492 -0.351,0.133 -1.101,0.723 -1.101,0.723 0,0 0.699,-0.539 1.218,-0.683 0.52,-0.145 1.309,-0.418 1.641,-0.493 0.332,-0.07 1.719,-0.172 2.426,-0.007 0.707,0.164 1.765,0.328 1.984,0.41 0.215,0.078 0.551,0.304 0.805,0.336 0.254,0.031 2.211,0.386 2.691,0.429 0.481,0.039 1.461,0.071 1.461,0.071 0,0 -0.5,0.289 -1.058,0.441 -0.563,0.152 -1.934,0.625 -2.672,0.91 -0.739,0.285 -2.219,1.074 -2.348,1.043 -0.129,-0.031 -1.601,-0.336 -2.836,-0.387 -1.238,-0.054 -1.672,-0.156 -1.816,-0.164 -0.149,-0.011 -0.532,0.121 -0.746,0.102 -0.219,-0.02 -0.739,-0.063 -0.856,-0.063 -0.117,0 -0.816,0.278 -1.101,0.329 -0.286,0.05 -0.598,0.152 -0.766,0.304 -0.168,0.156 -0.531,0.688 -0.531,0.688 0,0 0.383,-0.524 0.59,-0.633 0.207,-0.113 0.66,-0.289 0.855,-0.309 0.195,-0.019 0.738,-0.246 0.883,-0.265 0.148,-0.02 0.629,0.121 0.844,0.09 0.218,-0.028 0.679,-0.11 0.914,-0.102 0.238,0.012 0.984,0.156 1.257,0.113 0.274,-0.039 1.297,0.094 1.582,0.125 0.286,0.028 1.54,0.293 1.579,0.336 0.043,0.039 -1.028,0.492 -1.286,0.656 -0.253,0.161 -0.687,0.375 -1.058,0.633 -0.375,0.254 -1.582,0.91 -1.75,1.082 -0.168,0.176 -1.422,0.973 -1.543,1.004 -0.117,0.031 -0.707,-0.234 -0.824,-0.254 -0.118,-0.023 -0.461,-0.129 -0.59,-0.195 -0.184,-0.078 -0.469,-0.184 -0.735,-0.203 -0.265,-0.024 -0.894,-0.094 -1.07,-0.125 -0.176,-0.031 -0.234,-0.02 -0.355,0.164 -0.118,0.184 -0.196,0.41 -0.203,0.512 -0.012,0.101 0.105,-0.196 0.105,-0.196 0,0 -0.039,-0.297 0.219,-0.336 0.254,-0.043 0.429,-0.101 0.726,-0.023 0.293,0.082 0.508,0.094 0.715,0.156 0.207,0.059 0.473,0.082 0.688,0.172 0.215,0.094 0.597,0.215 0.785,0.266 0.187,0.05 0.402,0.062 0.394,0.133 -0.011,0.074 -1.004,0.82 -1.101,0.972 -0.098,0.153 -1.129,1.067 -1.363,1.289 -0.239,0.227 -0.305,0.524 -0.5,0.688 -0.2,0.16 -0.836,0.949 -0.895,1.152 -0.059,0.207 -0.227,0.941 -0.238,1.156 -0.008,0.215 -0.117,1.086 -0.067,1.231 0.047,0.14 0.059,-0.278 0.059,-0.278 0,0 0.031,-0.746 0.051,-0.929 0.019,-0.188 0.195,-1.074 0.293,-1.207 0.097,-0.133 0.707,-0.883 0.836,-1.024 0.125,-0.144 0.507,-0.738 0.726,-0.933 0.215,-0.192 0.981,-0.817 1.098,-0.969 0.117,-0.156 0.48,-0.422 0.68,-0.574 0.195,-0.153 0.667,-0.614 0.91,-0.657 0.246,-0.039 0.238,-0.07 0.238,-0.07 0,0 0.125,-0.203 0.293,-0.316 0.168,-0.114 0.836,-0.606 0.992,-0.676 0.156,-0.07 0.805,-0.469 1.063,-0.594 0.254,-0.121 1.136,-0.797 1.492,-0.941 0.351,-0.141 0.953,-0.418 1.187,-0.582 0.235,-0.164 1.582,-0.727 1.895,-0.86 0.316,-0.132 2.406,-0.949 3.367,-1.218 0.965,-0.266 2.094,-0.868 2.535,-1.102 0.442,-0.238 1.543,-0.738 1.668,-0.851 0.129,-0.114 -0.086,-0.247 -0.086,-0.247 z"
         style="fill:#1d5866;fill-opacity:1;fill-rule:evenodd;stroke:none"
         id="path5197"
         inkscape:connector-curvature="0" /><path
         d="m 58.332,30.377 c 0,0 -0.984,0.703 -1.426,0.977 -0.441,0.269 -0.773,0.609 -1.011,0.586 -0.239,-0.024 -1.122,0.133 -1.508,0.066 -0.383,-0.066 -2.11,-0.012 -2.43,-0.172 -0.32,-0.16 -1.992,-0.324 -2.43,-0.336 -0.437,-0.011 -1.402,0.008 -1.843,0.266 -0.446,0.262 -1.043,0.453 -1.332,0.613 -0.286,0.156 -0.856,0.785 -0.856,0.785 0,0 0.535,-0.574 0.961,-0.757 0.426,-0.184 1.063,-0.516 1.336,-0.614 0.277,-0.097 1.437,-0.32 2.051,-0.23 0.617,0.09 1.531,0.148 1.722,0.207 0.188,0.058 0.496,0.242 0.715,0.246 0.219,0.008 1.907,0.168 2.321,0.164 0.41,-0.008 1.242,-0.066 1.242,-0.066 0,0 -0.395,0.316 -0.852,0.511 -0.457,0.2 -1.574,0.766 -2.168,1.106 -0.594,0.336 -1.765,1.219 -1.879,1.199 -0.109,-0.016 -1.386,-0.172 -2.441,-0.109 -1.051,0.062 -1.426,0.007 -1.551,0.011 -0.125,0.004 -0.437,0.164 -0.621,0.164 -0.184,0 -0.629,0.008 -0.73,0.02 -0.098,0.008 -0.661,0.332 -0.895,0.406 -0.238,0.074 -0.492,0.203 -0.617,0.363 -0.125,0.161 -0.379,0.696 -0.379,0.696 0,0 0.269,-0.528 0.434,-0.653 0.164,-0.125 0.527,-0.332 0.691,-0.371 0.164,-0.035 0.598,-0.297 0.719,-0.332 0.125,-0.031 0.547,0.063 0.726,0.012 0.18,-0.047 0.559,-0.168 0.762,-0.18 0.199,-0.011 0.844,0.059 1.074,-0.007 0.227,-0.063 1.106,-0.032 1.348,-0.028 0.246,0 1.336,0.141 1.371,0.176 0.039,0.035 -0.82,0.559 -1.02,0.738 -0.199,0.176 -0.543,0.418 -0.832,0.696 -0.289,0.277 -1.246,1.003 -1.371,1.183 -0.121,0.18 -1.105,1.051 -1.199,1.09 -0.098,0.039 -0.625,-0.16 -0.726,-0.168 -0.102,-0.008 -0.403,-0.078 -0.52,-0.129 -0.16,-0.058 -0.414,-0.133 -0.641,-0.129 -0.226,0.008 -0.765,-0.008 -0.918,-0.019 -0.152,-0.012 -0.203,0 -0.281,0.187 -0.082,0.188 -0.125,0.406 -0.125,0.504 0.004,0.098 0.074,-0.195 0.074,-0.195 0,0 -0.066,-0.278 0.149,-0.336 0.211,-0.063 0.355,-0.137 0.609,-0.086 0.258,0.051 0.442,0.039 0.625,0.078 0.18,0.039 0.406,0.035 0.598,0.102 0.191,0.07 0.527,0.148 0.691,0.183 0.164,0.031 0.348,0.02 0.348,0.09 0,0.066 -0.766,0.863 -0.832,1.02 -0.07,0.152 -0.848,1.105 -1.024,1.339 -0.179,0.235 -0.207,0.524 -0.355,0.696 -0.148,0.172 -0.609,0.976 -0.641,1.175 -0.027,0.2 -0.093,0.911 -0.082,1.114 0.016,0.207 0.012,1.039 0.067,1.168 0.058,0.133 0.023,-0.266 0.023,-0.266 0,0 -0.051,-0.711 -0.051,-0.887 -0.004,-0.175 0.055,-1.031 0.125,-1.168 0.071,-0.132 0.508,-0.894 0.602,-1.043 0.094,-0.148 0.359,-0.742 0.519,-0.945 0.164,-0.203 0.75,-0.863 0.832,-1.019 0.086,-0.157 0.364,-0.442 0.516,-0.606 0.152,-0.164 0.504,-0.64 0.707,-0.703 0.203,-0.059 0.192,-0.086 0.192,-0.086 0,0 0.085,-0.207 0.218,-0.328 0.129,-0.121 0.645,-0.648 0.77,-0.731 0.125,-0.082 0.633,-0.515 0.836,-0.656 0.203,-0.14 0.883,-0.859 1.168,-1.027 0.285,-0.168 0.761,-0.481 0.945,-0.66 0.184,-0.176 1.262,-0.828 1.516,-0.985 0.254,-0.152 1.937,-1.117 2.726,-1.457 0.785,-0.34 1.68,-1.011 2.031,-1.273 0.348,-0.266 1.227,-0.84 1.325,-0.957 0.097,-0.117 -0.098,-0.223 -0.098,-0.223 z"
         style="fill:#1d5866;fill-opacity:1;fill-rule:evenodd;stroke:none"
         id="path5199"
         inkscape:connector-curvature="0" /><path
         d="m 57.562,35.03 c 0,0 -0.64,0.664 -0.929,0.925 -0.289,0.266 -0.496,0.571 -0.668,0.578 -0.172,0.008 -0.789,0.219 -1.07,0.207 -0.282,-0.011 -1.508,0.211 -1.75,0.118 -0.243,-0.098 -1.454,-0.055 -1.766,-0.02 -0.317,0.039 -1.004,0.152 -1.293,0.406 -0.293,0.258 -0.703,0.473 -0.895,0.629 -0.187,0.157 -0.539,0.719 -0.539,0.719 0,0 0.328,-0.516 0.618,-0.707 0.285,-0.191 0.71,-0.523 0.898,-0.629 0.187,-0.109 0.996,-0.406 1.441,-0.398 0.45,0.007 1.106,-0.039 1.25,-0.012 0.141,0.023 0.375,0.141 0.532,0.121 0.156,-0.019 1.379,-0.066 1.671,-0.113 0.293,-0.047 0.883,-0.18 0.883,-0.18 0,0 -0.25,0.293 -0.558,0.5 -0.309,0.203 -1.055,0.774 -1.446,1.106 -0.394,0.332 -1.152,1.16 -1.23,1.156 -0.082,0 -1.008,0.008 -1.754,0.164 -0.746,0.164 -1.019,0.156 -1.109,0.172 -0.09,0.015 -0.297,0.176 -0.43,0.195 -0.129,0.02 -0.445,0.074 -0.516,0.09 -0.07,0.019 -0.441,0.34 -0.605,0.422 -0.16,0.086 -0.332,0.211 -0.406,0.351 -0.075,0.141 -0.207,0.598 -0.207,0.598 0,0 0.144,-0.449 0.25,-0.566 0.105,-0.118 0.347,-0.321 0.461,-0.368 0.113,-0.046 0.398,-0.3 0.484,-0.339 0.082,-0.04 0.394,-0.012 0.516,-0.067 0.125,-0.058 0.386,-0.195 0.527,-0.223 0.144,-0.031 0.609,-0.046 0.769,-0.121 0.157,-0.074 0.786,-0.136 0.961,-0.16 0.176,-0.023 0.965,-0.027 0.996,0 0.028,0.024 -0.535,0.531 -0.664,0.696 -0.125,0.164 -0.347,0.39 -0.527,0.644 -0.184,0.25 -0.797,0.93 -0.867,1.09 -0.074,0.156 -0.695,0.953 -0.758,0.992 -0.066,0.043 -0.461,-0.058 -0.535,-0.058 -0.07,0.007 -0.293,-0.02 -0.383,-0.047 -0.121,-0.032 -0.309,-0.063 -0.469,-0.036 -0.16,0.028 -0.547,0.075 -0.656,0.079 -0.113,0.007 -0.144,0.023 -0.187,0.179 -0.04,0.157 -0.051,0.336 -0.04,0.414 0.012,0.078 0.032,-0.16 0.032,-0.16 0,0 -0.071,-0.215 0.074,-0.289 0.148,-0.07 0.242,-0.144 0.43,-0.129 0.191,0.012 0.32,-0.015 0.453,0 0.133,0.012 0.293,-0.015 0.437,0.016 0.145,0.035 0.391,0.066 0.512,0.074 0.117,0.008 0.25,-0.019 0.254,0.035 0.008,0.055 -0.465,0.774 -0.5,0.903 -0.031,0.128 -0.5,0.976 -0.606,1.179 -0.105,0.207 -0.097,0.442 -0.187,0.594 -0.09,0.152 -0.344,0.844 -0.348,1.004 -0.004,0.164 0.016,0.738 0.047,0.902 0.028,0.16 0.102,0.828 0.152,0.926 0.055,0.102 -0.007,-0.215 -0.007,-0.215 0,0 -0.102,-0.562 -0.121,-0.703 -0.016,-0.141 -0.055,-0.832 -0.016,-0.945 0.035,-0.117 0.277,-0.774 0.332,-0.899 0.055,-0.129 0.188,-0.632 0.285,-0.812 0.098,-0.18 0.453,-0.77 0.496,-0.903 0.047,-0.132 0.223,-0.39 0.313,-0.535 0.094,-0.144 0.301,-0.566 0.441,-0.636 0.137,-0.067 0.129,-0.09 0.129,-0.09 0,0 0.043,-0.172 0.125,-0.285 0.078,-0.11 0.399,-0.582 0.481,-0.661 0.082,-0.078 0.406,-0.48 0.539,-0.613 0.129,-0.133 0.55,-0.777 0.738,-0.941 0.187,-0.164 0.5,-0.469 0.613,-0.629 0.113,-0.16 0.824,-0.793 0.992,-0.945 0.164,-0.149 1.278,-1.094 1.809,-1.45 0.531,-0.351 1.109,-0.984 1.332,-1.23 0.227,-0.246 0.801,-0.797 0.859,-0.899 0.059,-0.105 -0.09,-0.171 -0.09,-0.171 z"
         style="fill:#1d5866;fill-opacity:1;fill-rule:evenodd;stroke:none"
         id="path5201"
         inkscape:connector-curvature="0" /><path
         d="m 57.238,40.494 c 0,0 -0.402,0.512 -0.586,0.715 -0.187,0.207 -0.312,0.438 -0.429,0.449 -0.118,0.016 -0.532,0.204 -0.727,0.211 -0.195,0.008 -1.031,0.243 -1.203,0.188 -0.176,-0.055 -1.008,0.051 -1.223,0.094 -0.215,0.043 -0.683,0.164 -0.871,0.367 -0.187,0.199 -0.461,0.375 -0.582,0.5 -0.121,0.121 -0.332,0.543 -0.332,0.543 0,0 0.199,-0.387 0.387,-0.539 0.187,-0.157 0.461,-0.418 0.586,-0.504 0.121,-0.086 0.664,-0.348 0.972,-0.367 0.309,-0.024 0.762,-0.094 0.864,-0.086 0.097,0.011 0.265,0.078 0.375,0.058 0.105,-0.023 0.949,-0.129 1.148,-0.179 0.199,-0.051 0.602,-0.184 0.602,-0.184 0,0 -0.16,0.227 -0.36,0.391 -0.203,0.164 -0.683,0.613 -0.937,0.875 -0.25,0.261 -0.727,0.894 -0.785,0.894 -0.055,0 -0.696,0.067 -1.199,0.223 -0.508,0.16 -0.696,0.172 -0.758,0.187 -0.063,0.016 -0.196,0.145 -0.285,0.164 -0.09,0.024 -0.305,0.079 -0.352,0.098 -0.047,0.016 -0.285,0.266 -0.395,0.336 -0.105,0.066 -0.214,0.168 -0.261,0.273 -0.043,0.106 -0.106,0.438 -0.106,0.438 0,0 0.074,-0.328 0.137,-0.418 0.066,-0.09 0.223,-0.25 0.297,-0.289 0.078,-0.039 0.262,-0.238 0.316,-0.274 0.055,-0.031 0.274,-0.027 0.356,-0.078 0.082,-0.047 0.254,-0.16 0.351,-0.187 0.098,-0.031 0.418,-0.067 0.524,-0.129 0.105,-0.063 0.535,-0.149 0.656,-0.176 0.117,-0.023 0.664,-0.074 0.687,-0.058 0.02,0.015 -0.339,0.41 -0.417,0.535 -0.079,0.121 -0.219,0.3 -0.329,0.488 -0.113,0.191 -0.496,0.715 -0.539,0.828 -0.039,0.117 -0.422,0.723 -0.465,0.754 -0.043,0.035 -0.32,-0.016 -0.371,-0.008 -0.05,0.008 -0.207,0 -0.269,-0.015 -0.086,-0.012 -0.219,-0.024 -0.328,0 -0.11,0.031 -0.371,0.086 -0.449,0.097 -0.075,0.012 -0.098,0.024 -0.118,0.137 -0.019,0.117 -0.015,0.246 -0.004,0.301 0.012,0.054 0.012,-0.117 0.012,-0.117 0,0 -0.058,-0.149 0.035,-0.211 0.098,-0.059 0.16,-0.118 0.293,-0.118 0.129,0 0.219,-0.031 0.309,-0.027 0.094,0 0.203,-0.027 0.305,-0.012 0.101,0.016 0.273,0.02 0.359,0.02 0.082,0 0.168,-0.027 0.176,0.012 0.007,0.039 -0.278,0.578 -0.293,0.671 -0.016,0.094 -0.289,0.723 -0.352,0.879 -0.058,0.153 -0.043,0.317 -0.094,0.43 -0.054,0.117 -0.191,0.625 -0.183,0.738 0.008,0.118 0.055,0.528 0.082,0.641 0.031,0.113 0.121,0.582 0.16,0.652 0.043,0.067 -0.016,-0.156 -0.016,-0.156 0,0 -0.105,-0.394 -0.125,-0.492 -0.019,-0.098 -0.086,-0.59 -0.066,-0.676 0.02,-0.082 0.148,-0.562 0.18,-0.656 0.027,-0.094 0.09,-0.461 0.148,-0.598 0.055,-0.133 0.27,-0.574 0.293,-0.672 0.023,-0.097 0.129,-0.289 0.184,-0.398 0.054,-0.109 0.175,-0.422 0.269,-0.481 0.09,-0.058 0.082,-0.074 0.082,-0.074 0,0 0.02,-0.125 0.071,-0.207 0.05,-0.086 0.242,-0.441 0.296,-0.504 0.051,-0.058 0.25,-0.363 0.336,-0.465 0.082,-0.105 0.336,-0.589 0.453,-0.714 0.122,-0.129 0.321,-0.364 0.391,-0.485 0.07,-0.121 0.524,-0.617 0.629,-0.734 0.105,-0.113 0.824,-0.856 1.172,-1.137 0.344,-0.285 0.707,-0.769 0.848,-0.957 0.14,-0.191 0.507,-0.617 0.542,-0.695 0.036,-0.078 -0.074,-0.114 -0.074,-0.114 z"
         style="fill:#1d5866;fill-opacity:1;fill-rule:evenodd;stroke:none"
         id="path5203"
         inkscape:connector-curvature="0" /><path
         d="m 57.512,45.905 c 0,0 -0.274,0.328 -0.403,0.46 -0.132,0.133 -0.207,0.274 -0.308,0.293 -0.098,0.02 -0.43,0.165 -0.594,0.188 -0.168,0.023 -0.852,0.23 -1.008,0.215 -0.156,-0.016 -0.859,0.121 -1.035,0.164 -0.18,0.047 -0.566,0.156 -0.699,0.285 -0.133,0.133 -0.34,0.258 -0.43,0.34 -0.086,0.078 -0.207,0.34 -0.207,0.34 0,0 0.113,-0.239 0.254,-0.344 0.141,-0.102 0.34,-0.277 0.434,-0.34 0.093,-0.058 0.523,-0.258 0.785,-0.297 0.265,-0.039 0.64,-0.121 0.73,-0.125 0.086,0 0.239,0.02 0.328,0 0.09,-0.023 0.797,-0.16 0.961,-0.207 0.164,-0.047 0.492,-0.156 0.492,-0.156 0,0 -0.105,0.141 -0.257,0.254 -0.149,0.109 -0.5,0.41 -0.68,0.582 -0.184,0.172 -0.504,0.574 -0.551,0.578 -0.047,0.008 -0.59,0.102 -1,0.238 -0.414,0.137 -0.574,0.16 -0.625,0.172 -0.051,0.016 -0.148,0.102 -0.222,0.121 -0.075,0.02 -0.25,0.074 -0.289,0.086 -0.04,0.016 -0.208,0.18 -0.29,0.227 -0.082,0.051 -0.164,0.117 -0.187,0.179 -0.023,0.063 -0.031,0.258 -0.031,0.258 0,0 0.015,-0.191 0.062,-0.25 0.043,-0.054 0.153,-0.16 0.215,-0.191 0.059,-0.027 0.188,-0.156 0.231,-0.184 0.042,-0.023 0.23,-0.039 0.292,-0.074 0.067,-0.035 0.2,-0.113 0.278,-0.141 0.078,-0.027 0.351,-0.074 0.43,-0.121 0.082,-0.043 0.441,-0.132 0.539,-0.156 0.097,-0.027 0.562,-0.105 0.582,-0.098 0.023,0.008 -0.235,0.262 -0.286,0.34 -0.046,0.078 -0.144,0.192 -0.214,0.309 -0.067,0.117 -0.329,0.449 -0.348,0.519 -0.016,0.071 -0.262,0.45 -0.293,0.473 -0.035,0.02 -0.281,0.02 -0.32,0.027 -0.043,0.008 -0.18,0.02 -0.235,0.016 -0.074,0 -0.187,0.008 -0.277,0.031 -0.094,0.028 -0.313,0.082 -0.375,0.098 -0.063,0.012 -0.082,0.023 -0.082,0.09 0,0.062 0.019,0.136 0.039,0.168 0.016,0.031 -0.004,-0.071 -0.004,-0.071 0,0 -0.074,-0.078 0,-0.121 0.074,-0.043 0.121,-0.082 0.234,-0.093 0.11,-0.012 0.184,-0.036 0.262,-0.043 0.082,-0.008 0.172,-0.036 0.258,-0.036 0.09,0 0.238,-0.011 0.312,-0.019 0.071,-0.008 0.141,-0.031 0.153,-0.008 0.012,0.02 -0.156,0.352 -0.16,0.406 0,0.055 -0.149,0.438 -0.18,0.532 -0.031,0.089 0.008,0.183 -0.023,0.254 -0.032,0.07 -0.079,0.371 -0.055,0.433 0.023,0.067 0.117,0.297 0.16,0.356 0.039,0.062 0.184,0.324 0.227,0.355 0.046,0.035 -0.036,-0.082 -0.036,-0.082 0,0 -0.144,-0.215 -0.175,-0.27 -0.032,-0.054 -0.157,-0.328 -0.149,-0.378 0.004,-0.051 0.051,-0.332 0.063,-0.391 0.011,-0.055 0.015,-0.27 0.047,-0.352 0.031,-0.082 0.152,-0.351 0.156,-0.406 0.008,-0.058 0.074,-0.18 0.105,-0.246 0.032,-0.066 0.09,-0.254 0.164,-0.297 0.071,-0.039 0.063,-0.047 0.063,-0.047 0,0 0,-0.074 0.031,-0.125 0.031,-0.054 0.149,-0.273 0.184,-0.312 0.035,-0.039 0.164,-0.231 0.222,-0.297 0.059,-0.066 0.207,-0.363 0.293,-0.449 0.086,-0.082 0.227,-0.235 0.27,-0.309 0.043,-0.074 0.363,-0.398 0.437,-0.473 0.078,-0.074 0.59,-0.562 0.848,-0.753 0.258,-0.192 0.504,-0.5 0.598,-0.622 0.097,-0.121 0.351,-0.394 0.371,-0.441 0.015,-0.047 -0.078,-0.059 -0.078,-0.059 z"
         style="fill:#1d5866;fill-opacity:1;fill-rule:evenodd;stroke:none"
         id="path5205"
         inkscape:connector-curvature="0" /><path
         d="m 59.312,26.158 c 0,0 1.192,0.61 1.719,0.84 0.531,0.231 0.946,0.539 1.211,0.489 0.266,-0.051 1.278,0.011 1.703,-0.098 0.422,-0.109 2.371,-0.242 2.711,-0.441 0.34,-0.2 2.199,-0.547 2.692,-0.61 0.492,-0.058 1.578,-0.148 2.109,0.07 0.527,0.219 1.227,0.352 1.566,0.481 0.34,0.129 1.059,0.707 1.059,0.707 0,0 -0.668,-0.527 -1.172,-0.668 -0.5,-0.141 -1.254,-0.41 -1.578,-0.48 C 71.012,26.381 69.68,26.28 69,26.44 c -0.68,0.16 -1.703,0.32 -1.91,0.398 -0.207,0.082 -0.528,0.301 -0.774,0.328 -0.246,0.032 -2.128,0.383 -2.589,0.422 -0.465,0.039 -1.411,0.07 -1.411,0.07 0,0 0.485,0.278 1.024,0.426 0.539,0.153 1.859,0.61 2.57,0.891 0.707,0.277 2.133,1.047 2.258,1.015 0.121,-0.027 1.539,-0.328 2.73,-0.378 1.192,-0.047 1.606,-0.149 1.75,-0.157 0.141,-0.011 0.508,0.118 0.715,0.098 0.211,-0.02 0.711,-0.059 0.825,-0.059 0.113,0 0.785,0.27 1.058,0.321 0.274,0.047 0.574,0.148 0.734,0.297 0.165,0.152 0.512,0.668 0.512,0.668 0,0 -0.367,-0.508 -0.566,-0.618 -0.199,-0.109 -0.633,-0.281 -0.821,-0.3 -0.191,-0.02 -0.71,-0.239 -0.851,-0.258 -0.141,-0.02 -0.606,0.121 -0.813,0.09 -0.207,-0.032 -0.652,-0.11 -0.879,-0.102 -0.226,0.012 -0.945,0.152 -1.21,0.109 -0.266,-0.039 -1.247,0.09 -1.52,0.122 -0.273,0.031 -1.484,0.289 -1.523,0.328 -0.036,0.043 0.992,0.48 1.238,0.64 0.246,0.16 0.66,0.367 1.019,0.617 0.36,0.25 1.524,0.891 1.684,1.059 0.16,0.172 1.371,0.949 1.484,0.981 0.114,0.027 0.68,-0.231 0.793,-0.25 0.114,-0.02 0.446,-0.125 0.567,-0.192 0.176,-0.074 0.453,-0.18 0.711,-0.199 0.254,-0.02 0.859,-0.09 1.027,-0.121 0.172,-0.028 0.227,-0.02 0.34,0.16 0.113,0.18 0.191,0.398 0.199,0.5 0.012,0.102 -0.105,-0.191 -0.105,-0.191 0,0 0.039,-0.29 -0.207,-0.329 -0.247,-0.039 -0.414,-0.097 -0.7,-0.019 -0.281,0.078 -0.492,0.09 -0.687,0.148 -0.199,0.063 -0.453,0.082 -0.664,0.172 -0.207,0.09 -0.574,0.207 -0.754,0.258 -0.18,0.051 -0.387,0.063 -0.379,0.129 0.008,0.07 0.965,0.801 1.059,0.949 0.093,0.152 1.086,1.039 1.312,1.258 0.227,0.219 0.293,0.508 0.484,0.668 0.188,0.16 0.801,0.93 0.86,1.129 0.055,0.199 0.215,0.918 0.226,1.129 0.008,0.207 0.114,1.058 0.067,1.195 -0.047,0.141 -0.059,-0.269 -0.059,-0.269 0,0 -0.027,-0.727 -0.047,-0.907 -0.019,-0.179 -0.187,-1.047 -0.281,-1.179 -0.098,-0.129 -0.684,-0.856 -0.805,-0.997 -0.125,-0.14 -0.492,-0.718 -0.699,-0.91 -0.207,-0.187 -0.945,-0.797 -1.058,-0.945 -0.114,-0.152 -0.465,-0.41 -0.653,-0.559 -0.187,-0.152 -0.64,-0.601 -0.879,-0.64 -0.234,-0.039 -0.226,-0.071 -0.226,-0.071 0,0 -0.121,-0.199 -0.285,-0.308 C 72.73,32.948 72.09,32.467 71.938,32.397 71.785,32.33 71.164,31.94 70.918,31.819 70.672,31.698 69.82,31.041 69.48,30.901 69.141,30.76 68.566,30.49 68.336,30.33 c -0.227,-0.156 -1.52,-0.707 -1.82,-0.836 -0.305,-0.129 -2.317,-0.929 -3.243,-1.187 -0.925,-0.262 -2.011,-0.848 -2.437,-1.078 -0.426,-0.231 -1.484,-0.719 -1.609,-0.828 -0.122,-0.11 0.085,-0.243 0.085,-0.243 z"
         style="fill:#1d5866;fill-opacity:1;fill-rule:evenodd;stroke:none"
         id="path5207"
         inkscape:connector-curvature="0" /><path
         d="m 59.258,30.166 c 0,0 1.023,0.676 1.48,0.938 0.461,0.261 0.809,0.59 1.055,0.566 0.246,-0.023 1.164,0.125 1.566,0.063 0.399,-0.063 2.192,-0.008 2.524,-0.164 0.332,-0.157 2.074,-0.313 2.527,-0.325 0.457,-0.011 1.461,0.008 1.918,0.258 0.461,0.254 1.086,0.438 1.383,0.59 0.297,0.152 0.891,0.754 0.891,0.754 0,0 -0.555,-0.551 -0.997,-0.727 -0.445,-0.175 -1.105,-0.496 -1.39,-0.593 -0.289,-0.094 -1.496,-0.309 -2.133,-0.219 -0.641,0.086 -1.59,0.144 -1.789,0.199 -0.199,0.055 -0.516,0.231 -0.742,0.238 -0.231,0.004 -1.985,0.161 -2.414,0.157 -0.426,-0.008 -1.293,-0.067 -1.293,-0.067 0,0 0.41,0.305 0.886,0.496 0.477,0.188 1.633,0.735 2.254,1.063 0.618,0.324 1.836,1.172 1.954,1.152 0.113,-0.015 1.441,-0.168 2.535,-0.105 1.093,0.062 1.484,0.008 1.617,0.008 0.129,0.007 0.453,0.16 0.644,0.16 0.192,0 0.657,0.007 0.758,0.019 0.106,0.008 0.688,0.321 0.934,0.395 0.246,0.07 0.512,0.191 0.64,0.343 0.129,0.157 0.395,0.672 0.395,0.672 0,0 -0.281,-0.507 -0.453,-0.629 -0.168,-0.121 -0.547,-0.316 -0.719,-0.355 -0.168,-0.035 -0.621,-0.285 -0.75,-0.316 -0.125,-0.032 -0.562,0.054 -0.75,0.007 -0.187,-0.046 -0.586,-0.16 -0.793,-0.171 -0.207,-0.012 -0.879,0.054 -1.117,-0.008 -0.238,-0.063 -1.149,-0.028 -1.402,-0.028 -0.254,0 -1.391,0.137 -1.426,0.172 -0.039,0.031 0.851,0.535 1.062,0.707 0.207,0.172 0.563,0.407 0.864,0.672 0.3,0.262 1.296,0.965 1.421,1.137 0.129,0.176 1.153,1.012 1.25,1.047 0.102,0.039 0.649,-0.153 0.754,-0.16 0.106,-0.008 0.422,-0.075 0.539,-0.125 0.172,-0.055 0.434,-0.125 0.668,-0.122 0.239,0.008 0.797,-0.007 0.957,-0.019 0.157,-0.012 0.207,0 0.293,0.18 0.082,0.179 0.129,0.39 0.125,0.484 0,0.094 -0.074,-0.187 -0.074,-0.187 0,0 0.067,-0.266 -0.152,-0.325 -0.223,-0.058 -0.371,-0.133 -0.637,-0.082 -0.269,0.047 -0.461,0.039 -0.648,0.078 -0.188,0.036 -0.422,0.032 -0.621,0.098 -0.2,0.063 -0.551,0.141 -0.719,0.172 -0.172,0.031 -0.363,0.019 -0.36,0.086 0,0.066 0.793,0.832 0.864,0.98 0.07,0.149 0.883,1.071 1.066,1.293 0.184,0.227 0.211,0.504 0.367,0.668 0.157,0.168 0.633,0.942 0.664,1.133 0.032,0.191 0.098,0.875 0.086,1.07 -0.015,0.2 -0.011,1 -0.07,1.125 -0.059,0.125 -0.023,-0.257 -0.023,-0.257 0,0 0.054,-0.68 0.054,-0.852 0.004,-0.168 -0.058,-0.996 -0.129,-1.125 -0.074,-0.129 -0.531,-0.863 -0.629,-1.004 -0.097,-0.141 -0.371,-0.715 -0.539,-0.91 -0.172,-0.195 -0.777,-0.832 -0.867,-0.981 -0.086,-0.148 -0.379,-0.425 -0.535,-0.582 -0.156,-0.156 -0.52,-0.617 -0.734,-0.675 -0.211,-0.059 -0.2,-0.086 -0.2,-0.086 0,0 -0.089,-0.196 -0.226,-0.313 -0.133,-0.117 -0.668,-0.621 -0.801,-0.703 -0.129,-0.078 -0.656,-0.496 -0.867,-0.633 -0.215,-0.133 -0.918,-0.824 -1.215,-0.984 -0.297,-0.164 -0.793,-0.465 -0.984,-0.637 -0.188,-0.168 -1.313,-0.797 -1.575,-0.945 -0.261,-0.149 -2.015,-1.078 -2.835,-1.402 -0.817,-0.329 -1.747,-0.977 -2.11,-1.231 -0.367,-0.25 -1.281,-0.805 -1.379,-0.918 -0.101,-0.113 0.102,-0.215 0.102,-0.215 z"
         style="fill:#1d5866;fill-opacity:1;fill-rule:evenodd;stroke:none"
         id="path5209"
         inkscape:connector-curvature="0" /><path
         d="m 58.406,34.987 c 0,0 0.797,0.574 1.153,0.793 0.355,0.222 0.629,0.5 0.816,0.48 0.184,-0.023 0.883,0.102 1.184,0.043 0.3,-0.055 1.656,-0.016 1.898,-0.152 0.246,-0.133 1.551,-0.274 1.895,-0.286 0.343,-0.011 1.101,-0.007 1.457,0.208 0.359,0.214 0.836,0.371 1.066,0.496 0.23,0.129 0.699,0.64 0.699,0.64 0,0 -0.441,-0.469 -0.781,-0.617 -0.34,-0.148 -0.852,-0.418 -1.07,-0.496 -0.219,-0.078 -1.137,-0.254 -1.618,-0.18 -0.48,0.078 -1.195,0.133 -1.339,0.18 -0.149,0.047 -0.383,0.199 -0.555,0.207 -0.172,0.008 -1.488,0.145 -1.813,0.145 -0.324,0 -0.98,-0.047 -0.98,-0.047 0,0 0.324,0.257 0.687,0.414 0.368,0.16 1.262,0.621 1.743,0.894 0.476,0.274 1.429,0.992 1.515,0.977 0.086,-0.016 1.082,-0.149 1.91,-0.102 0.829,0.047 1.122,0 1.219,0 0.102,0 0.348,0.133 0.492,0.129 0.149,0 0.496,0.008 0.575,0.012 0.078,0.012 0.531,0.273 0.718,0.332 0.188,0.062 0.391,0.164 0.496,0.293 0.106,0.133 0.325,0.57 0.325,0.57 0,0 -0.235,-0.433 -0.364,-0.535 -0.132,-0.102 -0.425,-0.27 -0.558,-0.297 -0.129,-0.031 -0.481,-0.242 -0.578,-0.269 -0.094,-0.028 -0.422,0.05 -0.567,0.011 -0.14,-0.039 -0.445,-0.132 -0.605,-0.144 -0.156,-0.008 -0.66,0.051 -0.84,0 -0.184,-0.051 -0.871,-0.02 -1.063,-0.016 -0.191,0.008 -1.039,0.125 -1.07,0.153 -0.027,0.027 0.668,0.453 0.828,0.597 0.164,0.145 0.442,0.344 0.68,0.567 0.238,0.226 1.012,0.82 1.117,0.964 0.102,0.149 0.906,0.856 0.984,0.887 0.075,0.035 0.481,-0.133 0.559,-0.14 0.082,-0.008 0.317,-0.067 0.402,-0.11 0.125,-0.047 0.325,-0.109 0.5,-0.105 0.18,0 0.602,-0.008 0.719,-0.02 0.121,-0.012 0.16,0 0.231,0.152 0.07,0.149 0.113,0.333 0.113,0.411 0.004,0.082 -0.063,-0.157 -0.063,-0.157 0,0 0.039,-0.23 -0.128,-0.277 -0.168,-0.051 -0.286,-0.113 -0.485,-0.07 -0.199,0.043 -0.344,0.039 -0.484,0.07 -0.141,0.035 -0.317,0.031 -0.465,0.09 -0.149,0.055 -0.41,0.121 -0.539,0.148 -0.125,0.028 -0.27,0.02 -0.266,0.078 0,0.055 0.629,0.704 0.688,0.832 0.058,0.125 0.707,0.903 0.851,1.094 0.149,0.192 0.18,0.426 0.305,0.571 0.125,0.14 0.512,0.796 0.543,0.957 0.031,0.164 0.109,0.75 0.105,0.914 -0.003,0.168 0.028,0.851 -0.011,0.961 -0.039,0.105 -0.024,-0.219 -0.024,-0.219 0,0 0.012,-0.582 0.008,-0.727 C 70.617,46.147 70.539,45.444 70.48,45.334 70.418,45.221 70.047,44.6 69.969,44.479 69.891,44.358 69.66,43.873 69.527,43.705 69.391,43.541 68.91,43.002 68.836,42.873 c -0.07,-0.129 -0.301,-0.359 -0.426,-0.492 -0.121,-0.133 -0.418,-0.523 -0.578,-0.574 -0.16,-0.047 -0.152,-0.07 -0.152,-0.07 0,0 -0.078,-0.168 -0.184,-0.266 -0.105,-0.102 -0.527,-0.527 -0.629,-0.594 -0.101,-0.066 -0.515,-0.422 -0.683,-0.535 -0.164,-0.113 -0.723,-0.699 -0.954,-0.836 -0.226,-0.137 -0.613,-0.394 -0.765,-0.539 -0.149,-0.141 -1.02,-0.672 -1.223,-0.797 -0.203,-0.129 -1.562,-0.91 -2.191,-1.183 -0.629,-0.274 -1.356,-0.825 -1.641,-1.036 -0.281,-0.214 -0.992,-0.679 -1.074,-0.777 -0.078,-0.098 0.07,-0.184 0.07,-0.184 z"
         style="fill:#1d5866;fill-opacity:1;fill-rule:evenodd;stroke:none"
         id="path5211"
         inkscape:connector-curvature="0" /><path
         d="m 57.973,40.506 c 0,0 0.523,0.449 0.761,0.629 0.235,0.18 0.411,0.391 0.543,0.387 0.133,0 0.618,0.133 0.836,0.113 0.215,-0.02 1.172,0.098 1.356,0.023 0.183,-0.078 1.121,-0.085 1.363,-0.074 0.246,0.016 0.781,0.074 1.02,0.246 0.234,0.172 0.562,0.313 0.718,0.418 0.153,0.106 0.45,0.492 0.45,0.492 0,0 -0.278,-0.355 -0.508,-0.48 -0.231,-0.129 -0.574,-0.352 -0.727,-0.418 -0.148,-0.07 -0.785,-0.258 -1.133,-0.234 -0.343,0.019 -0.855,0.007 -0.961,0.031 -0.109,0.023 -0.285,0.113 -0.406,0.105 -0.121,-0.007 -1.066,0 -1.297,-0.023 -0.226,-0.023 -0.691,-0.098 -0.691,-0.098 0,0 0.211,0.2 0.457,0.336 0.25,0.133 0.851,0.516 1.168,0.739 0.32,0.226 0.941,0.789 1.004,0.781 0.062,-0.004 0.781,-0.028 1.363,0.058 0.582,0.09 0.793,0.078 0.863,0.086 0.071,0.008 0.239,0.114 0.34,0.125 0.102,0.008 0.352,0.035 0.406,0.047 0.055,0.012 0.356,0.227 0.485,0.281 0.129,0.051 0.265,0.137 0.332,0.235 0.062,0.097 0.183,0.418 0.183,0.418 0,0 -0.132,-0.317 -0.218,-0.395 -0.086,-0.082 -0.282,-0.215 -0.371,-0.246 -0.09,-0.031 -0.325,-0.203 -0.391,-0.226 -0.066,-0.024 -0.305,0.007 -0.402,-0.032 -0.098,-0.035 -0.305,-0.121 -0.418,-0.14 -0.11,-0.016 -0.473,-0.008 -0.598,-0.055 -0.125,-0.051 -0.613,-0.074 -0.75,-0.086 -0.137,-0.008 -0.746,0.016 -0.77,0.035 -0.019,0.016 0.442,0.36 0.543,0.473 0.106,0.109 0.289,0.266 0.442,0.437 0.152,0.176 0.66,0.641 0.723,0.75 0.062,0.11 0.578,0.657 0.628,0.684 0.055,0.027 0.352,-0.063 0.411,-0.063 0.054,0 0.226,-0.023 0.293,-0.046 0.093,-0.028 0.234,-0.055 0.363,-0.043 0.125,0.015 0.426,0.035 0.508,0.035 0.086,0 0.113,0.012 0.152,0.121 0.039,0.113 0.055,0.238 0.051,0.297 -0.004,0.054 -0.032,-0.117 -0.032,-0.117 0,0 0.043,-0.153 -0.074,-0.2 -0.113,-0.047 -0.191,-0.097 -0.336,-0.082 -0.144,0.016 -0.246,0 -0.347,0.016 -0.102,0.016 -0.231,0 -0.34,0.031 -0.106,0.028 -0.297,0.059 -0.391,0.067 -0.09,0.011 -0.191,-0.004 -0.195,0.035 0,0.039 0.398,0.535 0.43,0.625 0.031,0.094 0.433,0.679 0.523,0.824 0.09,0.141 0.098,0.309 0.172,0.414 0.078,0.106 0.308,0.59 0.316,0.703 0.012,0.117 0.024,0.528 0.008,0.645 -0.012,0.117 -0.039,0.593 -0.074,0.664 -0.035,0.074 -0.004,-0.153 -0.004,-0.153 0,0 0.051,-0.402 0.059,-0.503 0.007,-0.102 0.003,-0.598 -0.032,-0.676 -0.035,-0.082 -0.25,-0.539 -0.297,-0.629 -0.05,-0.09 -0.175,-0.445 -0.257,-0.57 -0.086,-0.122 -0.387,-0.532 -0.43,-0.625 -0.043,-0.094 -0.188,-0.27 -0.266,-0.372 -0.078,-0.101 -0.257,-0.39 -0.367,-0.437 -0.113,-0.043 -0.105,-0.059 -0.105,-0.059 0,0 -0.043,-0.125 -0.11,-0.199 -0.07,-0.078 -0.336,-0.402 -0.406,-0.457 -0.066,-0.051 -0.332,-0.328 -0.441,-0.418 -0.11,-0.09 -0.461,-0.535 -0.614,-0.644 -0.152,-0.114 -0.41,-0.317 -0.504,-0.426 -0.097,-0.11 -0.675,-0.539 -0.812,-0.641 -0.133,-0.101 -1.039,-0.738 -1.465,-0.972 -0.426,-0.231 -0.902,-0.665 -1.086,-0.833 -0.187,-0.167 -0.656,-0.539 -0.707,-0.613 -0.047,-0.07 0.063,-0.121 0.063,-0.121 z"
         style="fill:#1d5866;fill-opacity:1;fill-rule:evenodd;stroke:none"
         id="path5213"
         inkscape:connector-curvature="0" /><path
         d="m 58.25,45.951 c 0,0 0.262,0.321 0.387,0.45 0.125,0.129 0.199,0.269 0.293,0.289 0.097,0.015 0.41,0.16 0.57,0.179 0.16,0.024 0.816,0.227 0.965,0.211 0.148,-0.015 0.82,0.118 0.992,0.16 0.172,0.043 0.539,0.153 0.668,0.282 0.125,0.125 0.328,0.25 0.41,0.328 0.086,0.078 0.199,0.328 0.199,0.328 0,0 -0.109,-0.23 -0.242,-0.332 -0.137,-0.102 -0.324,-0.27 -0.414,-0.328 -0.09,-0.063 -0.504,-0.254 -0.754,-0.293 -0.25,-0.039 -0.613,-0.121 -0.695,-0.121 -0.086,0 -0.231,0.019 -0.317,0 -0.085,-0.024 -0.765,-0.156 -0.921,-0.203 -0.157,-0.047 -0.469,-0.153 -0.469,-0.153 0,0 0.101,0.137 0.242,0.246 0.145,0.11 0.481,0.403 0.656,0.571 0.172,0.164 0.481,0.558 0.524,0.566 0.047,0.004 0.566,0.094 0.961,0.227 0.394,0.132 0.547,0.156 0.597,0.172 0.047,0.015 0.141,0.097 0.211,0.117 0.071,0.019 0.242,0.07 0.278,0.086 0.035,0.011 0.199,0.172 0.277,0.218 0.078,0.047 0.156,0.114 0.18,0.176 0.019,0.063 0.031,0.254 0.031,0.254 0,0 -0.02,-0.191 -0.059,-0.246 C 62.777,49.08 62.672,48.979 62.613,48.948 62.555,48.92 62.434,48.795 62.391,48.772 62.348,48.748 62.172,48.729 62.109,48.698 62.047,48.662 61.922,48.584 61.844,48.561 61.77,48.533 61.512,48.487 61.434,48.44 61.355,48.397 61.012,48.311 60.918,48.287 60.82,48.26 60.379,48.186 60.359,48.194 c -0.019,0.004 0.227,0.257 0.274,0.332 0.047,0.074 0.14,0.187 0.203,0.3 0.066,0.114 0.316,0.438 0.336,0.508 0.016,0.067 0.25,0.438 0.281,0.457 0.031,0.024 0.266,0.02 0.309,0.028 0.039,0.011 0.168,0.023 0.218,0.019 0.075,0 0.184,0.008 0.27,0.027 0.086,0.028 0.297,0.083 0.355,0.094 0.063,0.016 0.079,0.024 0.079,0.09 0,0.063 -0.016,0.137 -0.036,0.164 -0.015,0.027 0.008,-0.066 0.008,-0.066 0,0 0.071,-0.078 -0.004,-0.117 -0.07,-0.043 -0.113,-0.082 -0.222,-0.094 -0.106,-0.012 -0.176,-0.035 -0.254,-0.043 -0.074,-0.008 -0.16,-0.031 -0.246,-0.031 -0.086,0 -0.227,-0.012 -0.297,-0.02 -0.067,-0.012 -0.137,-0.031 -0.149,-0.012 -0.011,0.02 0.153,0.344 0.153,0.399 0,0.054 0.144,0.429 0.175,0.519 0.028,0.09 -0.007,0.18 0.02,0.246 0.031,0.071 0.074,0.364 0.055,0.426 -0.024,0.063 -0.114,0.285 -0.153,0.348 -0.039,0.058 -0.175,0.312 -0.218,0.347 -0.043,0.032 0.035,-0.085 0.035,-0.085 0,0 0.137,-0.207 0.168,-0.262 0.027,-0.055 0.148,-0.32 0.14,-0.367 -0.004,-0.051 -0.047,-0.328 -0.058,-0.383 -0.012,-0.055 -0.016,-0.262 -0.043,-0.344 -0.031,-0.078 -0.149,-0.34 -0.153,-0.398 -0.007,-0.055 -0.07,-0.172 -0.101,-0.239 -0.031,-0.062 -0.086,-0.246 -0.156,-0.289 -0.067,-0.039 -0.059,-0.047 -0.059,-0.047 0,0 0,-0.07 -0.031,-0.121 -0.028,-0.05 -0.141,-0.265 -0.176,-0.304 -0.035,-0.039 -0.156,-0.227 -0.215,-0.289 -0.055,-0.067 -0.199,-0.356 -0.281,-0.438 -0.082,-0.082 -0.211,-0.23 -0.254,-0.301 -0.043,-0.074 -0.352,-0.39 -0.422,-0.465 -0.07,-0.074 -0.562,-0.546 -0.808,-0.734 -0.25,-0.187 -0.485,-0.488 -0.575,-0.605 -0.089,-0.118 -0.336,-0.387 -0.355,-0.434 -0.016,-0.043 0.078,-0.055 0.078,-0.055 z"
         style="fill:#1d5866;fill-opacity:1;fill-rule:evenodd;stroke:none"
         id="path5215"
         inkscape:connector-curvature="0" /><path
         d="m 58.695,26.096 c -0.117,1.238 -0.007,2.422 0.024,3.922 0.027,1.5 -0.817,3.89 -0.93,5.168 -0.113,1.277 -0.43,3.371 -0.422,5.019 0.012,1.649 0.321,4.61 0.434,6.145 0.113,1.539 0.695,6.484 0.664,7.965 -0.027,1.48 -0.047,1.984 0.183,3.543 0.231,1.554 1.235,2.015 1.844,2.574 0.457,0.422 2.34,0.887 2.34,0.887 0,0 -0.516,-0.106 -1.848,-0.868 C 60.352,60.1 59.863,59.639 59.504,59.182 59.195,58.768 59.02,58.299 58.863,57.608 58.73,57.006 58.809,54.537 58.77,53.389 58.734,52.24 58.145,47.205 58.059,46.573 c -0.086,-0.629 -0.442,-4.555 -0.414,-5.461 0.039,-1.149 0.289,-3.555 0.402,-5.094 0.113,-1.535 0.898,-4.164 0.898,-5.223 0,-1.055 0.211,-3.629 0.172,-4.183 -0.035,-0.555 -0.039,-0.872 -0.144,-0.907 -0.207,-0.101 -0.239,0.047 -0.278,0.391 z"
         style="fill:#1d5866;fill-opacity:1;fill-rule:evenodd;stroke:none"
         id="path5217"
         inkscape:connector-curvature="0" /></g></g></svg>