<?xml version="1.0" encoding="UTF-8" standalone="no"?>
<!-- Created with Inkscape (http://www.inkscape.org/) -->

<svg
   xmlns:dc="http://purl.org/dc/elements/1.1/"
   xmlns:cc="http://creativecommons.org/ns#"
   xmlns:rdf="http://www.w3.org/1999/02/22-rdf-syntax-ns#"
   xmlns:svg="http://www.w3.org/2000/svg"
   xmlns="http://www.w3.org/2000/svg"
   xmlns:sodipodi="http://sodipodi.sourceforge.net/DTD/sodipodi-0.dtd"
   xmlns:inkscape="http://www.inkscape.org/namespaces/inkscape"
   version="1.1"
   id="svg2110"
   width="119.21249"
   height="124.11221"
   viewBox="0 0 119.2125 124.11221"
   sodipodi:docname="logo-3.svg"
   inkscape:version="0.92.2 5c3e80d, 2017-08-06">
  <metadata
     id="metadata2116">
    <rdf:RDF>
      <cc:Work
         rdf:about="">
        <dc:format>image/svg+xml</dc:format>
        <dc:type
           rdf:resource="http://purl.org/dc/dcmitype/StillImage" />
        <dc:title></dc:title>
      </cc:Work>
    </rdf:RDF>
  </metadata>
  <defs
     id="defs2114" />
  <sodipodi:namedview
     pagecolor="#ffffff"
     bordercolor="#666666"
     borderopacity="1"
     objecttolerance="10"
     gridtolerance="10"
     guidetolerance="10"
     inkscape:pageopacity="0"
     inkscape:pageshadow="2"
     inkscape:window-width="1160"
     inkscape:window-height="1055"
     id="namedview2112"
     showgrid="false"
     fit-margin-top="0"
     fit-margin-left="0"
     fit-margin-right="0"
     fit-margin-bottom="0"
     inkscape:zoom="2.3726882"
     inkscape:cx="64.751673"
     inkscape:cy="34.171788"
     inkscape:window-x="0"
     inkscape:window-y="25"
     inkscape:window-maximized="0"
     inkscape:current-layer="svg2110" />
  <path
     style="fill:#a43a2c;fill-opacity:1;stroke-width:1"
     d="m 51.383391,123.60216 c -1.552941,-0.33681 -4.902674,-1.03593 -7.44385,-1.5536 -3.287608,-0.66974 -5.138598,-1.18794 -6.417113,-1.79652 -0.988235,-0.47041 -2.344261,-1.0518 -3.013389,-1.29198 -0.669127,-0.24018 -1.285501,-0.54818 -1.369717,-0.68445 -0.219265,-0.35478 0.623836,-1.5469 1.200693,-1.69775 0.267974,-0.0701 0.487226,-0.30518 0.487226,-0.52244 0,-0.57804 1.218843,-2.08001 2.147379,-2.64621 0.96798,-0.59024 3.748315,-0.65962 7.773754,-0.19398 l 2.605628,0.3014 4.581538,-1.05362 c 2.519849,-0.57949 5.737445,-1.22661 7.150225,-1.43805 2.98081,-0.44611 8.85378,-1.94362 8.85378,-2.25756 0,-0.11786 -0.2599,-0.21773 -0.57754,-0.22192 -0.31765,-0.004 -2.20595,-0.16614 -4.19622,-0.35988 -3.96619,-0.38607 -5.01791,-0.75203 -6.44045,-2.24102 -2.313359,-2.42143 -1.612531,-4.67026 1.71578,-5.50559 1.90706,-0.478642 2.86498,-0.4245 9.75511,0.55128 l 4.49198,0.63616 4.23529,-0.54526 c 5.08367,-0.65447 6.72164,-0.57685 11.85853,0.56195 l 3.77297,0.83644 0.89151,-0.62098 c 3.8456,-2.678672 5.26753,-3.861702 7.495695,-6.236342 l 2.54814,-2.71565 6.41711,2.45729 c 3.52941,1.3515 6.45001,2.48882 6.49022,2.52737 0.0402,0.0386 -1.99226,2.135592 -4.5166,4.660092 -4.20383,4.2041 -6.72127,6.96288 -10.58669,11.60157 -0.78425,0.94114 -1.912865,2.08258 -2.508045,2.53654 -1.97952,1.50983 -8.46356,3.25302 -22.23524,5.97781 l -6.66117,1.31794 -4.5046,-0.0779 c -2.47754,-0.0428 -6.00621,0.009 -7.84151,0.11466 -2.996813,0.17293 -3.624656,0.13015 -6.160424,-0.41982 z"
     id="path2677"
     inkscape:connector-curvature="0" />
  <path
     style="fill:#a43a2c;fill-opacity:1;stroke-width:1"
     d="m 29.57438,121.35839 c -2.249691,-0.32773 -3.708444,-0.87916 -6.052284,-2.28785 -3.831317,-2.30269 -6.445189,-4.72299 -9.418111,-8.72065 -3.070524,-4.1289 -5.3967535,-6.89046 -8.3760165,-9.94351 -1.410471,-1.445412 -2.515013,-2.673422 -2.454538,-2.728912 0.06048,-0.0555 3.228675,-1.04399 7.0404405,-2.19667 3.811765,-1.15268 7.071212,-2.14317 7.243213,-2.2011 0.17796,-0.0599 0.709299,0.64935 1.232954,1.64587 1.805826,3.43649 4.615315,6.200522 6.700037,6.591612 0.805386,0.1511 1.133011,0.008 3.129067,-1.36434 2.608592,-1.793792 10.225052,-6.050012 12.325317,-6.887622 0.839728,-0.33489 2.866008,-0.76149 4.791873,-1.00885 1.835294,-0.23572 4.318717,-0.6564 5.518717,-0.93484 2.599439,-0.60315 4.442685,-0.68994 4.990856,-0.235 0.47266,0.39227 0.50939,1.70878 0.0696,2.49314 -0.789009,1.40709 -2.148546,2.04503 -6.728875,3.15741 -6.790766,1.64922 -10.371687,4.402142 -8.278075,6.363982 0.838349,0.78559 4.073403,2.24564 6.737968,3.04101 1.880876,0.56143 2.927882,0.7042 5.634376,0.7683 2.869866,0.068 3.518906,0.16506 4.748666,0.71036 1.24889,0.55379 4.26172,1.00762 8.01407,1.20719 0.89581,0.0476 -5.44288,1.56511 -8.43418,2.01913 -1.86156,0.28254 -4.79806,0.87054 -6.525555,1.30667 -3.751197,0.94703 -4.267934,0.97849 -8.571067,0.52184 -4.299622,-0.45628 -5.387531,-0.2933 -6.894063,1.0328 -0.639489,0.5629 -1.232972,1.24484 -1.31885,1.51542 -0.08588,0.27058 -0.56283,0.89865 -1.059892,1.39571 -1.319635,1.31964 -1.138529,1.91949 0.802216,2.65703 0.847059,0.32191 2.146922,0.89966 2.888584,1.28388 l 1.348479,0.69859 -1.220137,0.17002 c -1.694377,0.23611 -6.046786,0.19713 -7.88476,-0.0706 z"
     id="path2675"
     inkscape:connector-curvature="0" />
  <path
     style="fill:#a43a2c;fill-opacity:1;stroke-width:1"
     d="m 57.384205,96.832918 c -0.19456,-0.0226 -1.20399,-0.17974 -2.243171,-0.34925 l -1.889416,-0.30821 0.99102,-0.4709 c 1.742287,-0.82786 2.598187,-1.85525 2.704157,-3.24596 0.0541,-0.71019 0.17324,-0.82857 0.97106,-0.96503 2.04631,-0.34998 4.63131,-1.01425 4.63131,-1.1901 0,-0.10332 -0.89109,-0.27135 -1.98019,-0.37341 -1.69069,-0.15843 -2.08473,-0.29009 -2.69519,-0.90055 -0.86382,-0.86382 -0.902,-1.36444 -0.14451,-1.89501 0.67096,-0.46996 2.25913,-0.50974 4.87358,-0.12209 1.27957,0.18972 2.58918,0.19834 4.14088,0.0273 1.87451,-0.20668 2.64514,-0.17196 4.42844,0.19954 1.86592,0.38871 2.21992,0.40063 2.60758,0.0878 0.41386,-0.33397 0.40457,-0.3499 -0.12003,-0.20589 -0.31272,0.0858 -1.47152,-0.0379 -2.57512,-0.2751 -1.62289,-0.34874 -2.45959,-0.38638 -4.37607,-0.19686 -1.68045,0.16617 -3.09634,0.13924 -4.86873,-0.0926 -1.37456,-0.1798 -2.84572,-0.25812 -3.26925,-0.17404 -1.46111,0.29007 -2.0239,1.26211 -1.40273,2.42277 0.2378,0.44435 0.17656,0.4965 -0.5831,0.4965 -1.123598,0 -4.104038,-0.83737 -4.947496,-1.39003 -1.241508,-0.81347 -0.253034,-1.64995 3.083061,-2.60901 2.580155,-0.74175 3.465245,-1.37285 3.465245,-2.47088 0,-0.98556 -0.55796,-1.1484 -2.15316,-0.62838 -0.721647,0.23525 -2.106359,0.54706 -3.07714,0.6929 -2.203544,0.33106 -2.78792,0.57631 -6.008004,2.52141 -1.717006,1.03717 -2.744969,1.51078 -3.036375,1.39896 -0.298919,-0.11471 -0.380889,-0.0725 -0.254959,0.13125 0.297559,0.48146 0.988343,0.35094 2.08435,-0.39381 2.799701,-1.90245 5.082422,-2.93932 7.286544,-3.30975 1.213779,-0.20398 2.70758,-0.55494 3.319564,-0.77991 1.35722,-0.49891 1.83894,-0.21854 1.37479,0.80015 -0.33851,0.74296 -1.20438,1.18098 -3.801611,1.92312 -2.896284,0.8276 -3.937294,2.00937 -2.600314,2.95191 0.907798,0.63999 3.714615,1.41875 5.113435,1.41875 0.70029,0 1.48872,0.11531 1.75206,0.25625 0.26335,0.14094 1.09319,0.34952 1.84409,0.46352 l 1.36528,0.20727 -2.17154,0.41111 c -2.08619,0.39496 -2.196,0.39187 -2.79397,-0.0785 -0.817395,-0.64296 -1.819994,-0.61767 -5.127898,0.12935 -1.507449,0.34042 -3.930515,0.75195 -5.384594,0.91451 -1.454079,0.16256 -3.150404,0.44803 -3.769612,0.63439 -1.077674,0.32433 -1.151245,0.31159 -1.719858,-0.29778 -0.77723,-0.83295 -1.596885,-1.23898 -6.918584,-3.4272 -2.450903,-1.00778 -4.670618,-2.02265 -4.932701,-2.25525 -1.180674,-1.04788 -1.54282,-2.32225 -1.652011,-5.81329 -0.116116,-3.71253 0.206949,-6.549196 1.622464,-14.245994 0.480329,-2.611765 1.225027,-7.095165 1.654884,-9.963108 1.597881,-10.66088 2.877828,-14.76034 5.529274,-17.70938 1.746453,-1.94248 3.768819,-2.79647 10.483783,-4.42704 3.086094,-0.74938 5.757574,-1.509 5.936625,-1.68805 0.17905,-0.17905 0.405482,-1.07199 0.503183,-1.98432 0.168937,-1.5775 0.138908,-1.71224 -0.612952,-2.75014 -0.861038,-1.18864 -1.555583,-3.19206 -1.555583,-4.48712 0,-1.53501 -0.290551,-2.424 -0.792246,-2.424 -0.510209,0 -0.630602,-0.34586 -1.401662,-4.02666 -0.457879,-2.18576 -0.391156,-2.9932 0.227713,-2.75571 0.302336,0.11601 0.341593,-0.24292 0.233647,-2.13614 -0.09697,-1.70075 -0.01866,-2.6576604 0.309957,-3.7881104 1.049046,-3.6086 3.008047,-6.28318 5.49322,-7.49979995 1.244691,-0.60934 1.831261,-0.72207 4.176111,-0.80263 5.50209,-0.18902 8.06925,1.41760995 10.39757,6.50720995 0.61681,1.34833 0.71739,1.93146 0.8108,4.7008104 0.0855,2.53354 0.17616,3.13487 0.45658,3.02726 0.19247,-0.0739 0.41747,-0.025 0.49999,0.10849 0.13886,0.22469 -1.04768,6.01864 -1.32417,6.46602 -0.0677,0.1096 -0.34735,0.19926 -0.62138,0.19926 -0.42382,0 -0.49821,0.18359 -0.49821,1.2295 0,1.77721 -0.66861,4.12573 -1.52543,5.35814 l -0.74316,1.06893 0.3042,1.96749 c 0.19404,1.25493 0.44742,2.04763 0.69963,2.18878 0.21749,0.12171 2.81455,0.80906 5.77127,1.52746 6.7502,1.64009 8.2278,2.23801 10.12969,4.09901 2.89047,2.82833 4.1833,6.82897 5.89433,18.239837 0.41279,2.752942 1.1536,7.2 1.64624,9.882353 2.31955,12.629662 2.24483,18.348942 -0.26206,20.058882 -1.00623,0.68634 -7.8173,3.53841 -10.69907,4.48013 -1.90811,0.62354 -2.48814,0.93856 -3.10416,1.6859 -1.06921,1.29714 -1.84321,1.56205 -9.39491,3.21551 -2.01924,0.44212 -8.39736,0.96833 -9.78528,0.80731 z"
     id="path2673"
     inkscape:connector-curvature="0" />
  <path
     style="fill:none;fill-opacity:1;stroke:#1d5866;stroke-width:0.89999998;stroke-miterlimit:4;stroke-dasharray:none;stroke-opacity:1"
     d="m 112.16874,91.604428 c 4.32786,-8.38151 6.58865,-17.676452 6.59375,-27.109376 C 118.75119,37.72522 100.76414,14.299243 74.905075,7.3759106 h 6e-5 m -30.607478,0.04883 C 18.459976,14.34706 0.48222553,37.746162 0.45000053,64.495054 c 0.01883,9.425418 2.28955997,18.709904 6.62304697,27.080074"
     id="path2679"
     inkscape:connector-curvature="0"
     sodipodi:nodetypes="ccccccc" />
  <path
     style="fill:none;fill-opacity:1;stroke:#1d5866;stroke-width:0.89999998;stroke-miterlimit:4;stroke-dasharray:none;stroke-opacity:1"
     d="M 97.647325,85.215758 C 101.12345,78.861588 102.95255,71.737893 102.96763,64.495052 102.94933,46.212453 91.465785,29.90552 74.258645,23.727474 m -29.310542,0.01563 c -17.199439,6.178065 -28.679105,22.476598 -28.703126,40.751953 7.13e-4,7.255371 1.821949,14.394591 5.296876,20.763681"
     id="circle2681"
     inkscape:connector-curvature="0"
     sodipodi:nodetypes="cccccc" />
</svg>
